<svg version="1.1" xmlns="http://www.w3.org/2000/svg" xmlns:xlink="http://www.w3.org/1999/xlink" width="380.57499" height="137.70839" viewBox="756.91429,465.77783,380.57499,137.70839"><g fill="#000000" fill-rule="nonzero" stroke="none" stroke-width="1" stroke-linecap="butt" stroke-linejoin="miter" stroke-miterlimit="10" stroke-dasharray="" stroke-dashoffset="0" font-family="none" font-weight="none" font-size="none" text-anchor="none" style="mix-blend-mode: normal"><path d="M766.69747,599.45289v0v0c3.36887,0 5.90227,-1.34443 7.60018,-4.0333v0v0c2.6412,-4.3406 5.64623,-12.52243 9.01511,-24.54551v0l-0.16171,-1.15237v0c-2.10218,-16.01796 -3.58448,-25.23693 -4.44691,-27.65691v0v0c-0.94328,-3.14981 -2.15608,-4.72472 -3.63838,-4.72472v0v0c-1.88657,0 -3.80009,1.88221 -5.74056,5.64662v0v0c-1.94047,3.726 -4.91856,11.06276 -8.93426,22.01029v0l-1.73834,-1.32523v0c4.52777,-12.59926 7.78884,-20.81951 9.78321,-24.66074v0v0c2.02132,-3.80283 4.33911,-5.70424 6.95336,-5.70424v0v0c3.26107,0 5.9966,1.30602 8.20658,3.91806v0v0c2.20998,2.61204 4.11003,7.1447 5.70014,13.59798v0l1.09152,-3.1114v0c3.26107,-9.60309 7.84274,-14.40464 13.74501,-14.40464v0v0c2.749,0 5.17459,1.42126 7.27677,4.26377v0v0c2.10218,2.84252 3.15327,6.35725 3.15327,10.5442v0v0c0,1.80538 -0.44469,3.32267 -1.33407,4.55187v0v0c-0.88938,1.19078 -1.91352,1.78618 -3.07241,1.78618v0v0c-1.15889,0 -2.16956,-0.6338 -3.03199,-1.90141v0v0c-0.83548,-1.30602 -1.25322,-2.7849 -1.25322,-4.43663v0v0c0,-7.18311 -0.88938,-10.77467 -2.66815,-10.77467v0v0c-4.20436,0 -7.62713,4.05251 -10.26833,12.15752v0v0c-1.05109,2.99617 -1.84614,5.32011 -2.38516,6.97185v0v0c0.43122,1.80538 1.17237,6.29963 2.22346,13.48274v0v0c0.32341,2.57363 0.6603,5.2817 1.01066,8.12422v0v0c0.37731,2.84252 0.67377,5.08964 0.88938,6.74137v0v0c0.21561,1.65173 0.44469,3.4187 0.68725,5.30091v0v0c0.26951,1.88221 0.51207,3.30346 0.72768,4.26377v0v0c0.21561,0.99872 0.48512,1.93982 0.80853,2.82331v0v0c0.29646,0.88348 0.6603,1.47888 1.09152,1.78618v0v0c0.40426,0.3073 0.92981,0.46095 1.57663,0.46095v0v0c3.69229,0 8.32786,-7.79771 13.90671,-23.39314v0l4.40649,-12.38799l1.73834,1.32523l-5.37672,15.09606v0c-5.68666,15.59542 -10.57827,23.39314 -14.67482,23.39314v0v0c-3.90789,0 -7.02073,-1.70935 -9.33852,-5.12805v0v0c-2.29083,-3.45711 -4.28521,-10.37134 -5.98312,-20.74268v0v0c-2.749,9.14214 -5.37672,15.90272 -7.88317,20.28173v0v0c-2.31779,3.726 -5.53843,5.589 -9.66193,5.589v0v0c-2.39864,0 -4.63557,-1.11396 -6.7108,-3.34188v0v0c-2.04828,-2.26633 -3.07241,-5.41614 -3.07241,-9.44944v0h2.87028v0c0,3.14981 0.78158,5.39694 2.34474,6.74137v0v0c1.59011,1.34443 3.11284,2.01665 4.56819,2.01665zM834.29057,492.80094v0v0c1.3745,0 2.50644,0.6338 3.39583,1.90141v0v0c0.88938,1.26761 1.33407,2.8041 1.33407,4.60948v0v0c0,2.53522 -0.78158,4.78234 -2.34474,6.74137v0v0c-1.59011,1.95903 -3.11284,2.93855 -4.56819,2.93855v0v0c-1.3745,0 -2.50644,-0.6338 -3.39583,-1.90141v0v0c-0.91633,-1.30602 -1.3745,-2.84252 -1.3745,-4.60948v0v0c0,-2.57363 0.79505,-4.83996 2.38516,-6.79899v0v0c1.59011,-1.92062 3.11284,-2.88093 4.56819,-2.88093M822.2839,534.63201h9.82364v0c1.23975,0 1.85962,0.51857 1.85962,1.5557v0v0c-1.67096,8.10501 -3.47668,19.03333 -5.41715,32.78496v0v0c-1.96742,13.71322 -2.95113,21.93347 -2.95113,24.66074v0v0c0,2.99617 0.79505,4.49425 2.38516,4.49425v0v0c1.69791,0 3.9618,-1.72856 6.79165,-5.18567v0v0c2.82985,-3.45711 5.56538,-8.93088 8.20658,-16.42129v0l4.56819,-12.84894l1.73834,1.32523l-4.56819,12.84894v0c-6.19873,17.09351 -13.24641,25.64026 -21.14306,25.64026v0v0c-4.52777,0 -6.79165,-4.3406 -6.79165,-13.02179v0v0c0,-4.07171 0.94328,-12.56085 2.82985,-25.4674v0l-1.73834,-1.32523v0c3.98875,-11.40848 6.30653,-20.1857 6.95336,-26.33168v0h-2.82985zM896.50695,534.63201h2.54687l-5.53843,40.50585v0c-1.05109,8.25866 -1.57663,13.80925 -1.57663,16.65176v0v0c0,5.87709 1.2667,8.81564 3.80009,8.81564v0v0c5.14764,0 10.9421,-9.23818 17.38339,-27.71453v0l3.31497,-9.21897l1.73834,1.32523l-3.47668,9.27659v0c-3.18022,8.6812 -6.1044,15.30733 -8.77255,19.8784v0v0c-2.6951,4.57107 -4.79728,7.27914 -6.30653,8.12422v0v0c-1.53621,0.80666 -3.4093,1.20999 -5.61928,1.20999v0v0c-6.73775,0 -10.32223,-5.62741 -10.75345,-16.88224v0v0c-2.20998,5.10885 -4.91856,9.19976 -8.12573,12.27275v0v0c-3.20717,3.07299 -6.54909,4.60948 -10.02577,4.60948v0v0c-6.11788,0 -10.8882,-2.65045 -14.31098,-7.95136v0v0c-3.39583,-5.33932 -5.09374,-12.13831 -5.09374,-20.39697v0v0c0,-11.10118 2.88376,-20.85792 8.65127,-29.27023v0v0c5.79446,-8.3739 12.47831,-12.56085 20.05154,-12.56085v0v0c2.749,0 5.22849,0.82587 7.43848,2.4776v0v0c2.20998,1.65173 3.89442,3.26505 5.05331,4.83996v0v0c1.15889,1.57491 1.79224,2.36236 1.90005,2.36236v0v0c0.43122,0 1.53621,-1.40205 3.31497,-4.20615v0v0c1.77877,-2.76569 3.2476,-4.14854 4.40649,-4.14854v0M883.73218,575.82928l4.1235,-29.96165v0c-3.47668,-5.68503 -7.96402,-8.52755 -13.46202,-8.52755v0v0c-4.93203,0 -9.43285,4.16774 -13.50245,12.50323v0v0c-4.04265,8.33549 -6.06397,17.59287 -6.06397,27.77215v0v0c0,6.45328 0.94328,11.71577 2.82985,15.78749v0v0c1.91352,4.0333 4.39301,6.04995 7.43848,6.04995v0v0c3.80009,0 7.45195,-2.20871 10.95558,-6.62613v0v0c3.53058,-4.41742 6.09093,-10.08325 7.68103,-16.99748zM955.40835,552.20567v0v0c0,-9.91039 -3.73271,-14.86559 -11.19814,-14.86559v0v0c-4.20436,0 -7.81579,1.76697 -10.8343,5.30091v0v0c-2.99156,3.53394 -5.14764,7.98977 -6.46824,13.36751v0v0c-1.3206,5.41614 -2.23693,10.2561 -2.749,14.51988v0v0c-0.53902,4.26377 -0.80853,8.20104 -0.80853,11.8118v0v0c0,11.40848 3.89442,17.11271 11.68326,17.11271v0v0c4.74338,0 8.6917,-2.63125 11.84496,-7.89374v0v0c-0.83548,-0.42254 -1.25322,-1.17158 -1.25322,-2.24712v0v0c0,-0.57619 0.16171,-1.13317 0.48512,-1.67094v0v0c0.32341,-0.53777 0.68725,-0.80666 1.09152,-0.80666v0v0c0.21561,0 0.79505,0.3073 1.73834,0.9219v0v0c4.31216,-9.60309 6.46824,-21.45331 6.46824,-35.55065M935.0334,603.48619v0v0c-5.87532,0 -10.76692,-2.68887 -14.67482,-8.0666v0v0c-3.88094,-5.41614 -5.82142,-12.25355 -5.82142,-20.51221v0v0c0,-10.94753 3.04546,-20.62744 9.13639,-29.03975v0v0c6.11788,-8.3739 12.96343,-12.56085 20.53666,-12.56085v0v0c6.11788,0 10.91515,2.68887 14.39183,8.0666v0v0c3.44973,5.41614 5.17459,12.0999 5.17459,20.05126v0v0c0,10.64023 -2.73553,20.24332 -8.20658,28.80928v0v0c1.69791,-0.15365 3.26107,-0.67222 4.68947,-1.5557v0v0c1.40145,-0.9219 2.54687,-1.78618 3.43625,-2.59284v0v0c0.91633,-0.84507 1.95395,-2.41998 3.11284,-4.72472v0v0c1.15889,-2.34315 1.91352,-3.99489 2.26388,-4.9552v0v0c0.37731,-0.99872 1.14542,-3.14981 2.30431,-6.45328v0v0c1.15889,-3.30346 1.90005,-5.39694 2.22346,-6.28042v0l1.73834,1.32523v0c-0.1078,0.46095 -0.51207,1.67094 -1.21279,3.62997v0v0c-0.67377,1.95903 -1.14542,3.22664 -1.41493,3.80283v0v0c-0.26951,0.6146 -0.74115,1.863 -1.41493,3.74521v0v0c-0.67377,1.88221 -1.19932,3.14981 -1.57663,3.80283v0v0c-0.37731,0.69142 -0.95676,1.78618 -1.73834,3.28426v0v0c-0.78158,1.49808 -1.49578,2.59284 -2.1426,3.28426v0v0c-0.61987,0.65301 -1.3745,1.45967 -2.26388,2.41998v0v0c-0.91633,0.99872 -1.81919,1.72856 -2.70858,2.18951v0v0c-0.88938,0.42254 -1.91352,0.82587 -3.07241,1.20999v0v0c-1.15889,0.38412 -2.31779,0.57619 -3.47668,0.57619v0h-0.7681v0c-5.498,7.02946 -11.66978,10.5442 -18.51533,10.5442zM980.67491,576.29023l-3.47668,25.87073h-9.62151l3.80009,-27.65691v0c2.53339,-18.63 4.55472,-36.79905 6.06397,-54.50716v0v0c1.53621,-17.7081 2.61425,-30.46101 3.23412,-38.25872v0v0c0.64682,-7.79771 1.44188,-12.59926 2.38516,-14.40464v0v0c0.53902,-1.03713 2.43907,-1.5557 5.70014,-1.5557v0v0c0.94328,0 2.11565,0.19206 3.51711,0.57619v0v0c1.4284,0.34571 3.19369,1.01793 5.29587,2.01665v0v0c2.10218,0.96031 3.86747,2.68887 5.29587,5.18567v0v0c1.4284,2.45839 2.1426,5.41614 2.1426,8.87326v0v0c0,10.48658 -6.89946,31.11402 -20.69837,61.88233v0v0c-0.61987,6.76058 -1.40145,13.9629 -2.34474,21.60696v0v0c10.61869,-21.7414 20.2402,-32.61211 28.86452,-32.61211v0v0c3.47668,0 6.45476,1.78618 8.93426,5.35853v0v0c2.47949,3.61076 3.71924,8.41231 3.71924,14.40464v0v0c0,3.76441 -0.91633,10.5634 -2.749,20.39697v0v0c-1.85962,9.83357 -2.78943,16.32526 -2.78943,19.47507v0v0c0,4.0333 0.90286,6.04995 2.70858,6.04995v0v0c1.56316,0 3.13979,-1.42126 4.7299,-4.26377v0v0c1.56316,-2.84252 4.02917,-8.91167 7.39805,-18.20747v0l4.60862,-12.84894l1.57663,1.32523l-4.44691,12.38799v0c-2.10218,5.72344 -3.43625,9.37262 -4.00222,10.94753v0v0c-0.59292,1.57491 -1.56316,3.86044 -2.91071,6.85661v0v0c-1.3745,2.99617 -2.47949,4.80155 -3.31497,5.41614v0v0c-0.86243,0.57619 -1.9809,1.20999 -3.3554,1.90141v0v0c-1.34755,0.65301 -2.97809,0.97952 -4.89161,0.97952v0v0c-4.93203,0 -7.39805,-4.11012 -7.39805,-12.33037v0v0c0,-3.76441 0.94328,-10.64023 2.82985,-20.62744v0v0c1.88657,-9.98722 2.82985,-17.90017 2.82985,-23.73885v0v0c0,-6.29963 -1.15889,-9.44944 -3.47668,-9.44944v0v0c-3.77314,0 -8.28743,3.14981 -13.54288,9.44944v0v0c-5.2824,6.29963 -10.82083,16.1332 -16.61529,29.5007v0M984.79841,537.57056v0v0c12.2088,-27.77215 18.3132,-46.30612 18.3132,-55.60191v0v0c0,-4.49425 -1.84614,-7.87454 -5.53843,-10.14087v0v0c-3.66534,-2.22792 -6.60299,-3.34188 -8.81298,-3.34188v0l-0.32341,0.40333v0c-0.75463,1.38285 -1.19932,4.72472 -1.33407,10.02563v0v0c-0.16171,5.33932 -0.37731,13.71322 -0.64682,25.12169v0v0c-0.26951,11.40848 -0.82201,22.58648 -1.65749,33.534zM1086.18806,534.63201h2.50644l-5.498,40.50585v0c-1.07804,8.25866 -1.61706,13.80925 -1.61706,16.65176v0v0c0,5.87709 1.2667,8.81564 3.80009,8.81564v0v0c5.17459,0 10.96906,-9.23818 17.38339,-27.71453v0l3.31497,-9.21897l1.73834,1.32523l-3.47668,9.27659v0c-3.15327,8.6812 -6.07745,15.30733 -8.77255,19.8784v0v0c-2.66815,4.57107 -4.77033,7.27914 -6.30653,8.12422v0v0c-1.53621,0.80666 -3.4093,1.20999 -5.61928,1.20999v0v0c-6.73775,0 -10.30876,-5.62741 -10.71302,-16.88224v0v0c-2.20998,5.10885 -4.93203,9.19976 -8.16615,12.27275v0v0c-3.20717,3.07299 -6.54909,4.60948 -10.02577,4.60948v0v0c-6.09093,0 -10.84778,-2.65045 -14.27055,-7.95136v0v0c-3.42278,-5.33932 -5.13416,-12.13831 -5.13416,-20.39697v0v0c0,-11.10118 2.89723,-20.85792 8.6917,-29.27023v0v0c5.79446,-8.3739 12.47831,-12.56085 20.05154,-12.56085v0v0c2.72205,0 5.18807,0.82587 7.39805,2.4776v0v0c2.23693,1.65173 3.92137,3.26505 5.05331,4.83996v0v0c1.15889,1.57491 1.79224,2.36236 1.90005,2.36236v0v0c0.43122,0 1.53621,-1.40205 3.31497,-4.20615v0v0c1.80572,-2.76569 3.28802,-4.14854 4.44691,-4.14854v0M1073.37286,575.82928l4.1235,-29.96165v0c-3.47668,-5.68503 -7.95054,-8.52755 -13.4216,-8.52755v0v0c-4.95898,0 -9.4598,4.16774 -13.50245,12.50323v0v0c-4.04265,8.33549 -6.06397,17.59287 -6.06397,27.77215v0v0c0,6.45328 0.94328,11.71577 2.82985,15.78749v0v0c1.88657,4.0333 4.35259,6.04995 7.39805,6.04995v0v0c3.80009,0 7.46543,-2.20871 10.99601,-6.62613v0v0c3.53058,-4.41742 6.07745,-10.08325 7.64061,-16.99748zM1122.49105,492.80094v0v0c1.3745,0 2.50644,0.6338 3.39583,1.90141v0v0c0.88938,1.26761 1.33407,2.8041 1.33407,4.60948v0v0c0,2.53522 -0.78158,4.78234 -2.34474,6.74137v0v0c-1.59011,1.95903 -3.11284,2.93855 -4.56819,2.93855v0v0c-1.3745,0 -2.50644,-0.6338 -3.39583,-1.90141v0v0c-0.91633,-1.30602 -1.3745,-2.84252 -1.3745,-4.60948v0v0c0,-2.57363 0.79505,-4.83996 2.38516,-6.79899v0v0c1.59011,-1.92062 3.11284,-2.88093 4.56819,-2.88093M1110.48438,534.63201h9.82364v0c1.23975,0 1.85962,0.51857 1.85962,1.5557v0v0c-1.67096,8.10501 -3.47668,19.03333 -5.41715,32.78496v0v0c-1.96742,13.71322 -2.95113,21.93347 -2.95113,24.66074v0v0c0,2.99617 0.79505,4.49425 2.38516,4.49425v0v0c1.67096,0 3.93485,-1.72856 6.79165,-5.18567v0v0c2.82985,-3.45711 5.56538,-8.93088 8.20658,-16.42129v0l4.56819,-12.84894l1.73834,1.32523l-4.56819,12.84894v0c-6.19873,17.09351 -13.24641,25.64026 -21.14306,25.64026v0v0c-4.52777,0 -6.79165,-4.3406 -6.79165,-13.02179v0v0c0,-4.07171 0.94328,-12.56085 2.82985,-25.4674v0l-1.73834,-1.32523v0c3.98875,-11.40848 6.30653,-20.1857 6.95336,-26.33168v0h-2.82985z" id="CompoundPath 1"/></g></svg>