<svg width="360.4" height="80.602" id="my-svg" viewBox="0 0 360.4 80.602" xmlns="http://www.w3.org/2000/svg">
    <g id="svgGroup" stroke-linecap="round" fill-rule="evenodd" font-size="9pt" stroke="#000" stroke-width="0.1mm"
        fill="#877c7c" style="stroke: #000; stroke-width: 0.1mm; fill: #fffefe">
        <path
            d="M 212.5 76.1 L 219.9 75.2 L 219.9 6.4 L 211.6 5.2 L 211.6 1.8 L 225 0.2 L 226.9 1.2 L 226.9 24.2 L 226.8 31.4 A 34.618 34.618 0 0 1 232.387 27.852 A 44.799 44.799 0 0 1 236.9 25.85 Q 240.841 24.347 243.979 23.848 A 18.656 18.656 0 0 1 246.9 23.6 A 28.279 28.279 0 0 1 250.785 23.849 Q 252.755 24.123 254.359 24.698 A 11.746 11.746 0 0 1 257.2 26.15 Q 260.8 28.7 262.25 34.3 Q 263.606 39.539 263.606 48.541 A 124.717 124.717 0 0 1 263.6 49.8 L 263.6 75.2 L 271.1 76.1 L 271.1 79.4 L 248.4 79.4 L 248.4 76.1 L 256.5 75.2 L 256.5 52.6 Q 256.5 45.182 255.855 40.55 A 35.414 35.414 0 0 0 255.55 38.7 A 17.914 17.914 0 0 0 254.733 35.759 Q 253.698 33.029 251.85 31.45 A 8.829 8.829 0 0 0 248.834 29.803 Q 246.698 29.1 243.8 29.1 A 22.468 22.468 0 0 0 240.274 29.397 Q 238.515 29.677 236.576 30.222 A 41.997 41.997 0 0 0 235.15 30.65 A 38.278 38.278 0 0 0 230.922 32.268 Q 228.775 33.247 227.013 34.424 A 23.615 23.615 0 0 0 226.9 34.5 L 226.9 75.2 L 234.6 76.1 L 234.6 79.4 L 212.5 79.4 L 212.5 76.1 Z M 0.7 76.1 L 8 75.2 L 24.8 52.8 L 7.5 29.5 L 0 28.8 L 0 24.8 L 23.4 24.8 L 23.4 28.8 L 15.8 29.4 L 29.3 49.3 L 31.8 45.4 L 42.7 29.4 L 35.6 28.8 L 35.6 24.8 L 55.9 24.8 L 55.9 28.8 L 48.6 29.5 L 31.7 52.1 L 49.1 75.2 L 56.5 76.1 L 56.5 79.4 L 33 79.4 L 33 76.1 L 40.8 75.3 L 30.4 60.3 L 27.1 55.8 L 24.9 59.5 L 14.1 75.3 L 23 76.1 L 23 79.4 L 0.7 79.4 L 0.7 76.1 Z M 136.5 41.7 L 136.4 75.9 L 142.8 75.9 L 142.8 78.6 A 15.669 15.669 0 0 1 139.261 79.749 Q 137.607 80.087 135.7 80.172 A 29.321 29.321 0 0 1 134.4 80.2 A 10.709 10.709 0 0 1 133.154 80.133 Q 131.219 79.906 130.6 78.9 Q 129.8 77.6 129.8 73.5 Q 123.7 80.5 112.2 80.5 Q 107.9 80.5 104.15 78.7 Q 100.4 76.9 98.1 73.5 A 13.314 13.314 0 0 1 95.962 67.805 A 17.302 17.302 0 0 1 95.8 65.4 Q 95.8 58.826 100.894 54.775 A 16.784 16.784 0 0 1 101.25 54.5 A 31.846 31.846 0 0 1 109.567 50.052 A 40.179 40.179 0 0 1 114.35 48.65 A 67.724 67.724 0 0 1 128.416 46.908 A 62.8 62.8 0 0 1 129.4 46.9 L 129.4 42.6 A 25.798 25.798 0 0 0 129.146 38.838 Q 128.48 34.335 126.068 32.088 A 7.61 7.61 0 0 0 125.8 31.85 Q 122.2 28.8 115 28.8 A 24.366 24.366 0 0 0 111.671 29.045 Q 109.362 29.364 106.7 30.1 A 38.573 38.573 0 0 0 103.705 31.053 Q 101.072 32.019 99.3 33.2 L 97.9 29.7 A 17.57 17.57 0 0 1 101.018 27.692 Q 102.611 26.875 104.558 26.203 A 38.439 38.439 0 0 1 107.2 25.4 Q 111.518 24.249 114.904 23.926 A 26.358 26.358 0 0 1 117.4 23.8 Q 124.034 23.8 128.594 26.045 A 16.46 16.46 0 0 1 131.35 27.75 Q 135.303 30.782 136.222 37.379 A 31.398 31.398 0 0 1 136.5 41.7 Z M 321.1 41.7 L 321 75.9 L 327.4 75.9 L 327.4 78.6 A 15.669 15.669 0 0 1 323.861 79.749 Q 322.207 80.087 320.3 80.172 A 29.321 29.321 0 0 1 319 80.2 A 10.709 10.709 0 0 1 317.754 80.133 Q 315.819 79.906 315.2 78.9 Q 314.4 77.6 314.4 73.5 Q 308.3 80.5 296.8 80.5 Q 292.5 80.5 288.75 78.7 Q 285 76.9 282.7 73.5 A 13.314 13.314 0 0 1 280.562 67.805 A 17.302 17.302 0 0 1 280.4 65.4 Q 280.4 58.826 285.494 54.775 A 16.784 16.784 0 0 1 285.85 54.5 A 31.846 31.846 0 0 1 294.167 50.052 A 40.179 40.179 0 0 1 298.95 48.65 A 67.724 67.724 0 0 1 313.016 46.908 A 62.8 62.8 0 0 1 314 46.9 L 314 42.6 A 25.798 25.798 0 0 0 313.746 38.838 Q 313.08 34.335 310.668 32.088 A 7.61 7.61 0 0 0 310.4 31.85 Q 306.8 28.8 299.6 28.8 A 24.366 24.366 0 0 0 296.271 29.045 Q 293.962 29.364 291.3 30.1 A 38.573 38.573 0 0 0 288.305 31.053 Q 285.672 32.019 283.9 33.2 L 282.5 29.7 A 17.57 17.57 0 0 1 285.618 27.692 Q 287.211 26.875 289.158 26.203 A 38.439 38.439 0 0 1 291.8 25.4 Q 296.118 24.249 299.504 23.926 A 26.358 26.358 0 0 1 302 23.8 Q 308.634 23.8 313.194 26.045 A 16.46 16.46 0 0 1 315.95 27.75 Q 319.903 30.782 320.822 37.379 A 31.398 31.398 0 0 1 321.1 41.7 Z M 183.273 23.723 A 28.059 28.059 0 0 0 177.2 23.1 Q 170.2 23.1 164.2 26.6 A 24.515 24.515 0 0 0 160.526 29.22 A 26.245 26.245 0 0 0 154.65 36.6 Q 151.1 43.1 151.1 51.6 A 45.375 45.375 0 0 0 151.354 56.459 A 36.829 36.829 0 0 0 153.7 66.15 Q 156.3 72.7 161.8 76.65 Q 165.152 79.057 169.58 79.997 A 29.451 29.451 0 0 0 175.7 80.6 Q 182.8 80.6 188.55 76.85 Q 194.3 73.1 197.65 66.4 A 31.334 31.334 0 0 0 200.019 59.959 A 37.892 37.892 0 0 0 201.1 51.2 A 43.098 43.098 0 0 0 200.978 47.933 A 36.243 36.243 0 0 0 198.55 37.2 Q 196 30.8 190.65 26.95 A 19.802 19.802 0 0 0 183.273 23.723 Z M 76.6 24.1 L 78.5 25 L 78.5 75.2 L 86.6 76.1 L 86.6 79.4 L 63.6 79.4 L 63.6 76.1 L 71.7 75.3 L 71.7 32 L 64.7 29.5 L 64.7 27.1 L 76.6 24.1 Z M 350.4 24.1 L 352.3 25 L 352.3 75.2 L 360.4 76.1 L 360.4 79.4 L 337.4 79.4 L 337.4 76.1 L 345.5 75.3 L 345.5 32 L 338.5 29.5 L 338.5 27.1 L 350.4 24.1 Z M 176.1 27.2 A 17.404 17.404 0 0 0 170.235 28.146 A 14.836 14.836 0 0 0 163.25 33.4 A 21.199 21.199 0 0 0 159.951 40.136 Q 159.107 42.97 158.79 46.349 A 45.595 45.595 0 0 0 158.6 50.6 Q 158.6 61.9 163.1 69.1 A 14.481 14.481 0 0 0 173.449 76.047 A 20.09 20.09 0 0 0 176.7 76.3 Q 184.9 76.3 189.25 69.95 A 21.625 21.625 0 0 0 192.026 64.009 Q 192.887 61.192 193.277 57.775 A 53.679 53.679 0 0 0 193.6 51.7 A 45.209 45.209 0 0 0 193.045 44.395 Q 192.055 38.356 189.3 34 A 13.92 13.92 0 0 0 179.276 27.439 A 20.264 20.264 0 0 0 176.1 27.2 Z M 129.4 70.6 L 129.4 50.9 A 55.105 55.105 0 0 0 118.282 51.982 A 45.853 45.853 0 0 0 111.15 54.05 A 17.933 17.933 0 0 0 107.444 55.937 Q 105.19 57.472 104.054 59.542 A 9.726 9.726 0 0 0 102.9 64.3 Q 102.8 70.1 106.3 72.9 A 11.976 11.976 0 0 0 110.574 75.043 Q 112.314 75.536 114.384 75.659 A 23.848 23.848 0 0 0 115.8 75.7 A 20.585 20.585 0 0 0 129.017 70.914 A 25.949 25.949 0 0 0 129.4 70.6 Z M 314 70.6 L 314 50.9 A 55.105 55.105 0 0 0 302.882 51.982 A 45.853 45.853 0 0 0 295.75 54.05 A 17.933 17.933 0 0 0 292.044 55.937 Q 289.79 57.472 288.654 59.542 A 9.726 9.726 0 0 0 287.5 64.3 Q 287.4 70.1 290.9 72.9 A 11.976 11.976 0 0 0 295.174 75.043 Q 296.914 75.536 298.984 75.659 A 23.848 23.848 0 0 0 300.4 75.7 A 20.585 20.585 0 0 0 313.617 70.914 A 25.949 25.949 0 0 0 314 70.6 Z M 75.72 0.134 A 7.075 7.075 0 0 0 74.3 0 A 5.502 5.502 0 0 0 72.147 0.427 A 6.256 6.256 0 0 0 70.35 1.6 Q 68.6 3.2 68.6 5.6 A 5.916 5.916 0 0 0 68.618 6.066 A 4.319 4.319 0 0 0 70 9 Q 71.4 10.3 73.4 10.3 Q 75.7 10.3 77.45 8.7 Q 79.2 7.1 79.2 4.7 Q 79.2 2.6 77.95 1.3 Q 77.1 0.417 75.72 0.134 Z M 349.52 0.134 A 7.075 7.075 0 0 0 348.1 0 A 5.502 5.502 0 0 0 345.947 0.427 A 6.256 6.256 0 0 0 344.15 1.6 Q 342.4 3.2 342.4 5.6 A 5.916 5.916 0 0 0 342.418 6.066 A 4.319 4.319 0 0 0 343.8 9 Q 345.2 10.3 347.2 10.3 Q 349.5 10.3 351.25 8.7 Q 353 7.1 353 4.7 Q 353 2.6 351.75 1.3 Q 350.9 0.417 349.52 0.134 Z"
            vector-effect="non-scaling-stroke" />
    </g>
</svg>