<svg width="165.401" height="90.502" viewBox="0 0 165.401 90.502" xmlns="http://www.w3.org/2000/svg">
    <g id="svgGroup" stroke-linecap="round" fill-rule="evenodd" font-size="9pt" stroke="#000" stroke-width="0.1mm"
        fill="#877c7c" style="stroke:#000;stroke-width:0.1mm;fill:#877c7c">
        <path
            d="M 151.2 20.2 L 151.4 20 Q 149 17.3 149 13.6 Q 149 9.9 151.45 7.6 Q 153.9 5.3 157.3 5.3 A 9.869 9.869 0 0 1 159.649 5.565 A 6.879 6.879 0 0 1 162.75 7.2 A 6.668 6.668 0 0 1 164.151 8.997 A 5.748 5.748 0 0 1 164.8 11.7 A 7.127 7.127 0 0 1 164.544 13.656 A 5.497 5.497 0 0 1 163.25 15.95 Q 161.7 17.6 159.45 17.6 A 6.219 6.219 0 0 1 157.494 17.304 A 5.314 5.314 0 0 1 155.65 16.25 A 4.337 4.337 0 0 1 154.108 13.092 A 5.485 5.485 0 0 1 154.1 12.8 A 5.891 5.891 0 0 1 154.251 11.408 Q 154.703 9.556 156.5 9.051 A 4.378 4.378 0 0 1 156.7 9 A 1.63 1.63 0 0 0 157.083 8.868 Q 157.525 8.644 157.589 8.168 A 1.263 1.263 0 0 0 157.6 8 Q 157.6 7.279 156.786 7.208 A 2.155 2.155 0 0 0 156.6 7.2 A 5.377 5.377 0 0 0 152.911 8.653 A 7.245 7.245 0 0 0 152.55 9 A 6.086 6.086 0 0 0 150.896 12.401 A 8.464 8.464 0 0 0 150.8 13.7 A 10.096 10.096 0 0 0 154.208 21.324 A 14.878 14.878 0 0 0 155.5 22.4 Q 163.8 28.6 163.8 39.2 A 22.891 22.891 0 0 1 162.738 46.317 A 19.08 19.08 0 0 1 158.25 53.75 A 18.584 18.584 0 0 1 145.229 59.475 A 24.848 24.848 0 0 1 144.1 59.5 A 20.888 20.888 0 0 1 139.363 58.981 A 17.847 17.847 0 0 1 136.6 58.1 A 21.891 21.891 0 0 0 131.817 60.142 A 19.465 19.465 0 0 0 130.05 61.3 A 8.757 8.757 0 0 0 128.555 62.672 Q 127.2 64.27 127.2 66.2 A 4.783 4.783 0 0 0 127.723 68.507 Q 129.071 71 133.9 71 A 10.477 10.477 0 0 0 135.635 70.827 Q 138.789 70.286 144.7 68.05 Q 150.7 65.781 154.363 65.257 A 14.162 14.162 0 0 1 156.35 65.1 Q 160.2 65.1 162.8 67.75 A 8.794 8.794 0 0 1 165.079 72.007 A 13.154 13.154 0 0 1 165.4 75 Q 165.4 82.134 159.902 86.274 A 16.695 16.695 0 0 1 159.8 86.35 Q 154.2 90.5 147.2 90.5 Q 133.5 90.5 128.9 79 A 8.798 8.798 0 0 1 125.578 77.597 Q 122.436 75.34 122.4 70.119 A 17.603 17.603 0 0 1 122.4 70 A 10.061 10.061 0 0 1 125.225 62.982 A 13.679 13.679 0 0 1 125.9 62.3 A 22.366 22.366 0 0 1 131.516 58.472 A 28.019 28.019 0 0 1 134.6 57.2 Q 129.8 54.7 127.1 49.95 A 20.811 20.811 0 0 1 124.473 41.136 A 25.384 25.384 0 0 1 124.4 39.2 A 22.835 22.835 0 0 1 125.443 32.152 A 18.858 18.858 0 0 1 129.95 24.7 A 18.622 18.622 0 0 1 142.775 19.035 A 24.916 24.916 0 0 1 144.1 19 A 20.878 20.878 0 0 1 147.943 19.375 A 27.863 27.863 0 0 1 151.2 20.2 Z M 78.5 65.5 L 85.1 65.5 L 85.1 67 L 63 67 L 63 65.5 L 69.6 65.5 L 69.6 22.5 L 62.5 22.5 L 62.5 21 L 64.6 21 A 82.395 82.395 0 0 0 71.633 20.715 Q 75.17 20.411 78.286 19.785 A 50.054 50.054 0 0 0 78.7 19.7 L 78.7 29.7 L 79.3 29.7 Q 81 24.9 85.05 21.95 Q 89.1 19 94.1 19 A 22.854 22.854 0 0 1 98.334 19.364 Q 100.654 19.802 102.41 20.77 A 9.602 9.602 0 0 1 106 24.15 A 17.567 17.567 0 0 1 107.854 28.396 Q 109.099 32.551 109.192 38.524 A 62.717 62.717 0 0 1 109.2 39.5 L 109.2 65.5 L 115.8 65.5 L 115.8 67 L 93.7 67 L 93.7 65.5 L 100.3 65.5 L 100.3 40.9 A 118.952 118.952 0 0 0 100.219 36.325 Q 99.928 28.813 98.6 26 A 7.891 7.891 0 0 0 97.268 24.118 A 10.241 10.241 0 0 0 96.15 23.1 A 5.335 5.335 0 0 0 94.5 22.241 Q 93.748 21.993 92.829 21.885 A 13.073 13.073 0 0 0 91.3 21.8 Q 88.1 21.8 85.25 24.1 A 12.765 12.765 0 0 0 81.959 28.175 A 16.634 16.634 0 0 0 81 30.4 A 41.183 41.183 0 0 0 79.216 37.606 Q 78.5 42.102 78.5 47.4 L 78.5 65.5 Z M 28.1 22.5 L 16 22.5 L 16 56.5 Q 16 64.257 16.938 65.619 A 0.871 0.871 0 0 0 17.1 65.8 Q 17.668 66.274 18.596 66.299 A 3.876 3.876 0 0 0 18.7 66.3 A 4.717 4.717 0 0 0 21.087 65.62 Q 22.338 64.896 23.55 63.4 Q 25.9 60.5 27.4 57.1 L 29 57.7 A 25.948 25.948 0 0 1 26.451 62.61 A 21.575 21.575 0 0 1 23.9 65.75 A 11.382 11.382 0 0 1 20.909 67.972 A 9.68 9.68 0 0 1 16.5 69 A 15.064 15.064 0 0 1 13.828 68.782 Q 10.166 68.12 8.85 65.45 A 13.008 13.008 0 0 1 7.946 62.911 Q 7.1 59.585 7.1 54.3 L 7.1 22.5 L 0 22.5 L 0 21 L 0.7 21 A 14.745 14.745 0 0 0 6.735 19.837 Q 12.724 17.179 14.571 8.445 A 30.968 30.968 0 0 0 14.7 7.8 L 16 7.8 L 16 21 L 28.1 21 L 28.1 22.5 Z M 49.1 19.7 L 49.1 65.5 L 55.7 65.5 L 55.7 67 L 33.6 67 L 33.6 65.5 L 40.2 65.5 L 40.2 22.5 L 33.1 22.5 L 33.1 21 L 35.2 21 A 80.163 80.163 0 0 0 42.139 20.715 Q 45.627 20.411 48.693 19.785 A 48.389 48.389 0 0 0 49.1 19.7 Z M 154.25 46.2 A 43.019 43.019 0 0 0 154.463 43.857 Q 154.549 42.548 154.581 41.056 A 86.498 86.498 0 0 0 154.6 39.2 A 80.476 80.476 0 0 0 154.551 36.301 Q 154.469 34.032 154.25 32.25 A 27.871 27.871 0 0 0 153.082 27.044 A 31.094 31.094 0 0 0 152.9 26.5 A 9.829 9.829 0 0 0 151.759 24.177 A 7.742 7.742 0 0 0 149.7 22.1 A 8.247 8.247 0 0 0 146.935 20.908 Q 145.807 20.64 144.493 20.606 A 14.946 14.946 0 0 0 144.1 20.6 A 12.666 12.666 0 0 0 141.673 20.82 Q 140.198 21.108 139.025 21.773 A 7.497 7.497 0 0 0 138.5 22.1 A 7.959 7.959 0 0 0 135.916 25.059 A 10.547 10.547 0 0 0 135.3 26.5 A 28.484 28.484 0 0 0 134.048 31.537 A 26.03 26.03 0 0 0 133.95 32.25 A 41.371 41.371 0 0 0 133.737 34.564 Q 133.668 35.601 133.634 36.76 A 82.951 82.951 0 0 0 133.6 39.2 A 81.069 81.069 0 0 0 133.649 42.107 Q 133.7 43.532 133.805 44.775 A 39.772 39.772 0 0 0 133.95 46.2 Q 134.3 49.1 135.3 52 A 9.829 9.829 0 0 0 136.441 54.323 A 7.742 7.742 0 0 0 138.5 56.4 A 8.247 8.247 0 0 0 141.265 57.592 Q 142.393 57.861 143.707 57.895 A 14.946 14.946 0 0 0 144.1 57.9 A 12.666 12.666 0 0 0 146.527 57.681 Q 148.002 57.393 149.175 56.727 A 7.497 7.497 0 0 0 149.7 56.4 A 7.959 7.959 0 0 0 152.284 53.442 A 10.547 10.547 0 0 0 152.9 52 Q 153.9 49.1 154.25 46.2 Z M 131.2 79.2 L 131.1 79.2 A 12.345 12.345 0 0 0 136.403 86.052 A 15.822 15.822 0 0 0 136.8 86.3 A 18.139 18.139 0 0 0 145.785 88.89 A 21.623 21.623 0 0 0 146.45 88.9 A 19.76 19.76 0 0 0 154.085 87.435 A 18.96 18.96 0 0 0 156.2 86.4 A 9.832 9.832 0 0 0 158.614 84.523 A 7.581 7.581 0 0 0 160.6 79.2 A 6.7 6.7 0 0 0 160.359 77.355 A 4.969 4.969 0 0 0 158.85 74.95 A 6.003 6.003 0 0 0 156.079 73.584 A 8.675 8.675 0 0 0 154.25 73.4 Q 151.775 73.4 144.964 75.587 A 156.879 156.879 0 0 0 142.8 76.3 A 135.779 135.779 0 0 1 139.305 77.43 Q 134.312 78.964 131.886 79.169 A 8.212 8.212 0 0 1 131.2 79.2 Z M 38.506 6.21 A 5.566 5.566 0 0 0 40.15 10.05 A 5.461 5.461 0 0 0 42.176 11.35 A 6.217 6.217 0 0 0 44.3 11.7 A 7.508 7.508 0 0 0 44.397 11.7 A 5.778 5.778 0 0 0 48.5 10.05 A 5.449 5.449 0 0 0 49.826 8.057 A 6.037 6.037 0 0 0 50.2 5.9 Q 50.2 3.4 48.5 1.7 A 5.707 5.707 0 0 0 46.665 0.452 A 6.05 6.05 0 0 0 44.3 0 A 7.237 7.237 0 0 0 44.145 0.002 A 5.513 5.513 0 0 0 40.15 1.7 A 5.707 5.707 0 0 0 38.909 3.609 A 6.24 6.24 0 0 0 38.5 5.9 A 7.342 7.342 0 0 0 38.506 6.21 Z"
            vector-effect="non-scaling-stroke" />
    </g>
</svg>