<svg width="260.201" height="93.802" viewBox="0 0 260.201 93.802" xmlns="http://www.w3.org/2000/svg">
    <g id="svgGroup" stroke-linecap="round" fill-rule="evenodd" font-size="9pt" stroke="#000" stroke-width="0.1mm"
        fill="#877c7c" style="stroke:#000;stroke-width:0.1mm;fill:#877c7c">
        <path
            d="M 62 68.8 L 68.6 68.8 L 68.6 70.3 L 46.5 70.3 L 46.5 68.8 L 53.1 68.8 L 53.1 2.8 L 46 2.8 L 46 1.3 L 48.1 1.3 A 82.395 82.395 0 0 0 55.133 1.014 Q 58.67 0.711 61.786 0.085 A 50.054 50.054 0 0 0 62.2 0 L 62.2 33 L 62.8 33 Q 64.5 28.2 68.55 25.25 Q 72.6 22.3 77.6 22.3 A 22.854 22.854 0 0 1 81.834 22.663 Q 84.154 23.102 85.91 24.07 A 9.602 9.602 0 0 1 89.5 27.45 A 17.567 17.567 0 0 1 91.354 31.695 Q 92.599 35.85 92.692 41.824 A 62.717 62.717 0 0 1 92.7 42.8 L 92.7 68.8 L 99.3 68.8 L 99.3 70.3 L 77.2 70.3 L 77.2 68.8 L 83.8 68.8 L 83.8 44.2 A 118.952 118.952 0 0 0 83.719 39.625 Q 83.428 32.113 82.1 29.3 A 7.891 7.891 0 0 0 80.768 27.417 A 10.241 10.241 0 0 0 79.65 26.4 A 5.335 5.335 0 0 0 78 25.54 Q 77.248 25.293 76.329 25.184 A 13.073 13.073 0 0 0 74.8 25.1 Q 71.6 25.1 68.75 27.4 A 12.765 12.765 0 0 0 65.459 31.475 A 16.634 16.634 0 0 0 64.5 33.7 A 41.183 41.183 0 0 0 62.716 40.906 Q 62 45.402 62 50.7 L 62 68.8 Z M 246 23.5 L 246.2 23.3 Q 243.8 20.6 243.8 16.9 Q 243.8 13.2 246.25 10.9 Q 248.7 8.6 252.1 8.6 A 9.869 9.869 0 0 1 254.449 8.864 A 6.879 6.879 0 0 1 257.55 10.5 A 6.668 6.668 0 0 1 258.951 12.296 A 5.748 5.748 0 0 1 259.6 15 A 7.127 7.127 0 0 1 259.344 16.956 A 5.497 5.497 0 0 1 258.05 19.25 Q 256.5 20.9 254.25 20.9 A 6.219 6.219 0 0 1 252.294 20.603 A 5.314 5.314 0 0 1 250.45 19.55 A 4.337 4.337 0 0 1 248.908 16.392 A 5.485 5.485 0 0 1 248.9 16.1 A 5.891 5.891 0 0 1 249.051 14.708 Q 249.503 12.856 251.3 12.351 A 4.378 4.378 0 0 1 251.5 12.3 A 1.63 1.63 0 0 0 251.883 12.168 Q 252.325 11.944 252.389 11.468 A 1.263 1.263 0 0 0 252.4 11.3 Q 252.4 10.578 251.586 10.508 A 2.155 2.155 0 0 0 251.4 10.5 A 5.377 5.377 0 0 0 247.711 11.953 A 7.245 7.245 0 0 0 247.35 12.3 A 6.086 6.086 0 0 0 245.696 15.701 A 8.464 8.464 0 0 0 245.6 17 A 10.096 10.096 0 0 0 249.008 24.623 A 14.878 14.878 0 0 0 250.3 25.7 Q 258.6 31.9 258.6 42.5 A 22.891 22.891 0 0 1 257.538 49.616 A 19.08 19.08 0 0 1 253.05 57.05 A 18.584 18.584 0 0 1 240.029 62.775 A 24.848 24.848 0 0 1 238.9 62.8 A 20.888 20.888 0 0 1 234.163 62.28 A 17.847 17.847 0 0 1 231.4 61.4 A 21.891 21.891 0 0 0 226.617 63.441 A 19.465 19.465 0 0 0 224.85 64.6 A 8.757 8.757 0 0 0 223.355 65.972 Q 222 67.57 222 69.5 A 4.783 4.783 0 0 0 222.523 71.807 Q 223.871 74.3 228.7 74.3 A 10.477 10.477 0 0 0 230.435 74.127 Q 233.589 73.586 239.5 71.35 Q 245.5 69.081 249.163 68.557 A 14.162 14.162 0 0 1 251.15 68.4 Q 255 68.4 257.6 71.05 A 8.794 8.794 0 0 1 259.879 75.307 A 13.154 13.154 0 0 1 260.2 78.3 Q 260.2 85.434 254.702 89.574 A 16.695 16.695 0 0 1 254.6 89.65 Q 249 93.8 242 93.8 Q 228.3 93.8 223.7 82.3 A 8.798 8.798 0 0 1 220.378 80.897 Q 217.236 78.64 217.2 73.419 A 17.603 17.603 0 0 1 217.2 73.3 A 10.061 10.061 0 0 1 220.025 66.282 A 13.679 13.679 0 0 1 220.7 65.6 A 22.366 22.366 0 0 1 226.316 61.771 A 28.019 28.019 0 0 1 229.4 60.5 Q 224.6 58 221.9 53.25 A 20.811 20.811 0 0 1 219.273 44.435 A 25.384 25.384 0 0 1 219.2 42.5 A 22.835 22.835 0 0 1 220.243 35.452 A 18.858 18.858 0 0 1 224.75 28 A 18.622 18.622 0 0 1 237.575 22.335 A 24.916 24.916 0 0 1 238.9 22.3 A 20.878 20.878 0 0 1 242.743 22.674 A 27.863 27.863 0 0 1 246 23.5 Z M 173.3 68.8 L 179.9 68.8 L 179.9 70.3 L 157.8 70.3 L 157.8 68.8 L 164.4 68.8 L 164.4 25.8 L 157.3 25.8 L 157.3 24.3 L 159.4 24.3 A 82.395 82.395 0 0 0 166.433 24.014 Q 169.97 23.711 173.086 23.085 A 50.054 50.054 0 0 0 173.5 23 L 173.5 33 L 174.1 33 Q 175.8 28.2 179.85 25.25 Q 183.9 22.3 188.9 22.3 A 22.854 22.854 0 0 1 193.134 22.663 Q 195.454 23.102 197.21 24.07 A 9.602 9.602 0 0 1 200.8 27.45 A 17.567 17.567 0 0 1 202.654 31.695 Q 203.899 35.85 203.992 41.824 A 62.717 62.717 0 0 1 204 42.8 L 204 68.8 L 210.6 68.8 L 210.6 70.3 L 188.5 70.3 L 188.5 68.8 L 195.1 68.8 L 195.1 44.2 A 118.952 118.952 0 0 0 195.019 39.625 Q 194.728 32.113 193.4 29.3 A 7.891 7.891 0 0 0 192.068 27.417 A 10.241 10.241 0 0 0 190.95 26.4 A 5.335 5.335 0 0 0 189.3 25.54 Q 188.548 25.293 187.629 25.184 A 13.073 13.073 0 0 0 186.1 25.1 Q 182.9 25.1 180.05 27.4 A 12.765 12.765 0 0 0 176.759 31.475 A 16.634 16.634 0 0 0 175.8 33.7 A 41.183 41.183 0 0 0 174.016 40.906 Q 173.3 45.402 173.3 50.7 L 173.3 68.8 Z M 38.3 23.7 L 38.7 24.4 L 11 68.8 L 11.1 68.8 A 389.246 389.246 0 0 0 16.135 69.54 Q 24.43 70.7 27.75 70.7 A 16.681 16.681 0 0 0 31.998 70.178 A 13.979 13.979 0 0 0 35.3 68.85 A 6.435 6.435 0 0 0 37.512 66.885 Q 38.6 65.297 38.6 63 A 1.377 1.377 0 0 0 38.56 62.651 Q 38.415 62.1 37.75 62.1 A 1.173 1.173 0 0 0 37.372 62.156 Q 36.875 62.325 36.8 63 A 3.156 3.156 0 0 1 35.943 64.597 Q 34.985 65.529 33.094 65.595 A 8.422 8.422 0 0 1 32.8 65.6 A 5.038 5.038 0 0 1 31.19 65.354 A 4.156 4.156 0 0 1 29.3 64.05 A 5.531 5.531 0 0 1 28.035 60.969 A 7.236 7.236 0 0 1 28 60.25 A 4.995 4.995 0 0 1 29.524 56.572 A 6.137 6.137 0 0 1 29.65 56.45 A 5.617 5.617 0 0 1 32.613 55.009 A 7.854 7.854 0 0 1 33.95 54.9 A 6.092 6.092 0 0 1 38.358 56.755 A 8.127 8.127 0 0 1 38.55 56.95 A 7.012 7.012 0 0 1 40.498 61.813 A 9.096 9.096 0 0 1 40.5 62 Q 40.5 67.3 36.75 69.8 A 14.96 14.96 0 0 1 28.666 72.294 A 18.144 18.144 0 0 1 28.2 72.3 A 54.469 54.469 0 0 1 24.333 72.152 Q 22.179 71.999 19.736 71.685 A 111.14 111.14 0 0 1 16.7 71.25 Q 10 70.2 6.6 70.2 A 28.636 28.636 0 0 0 3.061 70.409 A 22.374 22.374 0 0 0 0.4 70.9 L 0 70.2 L 27.6 25.8 A 524.667 524.667 0 0 0 23.311 25.154 Q 16.833 24.209 13.808 23.976 A 21.843 21.843 0 0 0 12.2 23.9 Q 9.1 23.9 6.35 25.55 Q 3.89 27.026 3.63 29.903 A 7.767 7.767 0 0 0 3.6 30.6 A 1.377 1.377 0 0 0 3.64 30.949 Q 3.785 31.5 4.45 31.5 A 1.173 1.173 0 0 0 4.828 31.444 Q 5.325 31.275 5.4 30.6 A 3.156 3.156 0 0 1 6.257 29.003 Q 7.215 28.071 9.106 28.005 A 8.422 8.422 0 0 1 9.4 28 A 5.038 5.038 0 0 1 11.01 28.246 A 4.156 4.156 0 0 1 12.9 29.55 A 5.531 5.531 0 0 1 14.165 32.631 A 7.236 7.236 0 0 1 14.2 33.35 A 4.995 4.995 0 0 1 12.676 37.028 A 6.137 6.137 0 0 1 12.55 37.15 A 5.617 5.617 0 0 1 9.587 38.591 A 7.854 7.854 0 0 1 8.25 38.7 A 6.092 6.092 0 0 1 3.842 36.845 A 8.127 8.127 0 0 1 3.65 36.65 A 7.012 7.012 0 0 1 1.702 31.787 A 9.096 9.096 0 0 1 1.7 31.6 A 10.895 10.895 0 0 1 2.042 28.782 A 7.315 7.315 0 0 1 4.9 24.6 Q 8.1 22.3 12.45 22.3 Q 15.831 22.3 20.18 22.934 A 87.501 87.501 0 0 1 22.75 23.35 Q 28.7 24.4 32.1 24.4 A 28.636 28.636 0 0 0 35.639 24.191 A 22.374 22.374 0 0 0 38.3 23.7 Z M 145 46.3 L 145 64 Q 145 68.1 146.8 68.1 A 2.669 2.669 0 0 0 148.914 66.92 Q 150.531 64.866 151.37 59.235 A 60.531 60.531 0 0 0 151.7 56.6 L 153.5 56.8 Q 152.514 66.984 148.464 70.477 A 7.496 7.496 0 0 1 143.4 72.3 A 5.546 5.546 0 0 1 141.752 72.068 A 4.281 4.281 0 0 1 139.55 70.5 Q 138.2 68.7 137.85 66.55 A 23.564 23.564 0 0 1 137.637 64.79 Q 137.556 63.846 137.523 62.757 A 51.497 51.497 0 0 1 137.5 61.2 L 136.9 61.2 A 15.452 15.452 0 0 1 135.088 65.641 A 13.025 13.025 0 0 1 131.6 69.4 Q 127.761 72.183 121.85 72.295 A 26.361 26.361 0 0 1 121.35 72.3 A 19.683 19.683 0 0 1 114.893 71.269 A 17.573 17.573 0 0 1 110.4 68.95 A 10.785 10.785 0 0 1 105.798 61.059 A 15.312 15.312 0 0 1 105.7 59.3 A 13.473 13.473 0 0 1 106.181 55.619 A 10.575 10.575 0 0 1 108.4 51.5 A 13.375 13.375 0 0 1 112.977 48.264 Q 119.807 45.132 133.515 45.1 A 121.52 121.52 0 0 1 133.8 45.1 L 136.1 45.1 L 136.1 40.2 Q 136.1 32.3 133.4 28.3 Q 130.7 24.3 124.05 24.3 A 26.059 26.059 0 0 0 120.59 24.514 Q 116.528 25.059 114.3 27 A 12.208 12.208 0 0 0 112.741 28.61 Q 111.2 30.555 111.2 32.6 A 1.377 1.377 0 0 0 111.24 32.949 Q 111.385 33.5 112.05 33.5 A 1.173 1.173 0 0 0 112.428 33.444 Q 112.925 33.275 113 32.6 A 3.156 3.156 0 0 1 113.857 31.003 Q 114.815 30.071 116.706 30.005 A 8.422 8.422 0 0 1 117 30 A 5.038 5.038 0 0 1 118.61 30.246 A 4.156 4.156 0 0 1 120.5 31.55 A 5.531 5.531 0 0 1 121.765 34.631 A 7.236 7.236 0 0 1 121.8 35.35 A 4.995 4.995 0 0 1 120.276 39.028 A 6.137 6.137 0 0 1 120.15 39.15 A 5.617 5.617 0 0 1 117.187 40.591 A 7.854 7.854 0 0 1 115.85 40.7 A 6.092 6.092 0 0 1 111.442 38.845 A 8.127 8.127 0 0 1 111.25 38.65 A 7.012 7.012 0 0 1 109.302 33.787 A 9.096 9.096 0 0 1 109.3 33.6 Q 109.3 28.328 113.465 25.493 A 12.117 12.117 0 0 1 114 25.15 A 19.134 19.134 0 0 1 120.286 22.77 A 26.486 26.486 0 0 1 125.4 22.3 A 41.149 41.149 0 0 1 130.692 22.614 Q 138.232 23.596 141.15 27.65 Q 145 33 145 46.3 Z M 249.05 49.5 A 43.019 43.019 0 0 0 249.263 47.156 Q 249.349 45.848 249.381 44.356 A 86.498 86.498 0 0 0 249.4 42.5 A 80.476 80.476 0 0 0 249.351 39.601 Q 249.269 37.331 249.05 35.55 A 27.871 27.871 0 0 0 247.882 30.343 A 31.094 31.094 0 0 0 247.7 29.8 A 9.829 9.829 0 0 0 246.559 27.477 A 7.742 7.742 0 0 0 244.5 25.4 A 8.247 8.247 0 0 0 241.735 24.208 Q 240.607 23.94 239.293 23.905 A 14.946 14.946 0 0 0 238.9 23.9 A 12.666 12.666 0 0 0 236.473 24.12 Q 234.998 24.408 233.825 25.073 A 7.497 7.497 0 0 0 233.3 25.4 A 7.959 7.959 0 0 0 230.716 28.358 A 10.547 10.547 0 0 0 230.1 29.8 A 28.484 28.484 0 0 0 228.848 34.837 A 26.03 26.03 0 0 0 228.75 35.55 A 41.371 41.371 0 0 0 228.537 37.863 Q 228.468 38.9 228.434 40.06 A 82.951 82.951 0 0 0 228.4 42.5 A 81.069 81.069 0 0 0 228.449 45.406 Q 228.5 46.832 228.605 48.075 A 39.772 39.772 0 0 0 228.75 49.5 Q 229.1 52.4 230.1 55.3 A 9.829 9.829 0 0 0 231.241 57.623 A 7.742 7.742 0 0 0 233.3 59.7 A 8.247 8.247 0 0 0 236.065 60.892 Q 237.193 61.16 238.507 61.195 A 14.946 14.946 0 0 0 238.9 61.2 A 12.666 12.666 0 0 0 241.327 60.98 Q 242.802 60.692 243.975 60.027 A 7.497 7.497 0 0 0 244.5 59.7 A 7.959 7.959 0 0 0 247.084 56.742 A 10.547 10.547 0 0 0 247.7 55.3 Q 248.7 52.4 249.05 49.5 Z M 226 82.5 L 225.9 82.5 A 12.345 12.345 0 0 0 231.203 89.352 A 15.822 15.822 0 0 0 231.6 89.6 A 18.139 18.139 0 0 0 240.585 92.19 A 21.623 21.623 0 0 0 241.25 92.2 A 19.76 19.76 0 0 0 248.885 90.735 A 18.96 18.96 0 0 0 251 89.7 A 9.832 9.832 0 0 0 253.414 87.823 A 7.581 7.581 0 0 0 255.4 82.5 A 6.7 6.7 0 0 0 255.159 80.654 A 4.969 4.969 0 0 0 253.65 78.25 A 6.003 6.003 0 0 0 250.879 76.883 A 8.675 8.675 0 0 0 249.05 76.7 Q 246.575 76.7 239.764 78.887 A 156.879 156.879 0 0 0 237.6 79.6 A 135.779 135.779 0 0 1 234.105 80.73 Q 229.112 82.264 226.686 82.469 A 8.212 8.212 0 0 1 226 82.5 Z M 136.1 53.6 L 136.1 46.9 L 132.95 46.9 A 37.725 37.725 0 0 0 131.225 46.942 Q 130.268 46.986 129.189 47.076 A 73.168 73.168 0 0 0 127.85 47.2 A 22.059 22.059 0 0 0 123.723 48.038 A 26.405 26.405 0 0 0 121.8 48.7 Q 115.4 51 115.4 58.9 A 16.285 16.285 0 0 0 115.697 62.105 Q 116.227 64.742 117.7 66.6 A 7.141 7.141 0 0 0 121.166 68.942 Q 122.864 69.5 125.1 69.5 A 8.842 8.842 0 0 0 132.046 66.375 A 12.278 12.278 0 0 0 133.15 64.9 A 18.145 18.145 0 0 0 135.632 58.606 A 25.453 25.453 0 0 0 136.1 53.6 Z"
            vector-effect="non-scaling-stroke" />
    </g>
</svg>