<svg width="12.5" height="71.94" viewBox="0 0 12.5 71.94" xmlns="http://www.w3.org/2000/svg">
    <g id="svgGroup" stroke-linecap="round" fill-rule="evenodd" font-size="9pt" stroke="#000" stroke-width="0.25mm"
        fill="#000" style="stroke:#000;stroke-width:0.25mm;fill:#000">
        <path
            d="M 0 1.855 A 18.917 18.917 0 0 0 1.794 1.942 A 16.98 16.98 0 0 0 3.955 1.807 A 35.537 35.537 0 0 0 6.113 1.465 A 28.5 28.5 0 0 0 7.471 1.172 Q 9.082 0.781 10.4 0.391 A 13.81 13.81 0 0 1 11.136 0.193 Q 11.858 0.022 12.371 0.003 A 3.393 3.393 0 0 1 12.5 0 A 4.248 4.248 0 0 0 12.015 0.757 Q 11.361 2.014 10.73 4.526 A 44.127 44.127 0 0 0 10.596 5.078 A 65.685 65.685 0 0 0 9.934 8.228 Q 9.412 11.035 8.984 14.453 A 138.783 138.783 0 0 0 8.31 21.274 A 173.626 173.626 0 0 0 8.008 26.318 A 138.989 138.989 0 0 0 7.861 32.678 A 134.246 134.246 0 0 0 8.008 38.965 A 2647.111 2647.111 0 0 1 8.099 41.898 Q 8.21 45.493 8.279 48.135 A 825.803 825.803 0 0 1 8.301 48.975 Q 8.381 52.154 8.528 54.172 A 45.082 45.082 0 0 0 8.594 54.98 A 28.445 28.445 0 0 0 8.701 55.975 Q 8.875 57.349 9.131 58.008 A 2.141 2.141 0 0 0 9.402 58.511 A 1.479 1.479 0 0 0 10.254 59.082 A 15.771 15.771 0 0 0 8.747 58.933 Q 7.643 58.875 6.387 58.943 A 28.031 28.031 0 0 0 5.762 58.984 A 92.221 92.221 0 0 0 4.584 59.082 Q 3.126 59.213 2.328 59.344 A 10.594 10.594 0 0 0 2.148 59.375 Q 3.027 57.91 3.369 56.152 Q 3.711 54.395 3.711 52.002 Q 3.711 49.609 3.467 46.338 A 624.51 624.51 0 0 1 3.277 43.713 Q 3.195 42.547 3.108 41.263 A 1158.138 1158.138 0 0 1 2.93 38.574 A 198.254 198.254 0 0 1 2.768 35.852 Q 2.695 34.463 2.63 32.926 A 333.136 333.136 0 0 1 2.588 31.885 Q 2.441 28.125 2.295 24.17 A 576.35 576.35 0 0 0 1.953 16.357 Q 1.764 12.624 1.529 9.623 A 174.312 174.312 0 0 0 1.514 9.424 A 69.565 69.565 0 0 0 1.315 7.303 Q 1.209 6.342 1.084 5.511 A 31.351 31.351 0 0 0 0.879 4.297 A 17.097 17.097 0 0 0 0.729 3.586 Q 0.397 2.173 0 1.855 Z M 9.375 62.988 A 6.526 6.526 0 0 0 8.356 62.908 Q 6.987 62.908 5.566 63.477 A 7.018 7.018 0 0 0 5.345 63.565 A 5.503 5.503 0 0 0 2.539 66.064 Q 1.888 67.269 1.888 68.408 A 3.961 3.961 0 0 0 2.051 69.531 A 2.917 2.917 0 0 0 3.438 71.348 A 4.159 4.159 0 0 0 4.541 71.777 A 5.726 5.726 0 0 0 5.903 71.94 Q 6.597 71.94 7.319 71.777 A 8.238 8.238 0 0 0 8.789 71.289 A 9.081 9.081 0 0 0 9.052 71.174 Q 9.841 70.816 10.439 70.356 A 4.655 4.655 0 0 0 11.914 68.506 A 5.876 5.876 0 0 0 12.227 67.593 Q 12.544 66.32 12.109 65.234 A 5.119 5.119 0 0 0 11.774 64.606 A 3.354 3.354 0 0 0 9.375 62.988 Z"
            vector-effect="non-scaling-stroke" />
    </g>
</svg>