<svg width="353.809" height="119.245" viewBox="0 0 353.809 119.245" xmlns="http://www.w3.org/2000/svg">
    <g id="svgGroup" stroke-linecap="round" fill-rule="evenodd" font-size="9pt" stroke="#000" stroke-width="0.25mm"
        fill="#000" style="stroke:#000;stroke-width:0.25mm;fill:#000">
        <path
            d="M 310.938 35.645 L 312.012 33.691 A 78.396 78.396 0 0 1 314.209 34.326 A 9.757 9.757 0 0 0 315.134 34.555 Q 315.632 34.655 316.211 34.727 A 21.152 21.152 0 0 0 317.041 34.814 A 22.296 22.296 0 0 0 318.002 34.875 Q 319.052 34.919 320.369 34.893 A 59.584 59.584 0 0 0 321.387 34.863 A 54.509 54.509 0 0 0 323.373 34.75 Q 324.403 34.674 325.591 34.556 A 132.045 132.045 0 0 0 328.125 34.277 A 16.312 16.312 0 0 0 327.563 35.45 Q 327.313 36.026 327.063 36.697 A 36.99 36.99 0 0 0 326.562 38.135 A 59.789 59.789 0 0 0 325.714 40.981 A 76.222 76.222 0 0 0 325.098 43.408 A 88.387 88.387 0 0 0 324.173 47.824 A 102.377 102.377 0 0 0 323.877 49.512 A 93.285 93.285 0 0 0 323.134 54.906 A 83.781 83.781 0 0 0 323.047 55.762 A 52.998 52.998 0 0 0 322.844 58.84 Q 322.777 60.578 322.803 62.5 A 38.304 38.304 0 0 0 323.17 67.395 A 32.811 32.811 0 0 0 323.535 69.482 A 18.791 18.791 0 0 0 324.358 72.335 A 13.908 13.908 0 0 0 325.732 75.049 A 5.797 5.797 0 0 0 327.208 76.61 A 5.189 5.189 0 0 0 329.883 77.539 A 9.388 9.388 0 0 0 330.576 77.565 A 7.662 7.662 0 0 0 334.619 76.465 A 14.964 14.964 0 0 0 338.041 73.655 A 14.121 14.121 0 0 0 338.232 73.438 A 18.021 18.021 0 0 0 339.575 71.68 A 13.789 13.789 0 0 0 340.576 69.922 Q 341.406 68.164 341.602 67.383 A 8.532 8.532 0 0 0 341.698 66.933 Q 341.826 66.268 341.988 65.082 A 94.077 94.077 0 0 0 342.09 64.307 Q 342.291 62.729 342.447 60.759 A 115.817 115.817 0 0 0 342.578 58.887 A 176.179 176.179 0 0 0 342.749 55.664 A 209.713 209.713 0 0 0 342.871 52.246 Q 342.952 49.316 342.83 46.658 A 63.76 63.76 0 0 0 342.773 45.605 A 32.653 32.653 0 0 0 342.584 43.657 Q 342.47 42.777 342.312 42.02 A 14.863 14.863 0 0 0 342.041 40.918 A 14.769 14.769 0 0 0 341.604 39.622 Q 341.346 38.967 341.047 38.426 A 7.533 7.533 0 0 0 340.723 37.891 A 8.617 8.617 0 0 0 339.958 36.899 A 6.335 6.335 0 0 0 339.014 36.035 A 8.933 8.933 0 0 0 337.655 35.204 A 7.841 7.841 0 0 0 337.109 34.961 L 337.695 33.008 Q 339.258 33.691 341.357 34.082 A 36.221 36.221 0 0 0 345.04 34.567 A 40.552 40.552 0 0 0 345.752 34.619 Q 348.047 34.766 350.146 34.717 A 29.093 29.093 0 0 0 351.852 34.63 Q 352.917 34.542 353.809 34.375 Q 351.27 39.648 350 48.096 A 77.816 77.816 0 0 0 349.342 54.224 Q 348.946 59.897 349.156 66.802 A 173.426 173.426 0 0 0 349.219 68.555 A 213.103 213.103 0 0 0 349.427 73.097 Q 349.545 75.17 349.699 77.017 A 121.236 121.236 0 0 0 349.805 78.223 A 720.322 720.322 0 0 0 350.195 82.3 A 599.576 599.576 0 0 0 350.586 86.133 A 143.356 143.356 0 0 1 351.172 93.506 Q 351.367 97.168 351.27 101.465 A 25.079 25.079 0 0 1 350.769 105.518 A 19.186 19.186 0 0 1 349.658 109.082 A 17.399 17.399 0 0 1 347.68 112.587 A 14.669 14.669 0 0 1 345.898 114.6 Q 343.555 116.797 340.479 117.969 A 19.732 19.732 0 0 1 334.542 119.211 A 22.416 22.416 0 0 1 333.887 119.238 Q 331.799 119.296 329.97 118.872 A 12.556 12.556 0 0 1 327.588 118.066 A 15.599 15.599 0 0 1 323.948 115.78 A 14.156 14.156 0 0 1 322.852 114.746 Q 320.898 112.695 319.873 109.961 Q 318.848 107.227 318.945 104.395 A 13.052 13.052 0 0 1 319.299 101.733 A 10.255 10.255 0 0 1 320.166 99.414 A 10.585 10.585 0 0 1 323.145 95.85 Q 325 94.434 327.246 93.75 Q 329.492 93.066 331.738 93.066 A 10.32 10.32 0 0 1 333.692 93.288 Q 334.758 93.522 335.56 94 A 4.535 4.535 0 0 1 337.109 95.508 A 9.674 9.674 0 0 1 338.538 99.95 A 11.892 11.892 0 0 1 338.574 100.879 A 10.733 10.733 0 0 1 338.037 104.199 Q 337.5 105.859 336.475 107.178 A 8.544 8.544 0 0 1 334.033 109.326 A 6.095 6.095 0 0 1 331.132 110.151 A 7.281 7.281 0 0 1 330.859 110.156 A 7.077 7.077 0 0 1 329.845 110.08 A 8.785 8.785 0 0 1 329.199 109.961 A 3.597 3.597 0 0 1 327.732 109.251 A 4.276 4.276 0 0 1 327.588 109.131 Q 326.888 108.524 326.411 107.472 A 7.032 7.032 0 0 1 326.367 107.373 Q 325.879 106.25 325.879 104.395 A 9.521 9.521 0 0 1 326.022 102.69 Q 326.305 101.135 327.148 100.098 A 4.55 4.55 0 0 1 328.539 98.928 A 4.302 4.302 0 0 1 330.371 98.437 A 3.891 3.891 0 0 1 331.321 98.547 A 2.771 2.771 0 0 1 332.568 99.219 A 3.519 3.519 0 0 1 333.164 99.94 A 2.748 2.748 0 0 1 333.545 100.977 A 2.773 2.773 0 0 1 333.576 101.361 Q 333.576 101.374 333.576 101.386 A 2.329 2.329 0 0 1 333.154 102.734 A 1.651 1.651 0 0 1 332.334 103.35 Q 332.043 103.456 331.68 103.494 A 4.114 4.114 0 0 1 331.25 103.516 Q 329.883 103.418 329.883 102.393 A 3.653 3.653 0 0 1 330.021 101.372 A 3.106 3.106 0 0 1 330.371 100.586 A 3.438 3.438 0 0 0 329.544 101.175 Q 329.245 101.458 328.973 101.831 A 5.772 5.772 0 0 0 328.955 101.855 A 3.228 3.228 0 0 0 328.434 103.034 Q 328.329 103.486 328.321 104.012 A 5.786 5.786 0 0 0 328.32 104.102 A 5.674 5.674 0 0 0 328.415 105.171 Q 328.536 105.802 328.812 106.294 A 2.995 2.995 0 0 0 329.199 106.836 A 2.862 2.862 0 0 0 331.276 107.809 A 3.704 3.704 0 0 0 331.445 107.812 A 2.885 2.885 0 0 0 333.148 107.255 A 3.595 3.595 0 0 0 333.252 107.178 Q 334.082 106.543 334.668 105.615 A 8.286 8.286 0 0 0 335.506 103.842 A 9.319 9.319 0 0 0 335.596 103.564 A 7.815 7.815 0 0 0 335.91 101.975 A 6.906 6.906 0 0 0 335.938 101.367 Q 335.938 98.242 333.936 96.68 Q 331.934 95.117 329.199 95.313 A 5.123 5.123 0 0 0 328.278 95.489 Q 327.57 95.688 326.758 96.094 A 8.935 8.935 0 0 0 324.779 97.455 A 10.615 10.615 0 0 0 324.219 97.998 A 10.481 10.481 0 0 0 322.519 100.371 A 12.102 12.102 0 0 0 322.266 100.879 A 7.381 7.381 0 0 0 321.571 104.062 A 8.618 8.618 0 0 0 321.582 104.492 Q 321.68 106.445 322.363 108.301 A 8.676 8.676 0 0 0 324.512 111.572 A 8.582 8.582 0 0 0 327.058 113.257 A 10.667 10.667 0 0 0 328.174 113.672 A 10.35 10.35 0 0 0 330.033 114.059 Q 331.362 114.216 332.921 114.103 A 20.003 20.003 0 0 0 333.398 114.063 A 10.433 10.433 0 0 0 341.071 109.552 A 16.97 16.97 0 0 0 342.627 106.934 Q 345.801 100.391 345.605 89.551 A 898.621 898.621 0 0 0 345.532 86.971 Q 345.471 84.93 345.41 83.252 Q 345.326 80.944 345.242 79.105 A 297.773 297.773 0 0 0 345.215 78.516 Q 345.117 76.465 345.068 74.805 A 112.934 112.934 0 0 1 345.02 71.484 A 46.509 46.509 0 0 1 343.738 75.202 A 55.25 55.25 0 0 1 343.018 76.953 A 20.29 20.29 0 0 1 339.795 82.129 A 15.695 15.695 0 0 1 334.912 85.938 Q 332.211 87.311 328.523 87.311 A 20.346 20.346 0 0 1 328.027 87.305 A 14.796 14.796 0 0 1 325.361 86.988 A 11.051 11.051 0 0 1 322.754 86.084 A 11.78 11.78 0 0 1 318.896 83.008 Q 317.285 81.055 316.26 78.418 A 23.012 23.012 0 0 1 315.114 74.375 A 27.242 27.242 0 0 1 314.844 72.656 A 33.228 33.228 0 0 1 314.587 68.531 A 33.806 33.806 0 0 1 314.795 64.795 A 186.519 186.519 0 0 1 315.82 57.031 A 251.291 251.291 0 0 0 316.212 53.502 Q 316.355 52.117 316.464 50.875 A 125.478 125.478 0 0 0 316.65 48.535 A 36.783 36.783 0 0 0 316.725 47.04 Q 316.794 44.632 316.491 42.833 A 13.877 13.877 0 0 0 316.455 42.627 A 9.945 9.945 0 0 0 315.823 40.492 A 7.785 7.785 0 0 0 314.697 38.623 A 10.108 10.108 0 0 0 313.329 37.26 Q 312.597 36.652 311.682 36.083 A 19.107 19.107 0 0 0 310.938 35.645 Z M 208.105 87.695 L 209.668 88.379 Q 209.473 90.137 208.74 91.797 A 7.659 7.659 0 0 1 206.689 94.58 A 6.866 6.866 0 0 1 204.089 95.952 A 8.307 8.307 0 0 1 203.516 96.094 Q 202.195 96.372 200.627 96.106 A 11.648 11.648 0 0 1 199.316 95.801 A 12.137 12.137 0 0 1 197.268 94.978 A 9.307 9.307 0 0 1 195.557 93.848 Q 194.043 92.578 193.262 90.234 Q 192.694 88.532 192.462 86.108 A 34.451 34.451 0 0 1 192.334 84.18 Q 192.188 80.469 192.676 74.902 A 320.749 320.749 0 0 0 193.054 71.082 A 378.134 378.134 0 0 0 193.408 67.041 A 141.46 141.46 0 0 0 193.848 58.838 Q 193.936 55.179 193.666 51.799 A 59.934 59.934 0 0 0 193.604 51.074 A 27.422 27.422 0 0 0 193.111 47.799 Q 192.747 46.113 192.176 44.673 A 16.877 16.877 0 0 0 192.139 44.58 A 12.389 12.389 0 0 0 190.796 42.078 A 9.913 9.913 0 0 0 189.014 40.137 A 6.992 6.992 0 0 0 186.04 38.711 A 10.209 10.209 0 0 0 183.789 38.477 A 6.698 6.698 0 0 0 180.434 39.402 A 9.699 9.699 0 0 0 178.76 40.625 A 16.438 16.438 0 0 0 176.301 43.429 A 22.424 22.424 0 0 0 174.609 46.289 Q 172.852 49.805 171.826 54.395 Q 170.801 58.984 170.801 63.867 L 170.801 63.77 A 8.042 8.042 0 0 0 170.806 64.056 Q 170.816 64.349 170.85 64.551 Q 170.898 64.844 170.898 65.234 Q 171.364 69.987 172.053 72.873 A 25.945 25.945 0 0 0 172.119 73.145 A 21.199 21.199 0 0 0 172.716 75.138 Q 173.061 76.102 173.471 76.891 A 10.017 10.017 0 0 0 174.023 77.832 A 9.551 9.551 0 0 0 176.904 80.664 A 57.779 57.779 0 0 0 178.521 81.641 Q 179.639 82.294 180.957 83.008 L 180.469 84.766 Q 179.048 84.317 176.74 83.754 A 134.529 134.529 0 0 0 175.244 83.398 A 79.271 79.271 0 0 0 170.404 82.44 A 92.938 92.938 0 0 0 168.066 82.08 A 66.671 66.671 0 0 0 161.551 81.477 A 60.862 60.862 0 0 0 160.645 81.445 Q 157.031 81.348 154.688 82.227 L 153.906 79.883 A 47.751 47.751 0 0 1 155.237 79.395 A 60.365 60.365 0 0 1 156.689 78.906 A 5.414 5.414 0 0 0 158.167 78.149 Q 158.74 77.741 159.291 77.162 A 10.01 10.01 0 0 0 159.57 76.855 A 8.222 8.222 0 0 0 160.503 75.524 Q 161.288 74.154 161.913 72.123 A 73.342 73.342 0 0 0 161.914 72.119 A 20.845 20.845 0 0 0 162.455 69.879 Q 162.908 67.487 163.12 64.117 A 81.126 81.126 0 0 0 163.184 62.988 A 403.632 403.632 0 0 0 163.44 56.909 A 496.928 496.928 0 0 0 163.623 50.391 A 368.816 368.816 0 0 0 163.711 42.375 A 352.841 352.841 0 0 0 163.672 37.109 A 303.82 303.82 0 0 0 163.405 28.032 A 261.02 261.02 0 0 0 163.232 24.658 A 138.095 138.095 0 0 0 162.928 20.454 Q 162.744 18.382 162.509 16.556 A 72.391 72.391 0 0 0 162.207 14.453 Q 161.621 11.133 160.547 9.326 A 11.183 11.183 0 0 0 159.634 8.003 Q 159.09 7.331 158.493 6.848 A 6.288 6.288 0 0 0 158.154 6.592 A 8.529 8.529 0 0 0 156.857 5.832 A 6.496 6.496 0 0 0 155.518 5.371 A 42.656 42.656 0 0 1 154.577 5.151 Q 154.065 5.025 153.617 4.9 A 23.22 23.22 0 0 1 153.223 4.785 L 153.125 3.223 A 77.556 77.556 0 0 0 159.463 3.48 A 82.315 82.315 0 0 0 165.283 3.271 Q 171.484 2.832 177.246 0.293 L 177.441 1.953 A 40.003 40.003 0 0 1 176.118 3.22 A 33.508 33.508 0 0 1 175.342 3.906 A 7.933 7.933 0 0 0 174.353 4.932 Q 173.936 5.444 173.548 6.069 A 13.349 13.349 0 0 0 173.438 6.25 A 11.012 11.012 0 0 0 172.77 7.571 Q 172.303 8.658 171.924 10.059 A 20.786 20.786 0 0 0 171.56 11.676 Q 171.198 13.623 170.996 16.309 A 124.014 124.014 0 0 0 170.856 18.364 Q 170.801 19.283 170.751 20.308 A 245.664 245.664 0 0 0 170.654 22.461 Q 170.508 26.074 170.361 30.225 A 343.287 343.287 0 0 0 170.197 36.67 A 392.095 392.095 0 0 0 170.166 38.916 A 831.219 831.219 0 0 0 170.117 47.852 A 40.646 40.646 0 0 1 173.486 41.553 Q 175.488 38.477 178.076 36.133 A 19.177 19.177 0 0 1 182.572 33.066 A 17.727 17.727 0 0 1 183.691 32.568 Q 186.719 31.348 190.137 32.031 A 9.486 9.486 0 0 1 196.338 35.791 A 20.472 20.472 0 0 1 199.165 41.102 A 24.456 24.456 0 0 1 199.756 42.969 Q 200.879 47.07 201.074 51.611 A 147.084 147.084 0 0 1 201.172 54.536 Q 201.237 57.357 201.172 59.766 A 307.802 307.802 0 0 1 200.964 63.33 A 238.538 238.538 0 0 1 200.732 66.602 A 147.391 147.391 0 0 1 200.311 71.124 A 127.818 127.818 0 0 1 200.146 72.559 A 336.797 336.797 0 0 1 199.414 78.223 A 668.422 668.422 0 0 0 198.73 83.328 A 736.757 736.757 0 0 0 198.633 84.082 A 21.848 21.848 0 0 0 198.528 85.239 Q 198.319 88.581 199.365 90.381 Q 200.184 91.788 201.243 92.384 A 3.357 3.357 0 0 0 202.344 92.773 A 3.759 3.759 0 0 0 202.963 92.825 Q 204.367 92.825 205.74 91.755 A 7.119 7.119 0 0 0 205.811 91.699 A 6.033 6.033 0 0 0 207.508 89.494 A 8.733 8.733 0 0 0 208.105 87.695 Z M 309.668 78.906 L 310.938 79.395 Q 310.665 80.574 310.055 81.965 A 21.068 21.068 0 0 1 309.961 82.178 A 8.768 8.768 0 0 1 308.106 84.816 A 9.977 9.977 0 0 1 308.008 84.912 Q 306.738 86.133 304.932 86.768 Q 303.504 87.269 301.681 87.009 A 10.849 10.849 0 0 1 300.684 86.816 A 6.218 6.218 0 0 1 296.826 84.082 Q 295.575 82.183 294.972 79.369 A 21.133 21.133 0 0 1 294.824 78.613 A 21.441 21.441 0 0 1 293.835 80.017 Q 293.286 80.737 292.627 81.494 A 15.588 15.588 0 0 1 290.162 83.76 A 17.872 17.872 0 0 1 289.502 84.229 A 15.331 15.331 0 0 1 286.517 85.785 A 18.029 18.029 0 0 1 285.4 86.182 A 12.383 12.383 0 0 1 282.339 86.736 Q 281.927 86.76 281.503 86.76 A 15.886 15.886 0 0 1 280.371 86.719 A 16.166 16.166 0 0 1 276.27 85.876 A 13.89 13.89 0 0 1 273.779 84.717 Q 270.898 83.008 268.945 80.322 A 18.376 18.376 0 0 1 266.2 74.696 A 20.962 20.962 0 0 1 266.064 74.219 A 18.833 18.833 0 0 1 265.412 69.263 A 20.751 20.751 0 0 1 265.527 67.09 A 17.732 17.732 0 0 1 266.158 63.859 A 13.209 13.209 0 0 1 267.529 60.742 A 13.452 13.452 0 0 1 270.985 56.913 A 12.945 12.945 0 0 1 271.582 56.494 Q 274.023 54.883 277.148 54.297 Q 280.273 53.711 283.594 54.004 Q 287.988 54.492 290.918 56.592 A 19.171 19.171 0 0 1 293.364 58.657 A 14.294 14.294 0 0 1 295.41 61.23 A 60.345 60.345 0 0 0 295.737 56.235 Q 295.759 55.372 295.759 54.489 A 75.612 75.612 0 0 0 295.703 51.611 A 38.158 38.158 0 0 0 295.086 45.977 A 30.969 30.969 0 0 0 294.141 42.236 A 18.486 18.486 0 0 0 292.173 37.974 A 15.535 15.535 0 0 0 289.941 35.205 A 9.143 9.143 0 0 0 285.275 32.779 Q 283.867 32.487 282.227 32.52 A 15.738 15.738 0 0 0 279.881 32.684 Q 278.648 32.87 277.625 33.267 A 8.159 8.159 0 0 0 276.611 33.74 Q 274.414 34.961 273.096 36.621 A 11.262 11.262 0 0 0 271.999 38.267 A 8.589 8.589 0 0 0 271.289 39.99 Q 270.801 41.699 270.801 42.676 A 3.917 3.917 0 0 0 270.913 43.577 Q 271.011 43.991 271.195 44.441 A 7.892 7.892 0 0 0 271.387 44.873 A 7.509 7.509 0 0 0 272.646 46.711 A 8.843 8.843 0 0 0 273.047 47.119 Q 274.121 48.145 275.586 48.73 A 5.536 5.536 0 0 0 277.322 49.11 Q 278.075 49.155 278.906 49.023 A 5.446 5.446 0 0 0 280.513 48.524 A 4.973 4.973 0 0 0 281.152 48.145 A 6.422 6.422 0 0 0 282.173 47.265 A 5.376 5.376 0 0 0 282.715 46.582 A 5.914 5.914 0 0 0 283.545 44.727 A 8.33 8.33 0 0 0 283.749 43.601 A 6.801 6.801 0 0 0 283.789 42.871 A 2.655 2.655 0 0 0 283.203 41.162 A 4.208 4.208 0 0 0 282.26 40.286 A 3.868 3.868 0 0 0 281.836 40.039 A 2.723 2.723 0 0 0 280.638 39.755 Q 280.367 39.752 280.078 39.795 A 2.991 2.991 0 0 0 278.627 40.447 A 3.85 3.85 0 0 0 278.32 40.723 A 2.892 2.892 0 0 1 278.64 40.705 Q 279.359 40.705 280.078 41.064 A 1.471 1.471 0 0 1 280.828 41.96 Q 280.921 42.239 280.947 42.587 A 3.812 3.812 0 0 1 280.957 42.871 A 2.071 2.071 0 0 1 280.844 43.574 Q 280.641 44.138 280.078 44.482 A 3.062 3.062 0 0 1 278.451 44.937 A 3.599 3.599 0 0 1 278.125 44.922 A 3.106 3.106 0 0 1 276.508 44.28 A 4.047 4.047 0 0 1 276.172 43.994 Q 275.463 43.325 275.326 42.051 A 6.033 6.033 0 0 1 275.293 41.406 A 3.457 3.457 0 0 1 276.377 38.875 A 4.89 4.89 0 0 1 276.709 38.574 A 4.981 4.981 0 0 1 279.98 37.402 Q 282.227 37.402 284.131 39.16 A 5.757 5.757 0 0 1 285.867 42.308 A 8.518 8.518 0 0 1 286.035 44.043 A 4.914 4.914 0 0 1 285.884 45.226 Q 285.75 45.766 285.498 46.338 A 7.109 7.109 0 0 1 284.506 47.947 A 8.797 8.797 0 0 1 283.887 48.633 A 7.369 7.369 0 0 1 282.575 49.664 Q 281.935 50.064 281.159 50.396 A 12.39 12.39 0 0 1 281.055 50.439 A 9.215 9.215 0 0 1 278.957 51.021 A 12.71 12.71 0 0 1 276.953 51.172 A 10.159 10.159 0 0 1 274.536 50.894 A 8.459 8.459 0 0 1 272.754 50.244 A 10.814 10.814 0 0 1 270.48 48.738 A 9.62 9.62 0 0 1 269.629 47.9 Q 268.359 46.484 267.725 44.775 A 10.526 10.526 0 0 1 267.229 43.001 A 8.333 8.333 0 0 1 267.09 41.504 A 6.592 6.592 0 0 1 267.205 40.332 Q 267.426 39.119 268.066 37.549 Q 269.043 35.156 271.143 33.008 A 17.307 17.307 0 0 1 274.1 30.607 A 22.338 22.338 0 0 1 276.416 29.297 A 14.656 14.656 0 0 1 280.252 28.055 Q 281.939 27.744 283.86 27.735 A 24.581 24.581 0 0 1 283.984 27.734 A 26.233 26.233 0 0 1 290.052 28.387 A 15.026 15.026 0 0 1 300.293 35.986 Q 304.531 43.771 302.076 58.726 A 88.568 88.568 0 0 1 301.758 60.547 A 116.643 116.643 0 0 0 301.13 64.398 Q 300.555 68.372 300.488 71.191 A 48.925 48.925 0 0 0 300.475 72.051 Q 300.453 75.555 300.977 77.734 Q 301.523 80.009 302.535 81.012 A 3.162 3.162 0 0 0 302.686 81.152 Q 303.809 82.129 305.078 82.324 A 3.937 3.937 0 0 0 305.783 82.389 A 3.591 3.591 0 0 0 307.129 82.129 A 2.768 2.768 0 0 0 307.939 81.774 Q 308.241 81.583 308.534 81.306 A 4.992 4.992 0 0 0 308.643 81.201 Q 309.182 80.662 309.483 79.673 A 7.182 7.182 0 0 0 309.668 78.906 Z M 260.254 0 L 260.254 1.953 A 228.677 228.677 0 0 0 257.616 2.674 A 252.889 252.889 0 0 0 257.227 2.783 Q 255.664 3.223 254.443 4.297 A 6.526 6.526 0 0 0 253.385 5.508 Q 252.971 6.109 252.62 6.858 A 12.292 12.292 0 0 0 252.393 7.373 A 9.977 9.977 0 0 0 251.891 8.995 Q 251.527 10.603 251.465 12.793 Q 251.367 15.137 251.367 18.701 L 251.367 26.611 A 854.216 854.216 0 0 0 251.395 33.35 A 970.936 970.936 0 0 0 251.416 35.693 Q 251.465 40.43 251.563 44.971 A 641.038 641.038 0 0 0 251.672 49.39 A 540.89 540.89 0 0 0 251.807 53.564 A 331.172 331.172 0 0 0 251.923 56.46 Q 251.975 57.606 252.031 58.652 A 186.938 186.938 0 0 0 252.148 60.645 Q 252.441 65.137 253.32 67.969 A 18.296 18.296 0 0 0 254.081 70.01 Q 254.53 71.013 255.063 71.818 A 9.557 9.557 0 0 0 255.566 72.51 A 11.02 11.02 0 0 0 257.631 74.513 A 9.847 9.847 0 0 0 258.691 75.195 A 22.094 22.094 0 0 0 261.96 76.669 A 24.798 24.798 0 0 0 262.5 76.855 L 262.012 78.613 A 59.36 59.36 0 0 0 260.67 78.394 Q 260.072 78.302 259.406 78.21 A 114.608 114.608 0 0 0 258.008 78.027 A 38.174 38.174 0 0 0 254.647 77.763 A 45.053 45.053 0 0 0 253.027 77.734 A 52.036 52.036 0 0 0 248.614 77.928 A 58.445 58.445 0 0 0 247.559 78.027 A 27.405 27.405 0 0 0 243.849 78.661 A 23.479 23.479 0 0 0 242.285 79.102 Q 243.066 75.488 243.848 72.07 A 56.022 56.022 0 0 0 244.475 68.874 Q 244.751 67.234 244.974 65.402 A 95.482 95.482 0 0 0 245.117 64.16 A 31.551 31.551 0 0 1 243.949 66.443 Q 243.29 67.618 242.473 68.877 A 53.086 53.086 0 0 1 242.236 69.238 Q 240.43 71.973 237.939 74.316 A 20.861 20.861 0 0 1 232.227 78.125 A 13.797 13.797 0 0 1 226.449 79.346 A 16.337 16.337 0 0 1 225.195 79.297 A 14.938 14.938 0 0 1 221.548 78.63 A 11.348 11.348 0 0 1 217.627 76.465 Q 214.648 73.926 212.939 70.068 A 28.82 28.82 0 0 1 211.063 64.094 A 34.548 34.548 0 0 1 210.645 61.523 A 56.635 56.635 0 0 1 210.205 54.492 A 56.293 56.293 0 0 1 210.254 52.148 A 30.527 30.527 0 0 1 212.157 42.825 L 212.158 42.822 Q 213.867 38.184 216.699 34.521 A 23.281 23.281 0 0 1 221.224 30.039 A 21.126 21.126 0 0 1 223.242 28.711 Q 226.953 26.563 231.152 26.855 A 13.915 13.915 0 0 1 233.98 27.307 A 10.731 10.731 0 0 1 236.719 28.467 A 14.784 14.784 0 0 1 240.771 32.08 A 21.401 21.401 0 0 1 243.194 36.037 A 24.498 24.498 0 0 1 243.652 37.061 Q 244.824 39.844 245.605 42.773 A 395.86 395.86 0 0 0 245.02 30.664 A 153.979 153.979 0 0 0 244.379 23.279 A 127.104 127.104 0 0 0 243.848 19.141 Q 243.359 15.625 242.676 12.207 A 103.732 103.732 0 0 0 241.66 7.675 A 119.254 119.254 0 0 0 241.26 6.104 A 47.357 47.357 0 0 0 240.309 2.91 A 36.461 36.461 0 0 0 239.355 0.391 A 118.179 118.179 0 0 0 244.452 1.082 A 151.839 151.839 0 0 0 248.779 1.514 A 22.531 22.531 0 0 0 250.704 1.594 Q 254.94 1.594 259.941 0.095 A 45.286 45.286 0 0 0 260.254 0 Z M 1.465 83.789 L 0.879 82.422 A 36.886 36.886 0 0 0 4.785 79.639 Q 6.641 78.125 8.008 76.025 Q 9.354 73.958 10.227 71.037 A 26.812 26.812 0 0 0 10.254 70.947 A 23.896 23.896 0 0 0 10.892 68.126 Q 11.218 66.174 11.328 63.867 A 378.722 378.722 0 0 1 11.422 60.571 Q 11.517 57.642 11.67 54.102 A 423.311 423.311 0 0 0 11.954 45.358 A 472.58 472.58 0 0 0 12.012 42.334 Q 12.109 36.23 11.865 30.42 Q 11.669 25.744 11.188 22.049 A 61.95 61.95 0 0 0 10.937 20.313 A 48.85 48.85 0 0 0 10.416 17.752 Q 9.805 15.14 9.033 13.428 Q 8.157 11.485 7.073 10.255 A 7.754 7.754 0 0 0 6.445 9.619 A 8.455 8.455 0 0 0 4.883 8.493 A 6.842 6.842 0 0 0 3.32 7.861 A 40.427 40.427 0 0 0 0 7.129 L 0 5.273 A 20.87 20.87 0 0 0 0.702 5.368 Q 1.495 5.462 2.574 5.544 A 80.779 80.779 0 0 0 3.613 5.615 A 45.647 45.647 0 0 0 5.716 5.696 Q 7.031 5.718 8.463 5.673 A 67.039 67.039 0 0 0 8.74 5.664 Q 11.523 5.566 14.404 5.127 A 18.54 18.54 0 0 0 17.934 4.242 A 15.905 15.905 0 0 0 19.629 3.516 A 154.572 154.572 0 0 0 19.476 4.782 Q 19.272 6.537 19.027 8.92 A 510.346 510.346 0 0 0 18.945 9.717 A 347.973 347.973 0 0 0 18.579 13.558 Q 18.398 15.575 18.216 17.813 A 574.775 574.775 0 0 0 18.164 18.457 A 258.446 258.446 0 0 0 17.81 23.535 A 321.734 321.734 0 0 0 17.529 29.004 A 269.95 269.95 0 0 0 17.285 40.625 A 30.562 30.562 0 0 1 20.258 36.153 A 33.473 33.473 0 0 1 20.313 36.084 A 31.769 31.769 0 0 1 24.121 32.08 A 22.683 22.683 0 0 1 28.467 29.053 A 13.507 13.507 0 0 1 32.823 27.591 A 12.868 12.868 0 0 1 33.203 27.539 Q 36.066 27.157 39.487 28.5 A 19.496 19.496 0 0 1 39.648 28.564 Q 43.164 29.98 46.289 33.447 A 23.744 23.744 0 0 1 49.158 37.427 Q 50.464 39.673 51.514 42.432 A 30.089 30.089 0 0 1 53.021 48.087 Q 53.493 50.859 53.589 54.025 A 54.139 54.139 0 0 1 53.613 55.664 A 32.691 32.691 0 0 1 52.771 63.184 A 29.212 29.212 0 0 1 52.051 65.723 A 31.298 31.298 0 0 1 49.901 70.735 A 25.671 25.671 0 0 1 47.9 73.877 A 21.718 21.718 0 0 1 44.264 77.718 A 18.906 18.906 0 0 1 41.943 79.346 A 13.933 13.933 0 0 1 36.697 81.223 A 13.396 13.396 0 0 1 34.863 81.348 A 14.505 14.505 0 0 1 27.934 79.548 A 18.715 18.715 0 0 1 26.025 78.369 A 21.743 21.743 0 0 1 20.866 73.207 A 27.744 27.744 0 0 1 18.945 70.117 A 78.601 78.601 0 0 0 20.181 76.918 A 62.956 62.956 0 0 0 21.484 81.738 Q 18.848 81.543 16.211 81.689 A 66.388 66.388 0 0 0 11.035 82.178 Q 8.496 82.52 6.055 82.959 A 2922.032 2922.032 0 0 0 3.687 83.386 A 2413.695 2413.695 0 0 0 1.465 83.789 Z M 157.617 72.949 L 159.668 73.73 Q 159.375 76.074 157.813 78.467 Q 156.25 80.859 153.809 82.52 A 13.397 13.397 0 0 1 148.387 84.652 A 15.392 15.392 0 0 1 148.291 84.668 A 9.854 9.854 0 0 1 146.744 84.79 Q 145.102 84.79 143.42 84.247 A 13.405 13.405 0 0 1 141.992 83.691 A 14.475 14.475 0 0 1 139.549 82.249 Q 137.868 81.004 136.914 79.395 A 14.282 14.282 0 0 1 135.296 75.276 A 17.786 17.786 0 0 1 134.961 73.291 Q 134.591 70.01 134.834 66.204 A 50.994 50.994 0 0 1 134.863 65.771 A 113.853 113.853 0 0 0 135.138 59.5 A 128.039 128.039 0 0 0 135.156 57.324 A 321.816 321.816 0 0 0 135.149 55.289 Q 135.138 53.485 135.107 51.318 A 288.7 288.7 0 0 0 135.034 47.742 A 345.569 345.569 0 0 0 134.912 43.945 A 241.917 241.917 0 0 0 134.544 36.922 A 265.486 265.486 0 0 0 134.473 35.889 A 3182.785 3182.785 0 0 0 133.887 27.734 A 108.506 108.506 0 0 0 129.29 28.372 A 93.381 93.381 0 0 0 127.588 28.662 A 38.337 38.337 0 0 0 125.484 29.099 Q 124.457 29.345 123.571 29.628 A 19.515 19.515 0 0 0 122.559 29.98 A 12.838 12.838 0 0 1 122.52 29.574 Q 122.473 28.982 122.51 28.613 A 91.933 91.933 0 0 1 122.559 28.137 A 78.637 78.637 0 0 1 122.607 27.686 A 7.68 7.68 0 0 0 122.644 27.222 A 10.282 10.282 0 0 0 122.656 26.709 Q 122.656 26.172 122.461 25.195 A 292.602 292.602 0 0 1 124.939 25 A 397.781 397.781 0 0 1 127.686 24.805 A 1813.68 1813.68 0 0 1 133.594 24.414 A 1023.46 1023.46 0 0 0 133.398 21.729 Q 133.301 20.41 133.105 19.141 Q 132.768 15.964 132.032 13.676 A 14.508 14.508 0 0 0 131.299 11.816 Q 130.3 9.744 129.161 8.401 A 9.468 9.468 0 0 0 128.418 7.617 Q 127.304 6.573 126.289 6 A 6.378 6.378 0 0 0 125.488 5.615 Q 124.146 5.088 123.463 4.89 A 7.362 7.362 0 0 0 123.438 4.883 L 123.73 3.027 Q 125.255 3.669 127.374 3.949 A 22.667 22.667 0 0 0 128.32 4.053 A 31.426 31.426 0 0 0 131.116 4.175 A 35.713 35.713 0 0 0 134.033 4.053 Q 137.012 3.809 139.893 3.125 A 27.385 27.385 0 0 0 142.512 2.371 A 19.971 19.971 0 0 0 144.922 1.367 A 18.394 18.394 0 0 0 144.449 2.936 Q 143.979 4.751 143.574 7.413 A 93.283 93.283 0 0 0 143.213 10.059 A 183.286 183.286 0 0 0 142.619 15.645 Q 142.355 18.518 142.134 21.74 A 327.609 327.609 0 0 0 141.992 23.926 Q 147.07 23.633 149.316 23.145 Q 148.859 23.693 148.83 24.884 A 6.748 6.748 0 0 0 148.828 25.049 A 10.263 10.263 0 0 0 148.911 26.381 A 7.953 7.953 0 0 0 149.121 27.441 A 37.021 37.021 0 0 0 146.746 27.242 A 43.307 43.307 0 0 0 145.605 27.197 A 144.841 144.841 0 0 0 141.797 27.148 A 320.651 320.651 0 0 0 141.467 35.919 A 362.024 362.024 0 0 0 141.406 38.965 Q 141.309 45.117 141.553 51.123 Q 141.797 57.129 142.334 62.842 A 134.871 134.871 0 0 0 143.046 68.975 A 105.224 105.224 0 0 0 143.75 73.34 A 12.517 12.517 0 0 0 144.353 75.285 Q 144.772 76.311 145.347 77.076 A 5.717 5.717 0 0 0 146.484 78.223 A 7.946 7.946 0 0 0 148.774 79.438 A 7.072 7.072 0 0 0 150.684 79.785 A 6.378 6.378 0 0 0 154.203 78.714 A 8.282 8.282 0 0 0 154.883 78.223 Q 156.342 77.055 157.147 74.689 A 15.003 15.003 0 0 0 157.617 72.949 Z M 101.074 82.52 L 101.27 84.57 A 7.625 7.625 0 0 0 100.301 84.237 Q 99.276 83.954 97.843 83.791 A 26.95 26.95 0 0 0 97.363 83.74 Q 94.895 83.503 92.103 83.681 A 39.923 39.923 0 0 0 91.943 83.691 Q 89.063 83.887 86.133 84.57 Q 83.203 85.254 81.152 86.426 L 80.859 84.18 Q 83.414 83.176 85.584 80.511 A 18.123 18.123 0 0 0 85.889 80.127 Q 88.06 77.309 88.702 71.474 A 38.794 38.794 0 0 0 88.77 70.801 A 703.826 703.826 0 0 1 89.32 65.182 A 771.471 771.471 0 0 1 89.404 64.355 Q 89.746 61.035 89.844 57.617 A 80.546 80.546 0 0 0 89.876 55.317 A 87.659 87.659 0 0 0 89.746 50.586 A 42.477 42.477 0 0 0 88.977 44.585 A 47.924 47.924 0 0 0 88.672 43.164 A 49.277 49.277 0 0 0 87.619 39.899 A 41.565 41.565 0 0 0 86.914 38.086 A 17.388 17.388 0 0 0 84.912 34.424 Q 83.691 32.715 82.227 32.324 L 82.031 30.078 A 32.731 32.731 0 0 0 82.657 30.176 Q 83.589 30.313 84.831 30.449 A 94.293 94.293 0 0 0 85.01 30.469 A 99.562 99.562 0 0 0 87.363 30.694 A 119.682 119.682 0 0 0 88.867 30.811 A 58.94 58.94 0 0 0 93.066 30.957 Q 95.215 30.957 97.168 30.762 A 26.346 26.346 0 0 0 96.971 31.752 Q 96.629 33.641 96.143 37.305 A 139.505 139.505 0 0 0 95.569 42.383 A 191.768 191.768 0 0 0 95.117 48.047 Q 96.208 45.529 97.876 42.507 A 95.995 95.995 0 0 1 98.438 41.504 A 37.449 37.449 0 0 1 103.223 34.863 Q 105.957 31.836 109.375 29.932 Q 112.793 28.027 116.895 28.418 A 8.675 8.675 0 0 1 118.969 28.916 A 6.774 6.774 0 0 1 120.947 30.078 Q 122.559 31.445 123.486 33.301 A 13.735 13.735 0 0 1 124.756 37.207 A 20.404 20.404 0 0 1 124.963 38.835 Q 125.057 39.944 125 40.918 A 26.774 26.774 0 0 1 124.906 42.094 Q 124.847 42.671 124.765 43.174 A 13.421 13.421 0 0 1 124.658 43.75 Q 124.414 44.922 124.316 45.85 Q 124.235 46.623 124.357 47.294 A 4.154 4.154 0 0 0 124.414 47.559 A 2.685 2.685 0 0 0 124.629 48.119 Q 124.894 48.64 125.416 49.235 A 8.884 8.884 0 0 0 125.488 49.316 A 45.826 45.826 0 0 0 123.124 48.681 Q 121.844 48.375 120.703 48.193 A 119.055 119.055 0 0 0 118.917 47.922 Q 117.828 47.766 116.895 47.656 A 35.706 35.706 0 0 0 115.773 47.614 Q 114.906 47.596 114.137 47.626 A 20.964 20.964 0 0 0 113.574 47.656 A 7.887 7.887 0 0 0 114.893 44.629 A 24.142 24.142 0 0 0 115.128 43.274 Q 115.308 42.053 115.43 40.527 A 15.952 15.952 0 0 0 115.454 39.642 A 17.478 17.478 0 0 0 115.234 36.914 A 3.479 3.479 0 0 0 114.923 35.899 Q 114.429 34.908 113.281 34.57 A 9.675 9.675 0 0 0 112.389 34.486 A 11.652 11.652 0 0 0 111.816 34.473 A 3.332 3.332 0 0 0 111.095 34.557 Q 110.76 34.631 110.396 34.771 A 6.548 6.548 0 0 0 110.059 34.912 A 7.96 7.96 0 0 0 109.289 35.315 Q 108.906 35.54 108.487 35.833 A 17.924 17.924 0 0 0 107.813 36.328 A 12.733 12.733 0 0 0 106.862 37.144 Q 105.981 37.971 104.98 39.16 Q 102.734 41.797 100.977 44.775 A 55.106 55.106 0 0 0 98.615 49.216 A 48.941 48.941 0 0 0 97.949 50.684 A 50.393 50.393 0 0 0 96.814 53.528 A 38.946 38.946 0 0 0 95.947 56.201 A 29.152 29.152 0 0 0 95.489 58.03 Q 95.305 58.892 95.208 59.652 A 13.544 13.544 0 0 0 95.117 60.645 A 1.379 1.379 0 0 1 95.112 60.771 Q 95.1 60.895 95.064 60.97 A 0.236 0.236 0 0 1 95.02 61.035 A 210.263 210.263 0 0 0 95.302 65.605 A 171.614 171.614 0 0 0 95.508 68.164 A 218.491 218.491 0 0 0 95.728 70.517 Q 95.819 71.44 95.911 72.268 A 110.902 110.902 0 0 0 96.094 73.828 A 24.784 24.784 0 0 0 96.345 75.388 Q 96.586 76.618 96.924 77.539 Q 97.461 79.004 98.145 79.932 A 8.154 8.154 0 0 0 98.898 80.821 A 6.349 6.349 0 0 0 99.609 81.445 Q 100.391 82.031 101.074 82.52 Z M 58.789 83.691 L 58.105 82.52 A 13.357 13.357 0 0 0 60.025 81.688 A 9.747 9.747 0 0 0 61.816 80.469 A 14.166 14.166 0 0 0 62.931 79.398 Q 63.611 78.664 64.063 77.93 A 8.656 8.656 0 0 0 65.016 76.06 A 7.49 7.49 0 0 0 65.332 74.902 A 96.554 96.554 0 0 0 67.178 62.814 A 80.694 80.694 0 0 0 67.48 55.908 Q 67.48 48.816 66.638 43.319 A 51.662 51.662 0 0 0 66.113 40.43 A 11.295 11.295 0 0 0 64.648 36.621 A 10.068 10.068 0 0 0 63.404 34.976 A 13.283 13.283 0 0 0 62.207 33.838 A 7.186 7.186 0 0 0 59.976 32.576 A 9.848 9.848 0 0 0 58.203 32.129 L 58.105 30.566 A 56.057 56.057 0 0 0 60.423 30.752 A 45.524 45.524 0 0 0 61.768 30.811 A 138.887 138.887 0 0 0 62.988 30.84 Q 63.47 30.85 63.91 30.855 A 77.27 77.27 0 0 0 64.746 30.859 L 67.48 30.859 Q 68.652 30.957 69.824 30.957 A 24.264 24.264 0 0 0 72.021 31.055 A 12.259 12.259 0 0 1 74.219 31.25 Q 73.926 34.766 73.73 38.428 A 395.595 395.595 0 0 0 73.564 41.804 Q 73.488 43.509 73.438 45.02 A 117.122 117.122 0 0 0 73.243 51.257 A 106.973 106.973 0 0 0 73.242 51.66 A 225.694 225.694 0 0 0 73.071 55.432 A 287.111 287.111 0 0 0 72.949 59.521 A 121.126 121.126 0 0 0 72.917 62.305 Q 72.917 65.039 73.047 67.578 A 72.8 72.8 0 0 0 73.274 70.733 Q 73.41 72.169 73.599 73.439 A 40.927 40.927 0 0 0 73.73 74.268 A 14.703 14.703 0 0 0 74.001 75.546 Q 74.329 76.789 74.814 77.494 A 2.554 2.554 0 0 0 75.293 78.027 A 5.875 5.875 0 0 0 75.782 78.317 Q 76.04 78.455 76.348 78.594 A 13.183 13.183 0 0 0 76.855 78.809 A 8.34 8.34 0 0 0 77.456 79.077 Q 77.773 79.205 78.148 79.333 A 20.48 20.48 0 0 0 78.955 79.59 A 26.619 26.619 0 0 0 80.033 79.883 Q 80.519 80.005 81.068 80.127 A 54.824 54.824 0 0 0 82.227 80.371 L 82.324 82.031 A 50.864 50.864 0 0 0 79.785 81.966 A 45.186 45.186 0 0 0 78.564 81.982 Q 76.758 82.031 75.391 82.031 A 57.306 57.306 0 0 1 73.392 82.115 A 47.33 47.33 0 0 1 72.266 82.129 A 53.201 53.201 0 0 0 69.623 82.324 A 65.58 65.58 0 0 0 67.871 82.52 Q 65.918 82.715 63.477 83.008 A 92.46 92.46 0 0 0 59.924 83.502 A 82.504 82.504 0 0 0 58.789 83.691 Z M 18.746 58.238 A 29.253 29.253 0 0 0 19.043 59.229 A 26.588 26.588 0 0 0 22.119 65.674 A 18.568 18.568 0 0 0 27.148 70.85 A 11.808 11.808 0 0 0 33.255 72.92 A 14.649 14.649 0 0 0 34.18 72.949 Q 38.086 72.949 40.43 70.264 A 17.044 17.044 0 0 0 43.377 65.412 A 20.428 20.428 0 0 0 43.945 63.818 Q 45.117 60.059 45.459 56.055 A 87.141 87.141 0 0 0 45.621 53.844 Q 45.772 51.31 45.703 49.512 Q 45.605 46.875 44.775 43.848 Q 43.945 40.82 42.432 38.232 A 15.921 15.921 0 0 0 40.05 35.089 A 14.13 14.13 0 0 0 38.77 33.936 A 7.179 7.179 0 0 0 34.181 32.319 A 8.234 8.234 0 0 0 33.887 32.324 A 11.065 11.065 0 0 0 28.68 33.831 A 13.728 13.728 0 0 0 27.734 34.424 Q 24.805 36.426 22.607 39.502 Q 20.41 42.578 19.141 46.24 Q 17.871 49.902 17.969 53.223 Q 17.969 55.465 18.746 58.238 Z M 232.813 30.762 Q 229.98 30.664 227.49 32.324 A 14.394 14.394 0 0 0 224.722 34.76 A 18.946 18.946 0 0 0 223.047 36.963 A 24.123 24.123 0 0 0 221.033 40.766 A 31.42 31.42 0 0 0 219.873 43.994 A 36.996 36.996 0 0 0 218.58 50.289 A 43.553 43.553 0 0 0 218.359 52.734 Q 218.084 57.331 218.587 60.543 A 20.728 20.728 0 0 0 218.652 60.937 A 20.477 20.477 0 0 0 219.236 63.397 Q 219.615 64.631 220.132 65.646 A 10.952 10.952 0 0 0 220.557 66.406 A 9.463 9.463 0 0 0 222.243 68.471 A 8.124 8.124 0 0 0 223.877 69.629 A 11.025 11.025 0 0 0 228.223 70.898 Q 232.129 71.289 235.156 69.824 Q 238.184 68.359 240.234 65.918 A 18.915 18.915 0 0 0 243.408 60.596 Q 244.531 57.715 244.629 55.176 A 14.072 14.072 0 0 0 244.64 54.618 Q 244.64 53.051 244.326 50.909 A 50.41 50.41 0 0 0 243.945 48.682 A 47.554 47.554 0 0 0 241.65 40.674 A 29.787 29.787 0 0 0 239.655 36.443 A 24.261 24.261 0 0 0 237.891 33.789 A 9.861 9.861 0 0 0 236.43 32.235 Q 234.76 30.829 232.813 30.762 Z M 294.414 72.992 A 51.209 51.209 0 0 0 294.434 74.414 Q 292.773 76.367 290.186 78.076 A 11.033 11.033 0 0 1 286.919 79.52 A 14.784 14.784 0 0 1 283.887 79.98 A 16.538 16.538 0 0 1 283.828 79.984 Q 281.84 80.096 280.251 79.704 A 7.281 7.281 0 0 1 276.514 77.539 Q 274.802 75.659 274.036 72.579 A 20.469 20.469 0 0 1 273.535 69.531 Q 273.242 66.113 274.316 63.77 A 10.732 10.732 0 0 1 274.912 62.645 A 8.499 8.499 0 0 1 277.246 60.107 Q 279.102 58.789 281.494 58.35 A 13.777 13.777 0 0 1 283.986 58.117 A 12.504 12.504 0 0 1 286.133 58.301 A 8.567 8.567 0 0 1 289.338 59.514 A 10.894 10.894 0 0 1 291.553 61.377 A 15.508 15.508 0 0 1 292.648 62.698 A 12.432 12.432 0 0 1 294.727 66.992 Q 294.414 70.117 294.414 72.992 Z M 68.164 24.023 Q 65.137 24.219 63.477 22.607 A 6.618 6.618 0 0 1 62.281 21.071 A 5.397 5.397 0 0 1 61.621 18.945 Q 61.426 16.895 62.744 15.088 A 4.954 4.954 0 0 1 64.798 13.476 Q 65.751 13.056 66.992 12.891 Q 68.603 12.683 69.868 13.055 A 4.903 4.903 0 0 1 71.826 14.16 A 7.373 7.373 0 0 1 73.081 15.639 A 5.694 5.694 0 0 1 73.926 17.92 A 5.313 5.313 0 0 1 73.977 18.655 Q 73.977 20.356 72.852 21.924 A 4.531 4.531 0 0 1 70.857 23.461 Q 69.727 23.932 68.164 24.023 Z"
            vector-effect="non-scaling-stroke" />
    </g>
</svg>