<svg width="249.121" height="118.953" viewBox="0 0 249.121 118.953" xmlns="http://www.w3.org/2000/svg">
    <g id="svgGroup" stroke-linecap="round" fill-rule="evenodd" font-size="9pt" stroke="#000" stroke-width="0.25mm"
        fill="#000" style="stroke:#000;stroke-width:0.25mm;fill:#000">
        <path
            d="M 206.25 35.352 L 207.324 33.398 A 78.396 78.396 0 0 1 209.521 34.033 A 9.757 9.757 0 0 0 210.446 34.262 Q 210.944 34.362 211.523 34.435 A 21.152 21.152 0 0 0 212.354 34.521 A 22.296 22.296 0 0 0 213.315 34.582 Q 214.364 34.626 215.682 34.6 A 59.584 59.584 0 0 0 216.699 34.57 A 54.509 54.509 0 0 0 218.685 34.457 Q 219.715 34.381 220.904 34.263 A 132.045 132.045 0 0 0 223.437 33.984 A 16.312 16.312 0 0 0 222.876 35.157 Q 222.626 35.733 222.375 36.404 A 36.99 36.99 0 0 0 221.875 37.842 A 59.789 59.789 0 0 0 221.027 40.688 A 76.222 76.222 0 0 0 220.41 43.115 A 88.387 88.387 0 0 0 219.485 47.531 A 102.377 102.377 0 0 0 219.189 49.219 A 93.285 93.285 0 0 0 218.447 54.613 A 83.781 83.781 0 0 0 218.359 55.469 A 52.998 52.998 0 0 0 218.156 58.547 Q 218.09 60.285 218.115 62.207 A 38.304 38.304 0 0 0 218.482 67.102 A 32.811 32.811 0 0 0 218.848 69.189 A 18.791 18.791 0 0 0 219.671 72.042 A 13.908 13.908 0 0 0 221.045 74.756 A 5.797 5.797 0 0 0 222.52 76.317 A 5.189 5.189 0 0 0 225.195 77.246 A 9.388 9.388 0 0 0 225.889 77.272 A 7.662 7.662 0 0 0 229.932 76.172 A 14.964 14.964 0 0 0 233.353 73.362 A 14.121 14.121 0 0 0 233.545 73.145 A 18.021 18.021 0 0 0 234.888 71.387 A 13.789 13.789 0 0 0 235.889 69.629 Q 236.719 67.871 236.914 67.09 A 8.532 8.532 0 0 0 237.011 66.64 Q 237.139 65.975 237.3 64.789 A 94.077 94.077 0 0 0 237.402 64.014 Q 237.604 62.436 237.759 60.466 A 115.817 115.817 0 0 0 237.891 58.594 A 176.179 176.179 0 0 0 238.062 55.371 A 209.713 209.713 0 0 0 238.184 51.953 Q 238.265 49.023 238.143 46.365 A 63.76 63.76 0 0 0 238.086 45.312 A 32.653 32.653 0 0 0 237.896 43.364 Q 237.782 42.484 237.625 41.727 A 14.863 14.863 0 0 0 237.354 40.625 A 14.769 14.769 0 0 0 236.916 39.33 Q 236.659 38.674 236.36 38.133 A 7.533 7.533 0 0 0 236.035 37.598 A 8.617 8.617 0 0 0 235.271 36.606 A 6.335 6.335 0 0 0 234.326 35.742 A 8.933 8.933 0 0 0 232.967 34.911 A 7.841 7.841 0 0 0 232.422 34.668 L 233.008 32.715 Q 234.57 33.398 236.67 33.789 A 36.221 36.221 0 0 0 240.352 34.274 A 40.552 40.552 0 0 0 241.064 34.326 Q 243.359 34.473 245.459 34.424 A 29.093 29.093 0 0 0 247.164 34.337 Q 248.23 34.249 249.121 34.082 Q 246.582 39.355 245.313 47.803 A 77.816 77.816 0 0 0 244.654 53.931 Q 244.258 59.604 244.469 66.509 A 173.426 173.426 0 0 0 244.531 68.262 A 213.103 213.103 0 0 0 244.74 72.804 Q 244.858 74.877 245.011 76.724 A 121.236 121.236 0 0 0 245.117 77.93 A 720.322 720.322 0 0 0 245.508 82.007 A 599.576 599.576 0 0 0 245.898 85.84 A 143.356 143.356 0 0 1 246.484 93.213 Q 246.68 96.875 246.582 101.172 A 25.079 25.079 0 0 1 246.082 105.225 A 19.186 19.186 0 0 1 244.971 108.789 A 17.399 17.399 0 0 1 242.993 112.294 A 14.669 14.669 0 0 1 241.211 114.307 Q 238.867 116.504 235.791 117.676 A 19.732 19.732 0 0 1 229.855 118.918 A 22.416 22.416 0 0 1 229.199 118.945 Q 227.112 119.003 225.283 118.579 A 12.556 12.556 0 0 1 222.9 117.773 A 15.599 15.599 0 0 1 219.26 115.487 A 14.156 14.156 0 0 1 218.164 114.453 Q 216.211 112.402 215.186 109.668 Q 214.16 106.934 214.258 104.102 A 13.052 13.052 0 0 1 214.612 101.44 A 10.255 10.255 0 0 1 215.479 99.121 A 10.585 10.585 0 0 1 218.457 95.557 Q 220.313 94.141 222.559 93.457 Q 224.805 92.773 227.051 92.773 A 10.32 10.32 0 0 1 229.004 92.995 Q 230.071 93.229 230.872 93.707 A 4.535 4.535 0 0 1 232.422 95.215 A 9.674 9.674 0 0 1 233.851 99.657 A 11.892 11.892 0 0 1 233.887 100.586 A 10.733 10.733 0 0 1 233.35 103.906 Q 232.813 105.566 231.787 106.885 A 8.544 8.544 0 0 1 229.346 109.033 A 6.095 6.095 0 0 1 226.444 109.858 A 7.281 7.281 0 0 1 226.172 109.863 A 7.077 7.077 0 0 1 225.157 109.787 A 8.785 8.785 0 0 1 224.512 109.668 A 3.597 3.597 0 0 1 223.045 108.958 A 4.276 4.276 0 0 1 222.9 108.838 Q 222.2 108.231 221.723 107.179 A 7.032 7.032 0 0 1 221.68 107.08 Q 221.191 105.957 221.191 104.102 A 9.521 9.521 0 0 1 221.335 102.397 Q 221.618 100.842 222.461 99.805 A 4.55 4.55 0 0 1 223.851 98.635 A 4.302 4.302 0 0 1 225.684 98.145 A 3.891 3.891 0 0 1 226.633 98.254 A 2.771 2.771 0 0 1 227.881 98.926 A 3.519 3.519 0 0 1 228.476 99.647 A 2.748 2.748 0 0 1 228.857 100.684 A 2.773 2.773 0 0 1 228.889 101.068 Q 228.889 101.081 228.889 101.093 A 2.329 2.329 0 0 1 228.467 102.441 A 1.651 1.651 0 0 1 227.647 103.057 Q 227.356 103.163 226.993 103.201 A 4.114 4.114 0 0 1 226.562 103.223 Q 225.195 103.125 225.195 102.1 A 3.653 3.653 0 0 1 225.333 101.079 A 3.106 3.106 0 0 1 225.684 100.293 A 3.438 3.438 0 0 0 224.856 100.882 Q 224.557 101.165 224.285 101.538 A 5.772 5.772 0 0 0 224.268 101.563 A 3.228 3.228 0 0 0 223.746 102.741 Q 223.642 103.193 223.634 103.719 A 5.786 5.786 0 0 0 223.633 103.809 A 5.674 5.674 0 0 0 223.727 104.878 Q 223.849 105.509 224.125 106.001 A 2.995 2.995 0 0 0 224.512 106.543 A 2.862 2.862 0 0 0 226.589 107.516 A 3.704 3.704 0 0 0 226.758 107.52 A 2.885 2.885 0 0 0 228.46 106.962 A 3.595 3.595 0 0 0 228.564 106.885 Q 229.395 106.25 229.98 105.322 A 8.286 8.286 0 0 0 230.819 103.549 A 9.319 9.319 0 0 0 230.908 103.271 A 7.815 7.815 0 0 0 231.223 101.682 A 6.906 6.906 0 0 0 231.25 101.074 Q 231.25 97.949 229.248 96.387 Q 227.246 94.824 224.512 95.02 A 5.123 5.123 0 0 0 223.591 95.196 Q 222.882 95.395 222.07 95.801 A 8.935 8.935 0 0 0 220.091 97.162 A 10.615 10.615 0 0 0 219.531 97.705 A 10.481 10.481 0 0 0 217.832 100.078 A 12.102 12.102 0 0 0 217.578 100.586 A 7.381 7.381 0 0 0 216.884 103.769 A 8.618 8.618 0 0 0 216.895 104.199 Q 216.992 106.152 217.676 108.008 A 8.676 8.676 0 0 0 219.824 111.279 A 8.582 8.582 0 0 0 222.371 112.964 A 10.667 10.667 0 0 0 223.486 113.379 A 10.35 10.35 0 0 0 225.345 113.766 Q 226.674 113.923 228.234 113.81 A 20.003 20.003 0 0 0 228.711 113.77 A 10.433 10.433 0 0 0 236.383 109.259 A 16.97 16.97 0 0 0 237.939 106.641 Q 241.113 100.098 240.918 89.258 A 898.621 898.621 0 0 0 240.845 86.678 Q 240.784 84.637 240.723 82.959 Q 240.639 80.651 240.555 78.812 A 297.773 297.773 0 0 0 240.527 78.223 Q 240.43 76.172 240.381 74.512 A 112.934 112.934 0 0 1 240.332 71.191 A 46.509 46.509 0 0 1 239.05 74.909 A 55.25 55.25 0 0 1 238.33 76.66 A 20.29 20.29 0 0 1 235.107 81.836 A 15.695 15.695 0 0 1 230.225 85.645 Q 227.524 87.018 223.836 87.018 A 20.346 20.346 0 0 1 223.34 87.012 A 14.796 14.796 0 0 1 220.673 86.695 A 11.051 11.051 0 0 1 218.066 85.791 A 11.78 11.78 0 0 1 214.209 82.715 Q 212.598 80.762 211.572 78.125 A 23.012 23.012 0 0 1 210.426 74.082 A 27.242 27.242 0 0 1 210.156 72.363 A 33.228 33.228 0 0 1 209.899 68.238 A 33.806 33.806 0 0 1 210.107 64.502 A 186.519 186.519 0 0 1 211.133 56.738 A 251.291 251.291 0 0 0 211.524 53.209 Q 211.667 51.824 211.777 50.583 A 125.478 125.478 0 0 0 211.963 48.242 A 36.783 36.783 0 0 0 212.037 46.747 Q 212.106 44.339 211.804 42.54 A 13.877 13.877 0 0 0 211.768 42.334 A 9.945 9.945 0 0 0 211.136 40.199 A 7.785 7.785 0 0 0 210.01 38.33 A 10.108 10.108 0 0 0 208.641 36.967 Q 207.91 36.359 206.994 35.79 A 19.107 19.107 0 0 0 206.25 35.352 Z M 54.98 87.402 L 56.543 88.086 Q 56.348 89.844 55.615 91.504 A 7.659 7.659 0 0 1 53.564 94.287 A 6.866 6.866 0 0 1 50.964 95.659 A 8.307 8.307 0 0 1 50.391 95.801 Q 49.07 96.079 47.502 95.813 A 11.648 11.648 0 0 1 46.191 95.508 A 12.137 12.137 0 0 1 44.143 94.685 A 9.307 9.307 0 0 1 42.432 93.555 Q 40.918 92.285 40.137 89.941 Q 39.569 88.239 39.337 85.815 A 34.451 34.451 0 0 1 39.209 83.887 Q 39.063 80.176 39.551 74.609 A 320.749 320.749 0 0 0 39.929 70.789 A 378.134 378.134 0 0 0 40.283 66.748 A 141.46 141.46 0 0 0 40.723 58.545 Q 40.811 54.886 40.541 51.506 A 59.934 59.934 0 0 0 40.479 50.781 A 27.422 27.422 0 0 0 39.986 47.506 Q 39.622 45.82 39.051 44.38 A 16.877 16.877 0 0 0 39.014 44.287 A 12.389 12.389 0 0 0 37.671 41.785 A 9.913 9.913 0 0 0 35.889 39.844 A 6.992 6.992 0 0 0 32.915 38.418 A 10.209 10.209 0 0 0 30.664 38.184 A 6.698 6.698 0 0 0 27.309 39.109 A 9.699 9.699 0 0 0 25.635 40.332 A 16.438 16.438 0 0 0 23.176 43.136 A 22.424 22.424 0 0 0 21.484 45.996 Q 19.727 49.512 18.701 54.102 Q 17.676 58.691 17.676 63.574 L 17.676 63.477 A 8.042 8.042 0 0 0 17.681 63.763 Q 17.691 64.056 17.725 64.258 Q 17.773 64.551 17.773 64.941 Q 18.239 69.694 18.928 72.58 A 25.945 25.945 0 0 0 18.994 72.852 A 21.199 21.199 0 0 0 19.591 74.845 Q 19.936 75.809 20.346 76.598 A 10.017 10.017 0 0 0 20.898 77.539 A 9.551 9.551 0 0 0 23.779 80.371 A 57.779 57.779 0 0 0 25.396 81.348 Q 26.514 82.001 27.832 82.715 L 27.344 84.473 Q 25.923 84.024 23.615 83.461 A 134.529 134.529 0 0 0 22.119 83.105 A 79.271 79.271 0 0 0 17.279 82.147 A 92.938 92.938 0 0 0 14.941 81.787 A 66.671 66.671 0 0 0 8.426 81.184 A 60.862 60.862 0 0 0 7.52 81.152 Q 3.906 81.055 1.563 81.934 L 0.781 79.59 A 47.751 47.751 0 0 1 2.112 79.102 A 60.365 60.365 0 0 1 3.564 78.613 A 5.414 5.414 0 0 0 5.042 77.856 Q 5.615 77.448 6.166 76.869 A 10.01 10.01 0 0 0 6.445 76.563 A 8.222 8.222 0 0 0 7.378 75.231 Q 8.163 73.861 8.788 71.83 A 73.342 73.342 0 0 0 8.789 71.826 A 20.845 20.845 0 0 0 9.33 69.587 Q 9.783 67.194 9.995 63.824 A 81.126 81.126 0 0 0 10.059 62.695 A 403.632 403.632 0 0 0 10.315 56.616 A 496.928 496.928 0 0 0 10.498 50.098 A 368.816 368.816 0 0 0 10.586 42.082 A 352.841 352.841 0 0 0 10.547 36.816 A 303.82 303.82 0 0 0 10.28 27.739 A 261.02 261.02 0 0 0 10.107 24.365 A 138.095 138.095 0 0 0 9.803 20.161 Q 9.619 18.089 9.384 16.263 A 72.391 72.391 0 0 0 9.082 14.16 Q 8.496 10.84 7.422 9.033 A 11.183 11.183 0 0 0 6.509 7.71 Q 5.965 7.038 5.368 6.555 A 6.288 6.288 0 0 0 5.029 6.299 A 8.529 8.529 0 0 0 3.732 5.539 A 6.496 6.496 0 0 0 2.393 5.078 A 42.656 42.656 0 0 1 1.452 4.858 Q 0.94 4.733 0.492 4.607 A 23.22 23.22 0 0 1 0.098 4.492 L 0 2.93 A 77.556 77.556 0 0 0 6.338 3.187 A 82.315 82.315 0 0 0 12.158 2.979 Q 18.359 2.539 24.121 0 L 24.316 1.66 A 40.003 40.003 0 0 1 22.993 2.927 A 33.508 33.508 0 0 1 22.217 3.613 A 7.933 7.933 0 0 0 21.228 4.639 Q 20.811 5.151 20.423 5.776 A 13.349 13.349 0 0 0 20.313 5.957 A 11.012 11.012 0 0 0 19.645 7.278 Q 19.178 8.365 18.799 9.766 A 20.786 20.786 0 0 0 18.435 11.383 Q 18.073 13.33 17.871 16.016 A 124.014 124.014 0 0 0 17.731 18.071 Q 17.676 18.99 17.626 20.015 A 245.664 245.664 0 0 0 17.529 22.168 Q 17.383 25.781 17.236 29.932 A 343.287 343.287 0 0 0 17.072 36.377 A 392.095 392.095 0 0 0 17.041 38.623 A 831.219 831.219 0 0 0 16.992 47.559 A 40.646 40.646 0 0 1 20.361 41.26 Q 22.363 38.184 24.951 35.84 A 19.177 19.177 0 0 1 29.447 32.773 A 17.727 17.727 0 0 1 30.566 32.275 Q 33.594 31.055 37.012 31.738 A 9.486 9.486 0 0 1 43.213 35.498 A 20.472 20.472 0 0 1 46.04 40.81 A 24.456 24.456 0 0 1 46.631 42.676 Q 47.754 46.777 47.949 51.318 A 147.084 147.084 0 0 1 48.047 54.243 Q 48.112 57.064 48.047 59.473 A 307.802 307.802 0 0 1 47.839 63.037 A 238.538 238.538 0 0 1 47.607 66.309 A 147.391 147.391 0 0 1 47.186 70.831 A 127.818 127.818 0 0 1 47.021 72.266 A 336.797 336.797 0 0 1 46.289 77.93 A 668.422 668.422 0 0 0 45.605 83.035 A 736.757 736.757 0 0 0 45.508 83.789 A 21.848 21.848 0 0 0 45.403 84.946 Q 45.194 88.288 46.24 90.088 Q 47.059 91.495 48.118 92.091 A 3.357 3.357 0 0 0 49.219 92.48 A 3.759 3.759 0 0 0 49.838 92.532 Q 51.242 92.532 52.615 91.462 A 7.119 7.119 0 0 0 52.686 91.406 A 6.033 6.033 0 0 0 54.383 89.201 A 8.733 8.733 0 0 0 54.98 87.402 Z M 101.27 78.613 L 102.539 79.102 Q 102.267 80.282 101.657 81.672 A 21.068 21.068 0 0 1 101.562 81.885 A 8.768 8.768 0 0 1 99.708 84.523 A 9.977 9.977 0 0 1 99.609 84.619 Q 98.34 85.84 96.533 86.475 Q 95.106 86.976 93.283 86.716 A 10.849 10.849 0 0 1 92.285 86.523 A 6.218 6.218 0 0 1 88.428 83.789 Q 87.176 81.89 86.573 79.076 A 21.133 21.133 0 0 1 86.426 78.32 A 21.441 21.441 0 0 1 85.437 79.724 Q 84.888 80.444 84.229 81.201 A 15.588 15.588 0 0 1 81.764 83.467 A 17.872 17.872 0 0 1 81.104 83.936 A 15.331 15.331 0 0 1 78.119 85.492 A 18.029 18.029 0 0 1 77.002 85.889 A 12.383 12.383 0 0 1 73.941 86.443 Q 73.528 86.467 73.104 86.467 A 15.886 15.886 0 0 1 71.973 86.426 A 16.166 16.166 0 0 1 67.871 85.583 A 13.89 13.89 0 0 1 65.381 84.424 Q 62.5 82.715 60.547 80.029 A 18.376 18.376 0 0 1 57.802 74.403 A 20.962 20.962 0 0 1 57.666 73.926 A 18.833 18.833 0 0 1 57.013 68.97 A 20.751 20.751 0 0 1 57.129 66.797 A 17.732 17.732 0 0 1 57.76 63.566 A 13.209 13.209 0 0 1 59.131 60.449 A 13.452 13.452 0 0 1 62.586 56.62 A 12.945 12.945 0 0 1 63.184 56.201 Q 65.625 54.59 68.75 54.004 Q 71.875 53.418 75.195 53.711 Q 79.59 54.199 82.52 56.299 A 19.171 19.171 0 0 1 84.966 58.364 A 14.294 14.294 0 0 1 87.012 60.938 A 60.345 60.345 0 0 0 87.339 55.942 Q 87.36 55.079 87.36 54.196 A 75.612 75.612 0 0 0 87.305 51.318 A 38.158 38.158 0 0 0 86.687 45.684 A 30.969 30.969 0 0 0 85.742 41.943 A 18.486 18.486 0 0 0 83.775 37.681 A 15.535 15.535 0 0 0 81.543 34.912 A 9.143 9.143 0 0 0 76.877 32.486 Q 75.468 32.194 73.828 32.227 A 15.738 15.738 0 0 0 71.483 32.391 Q 70.249 32.577 69.227 32.974 A 8.159 8.159 0 0 0 68.213 33.447 Q 66.016 34.668 64.697 36.328 A 11.262 11.262 0 0 0 63.601 37.974 A 8.589 8.589 0 0 0 62.891 39.697 Q 62.402 41.406 62.402 42.383 A 3.917 3.917 0 0 0 62.514 43.284 Q 62.613 43.698 62.796 44.148 A 7.892 7.892 0 0 0 62.988 44.58 A 7.509 7.509 0 0 0 64.247 46.418 A 8.843 8.843 0 0 0 64.648 46.826 Q 65.723 47.852 67.188 48.438 A 5.536 5.536 0 0 0 68.924 48.817 Q 69.677 48.862 70.508 48.73 A 5.446 5.446 0 0 0 72.115 48.231 A 4.973 4.973 0 0 0 72.754 47.852 A 6.422 6.422 0 0 0 73.774 46.973 A 5.376 5.376 0 0 0 74.316 46.289 A 5.914 5.914 0 0 0 75.146 44.434 A 8.33 8.33 0 0 0 75.35 43.308 A 6.801 6.801 0 0 0 75.391 42.578 A 2.655 2.655 0 0 0 74.805 40.869 A 4.208 4.208 0 0 0 73.862 39.993 A 3.868 3.868 0 0 0 73.438 39.746 A 2.723 2.723 0 0 0 72.24 39.462 Q 71.968 39.459 71.68 39.502 A 2.991 2.991 0 0 0 70.228 40.154 A 3.85 3.85 0 0 0 69.922 40.43 A 2.892 2.892 0 0 1 70.241 40.412 Q 70.961 40.412 71.68 40.771 A 1.471 1.471 0 0 1 72.43 41.667 Q 72.522 41.946 72.548 42.294 A 3.812 3.812 0 0 1 72.559 42.578 A 2.071 2.071 0 0 1 72.445 43.281 Q 72.243 43.845 71.68 44.189 A 3.062 3.062 0 0 1 70.052 44.644 A 3.599 3.599 0 0 1 69.727 44.629 A 3.106 3.106 0 0 1 68.11 43.987 A 4.047 4.047 0 0 1 67.773 43.701 Q 67.064 43.032 66.927 41.758 A 6.033 6.033 0 0 1 66.895 41.113 A 3.457 3.457 0 0 1 67.979 38.582 A 4.89 4.89 0 0 1 68.311 38.281 A 4.981 4.981 0 0 1 71.582 37.109 Q 73.828 37.109 75.732 38.867 A 5.757 5.757 0 0 1 77.469 42.015 A 8.518 8.518 0 0 1 77.637 43.75 A 4.914 4.914 0 0 1 77.485 44.933 Q 77.351 45.473 77.1 46.045 A 7.109 7.109 0 0 1 76.107 47.654 A 8.797 8.797 0 0 1 75.488 48.34 A 7.369 7.369 0 0 1 74.176 49.371 Q 73.537 49.771 72.76 50.103 A 12.39 12.39 0 0 1 72.656 50.146 A 9.215 9.215 0 0 1 70.558 50.729 A 12.71 12.71 0 0 1 68.555 50.879 A 10.159 10.159 0 0 1 66.137 50.601 A 8.459 8.459 0 0 1 64.355 49.951 A 10.814 10.814 0 0 1 62.081 48.445 A 9.62 9.62 0 0 1 61.23 47.607 Q 59.961 46.191 59.326 44.482 A 10.526 10.526 0 0 1 58.831 42.708 A 8.333 8.333 0 0 1 58.691 41.211 A 6.592 6.592 0 0 1 58.807 40.039 Q 59.027 38.826 59.668 37.256 Q 60.645 34.863 62.744 32.715 A 17.307 17.307 0 0 1 65.702 30.314 A 22.338 22.338 0 0 1 68.018 29.004 A 14.656 14.656 0 0 1 71.854 27.762 Q 73.54 27.451 75.462 27.442 A 24.581 24.581 0 0 1 75.586 27.441 A 26.233 26.233 0 0 1 81.653 28.094 A 15.026 15.026 0 0 1 91.895 35.693 Q 96.132 43.478 93.678 58.433 A 88.568 88.568 0 0 1 93.359 60.254 A 116.643 116.643 0 0 0 92.732 64.105 Q 92.157 68.079 92.09 70.898 A 48.925 48.925 0 0 0 92.077 71.758 Q 92.055 75.262 92.578 77.441 Q 93.124 79.716 94.136 80.719 A 3.162 3.162 0 0 0 94.287 80.859 Q 95.41 81.836 96.68 82.031 A 3.937 3.937 0 0 0 97.385 82.096 A 3.591 3.591 0 0 0 98.73 81.836 A 2.768 2.768 0 0 0 99.541 81.481 Q 99.842 81.29 100.136 81.013 A 4.992 4.992 0 0 0 100.244 80.908 Q 100.783 80.369 101.084 79.38 A 7.182 7.182 0 0 0 101.27 78.613 Z M 125.098 113.77 L 124.316 115.625 A 32.309 32.309 0 0 0 122.247 115.38 Q 121.113 115.28 119.809 115.23 A 68.566 68.566 0 0 0 118.066 115.186 A 70.454 70.454 0 0 0 117.139 115.179 A 69.328 69.328 0 0 0 110.693 115.479 A 69.931 69.931 0 0 0 106.534 115.988 A 56.415 56.415 0 0 0 103.906 116.455 Q 100.781 117.09 99.414 117.969 L 98.535 116.309 A 73.092 73.092 0 0 0 100.391 115.063 A 56.128 56.128 0 0 0 102.051 113.867 Q 103.406 112.851 104.504 110.99 A 15.293 15.293 0 0 0 104.834 110.4 Q 106.055 108.105 106.885 104.102 Q 107.677 100.28 108.158 93.969 A 164.909 164.909 0 0 0 108.203 93.359 A 475.889 475.889 0 0 0 108.789 80.127 Q 108.984 73.633 109.033 67.871 A 1413.632 1413.632 0 0 0 109.07 62.292 A 1153.042 1153.042 0 0 0 109.082 57.08 Q 109.082 52.758 109.154 49.337 A 240.686 240.686 0 0 1 109.18 48.242 A 36.219 36.219 0 0 0 109.191 47.359 Q 109.191 44.949 108.862 42.739 A 26.975 26.975 0 0 0 108.496 40.771 A 22.793 22.793 0 0 0 107.446 37.336 A 17.845 17.845 0 0 0 106.152 34.717 A 13.392 13.392 0 0 0 103.913 31.902 A 11.74 11.74 0 0 0 102.295 30.615 A 10.508 10.508 0 0 0 97.445 28.937 A 12.478 12.478 0 0 0 97.07 28.906 L 97.656 26.563 A 122.311 122.311 0 0 0 100.421 26.858 Q 101.687 26.977 102.822 27.054 A 70.507 70.507 0 0 0 103.564 27.1 A 71.506 71.506 0 0 0 105.444 27.182 Q 106.958 27.228 108.301 27.197 A 39.765 39.765 0 0 0 110.61 27.081 A 31.048 31.048 0 0 0 112.256 26.904 A 23.354 23.354 0 0 0 115.723 26.172 Q 115.332 29.883 115.137 33.301 A 320.403 320.403 0 0 0 114.966 36.572 A 241.399 241.399 0 0 0 114.844 39.551 A 26.973 26.973 0 0 1 118.423 34.149 A 22.394 22.394 0 0 1 122.119 30.713 A 17.76 17.76 0 0 1 131.836 27.148 A 10.159 10.159 0 0 1 132.164 27.143 Q 134.046 27.143 135.966 27.839 A 14.567 14.567 0 0 1 137.988 28.76 A 14.982 14.982 0 0 1 141.157 31.113 Q 142.488 32.388 143.701 34.082 Q 146.289 37.695 147.9 43.213 A 37.797 37.797 0 0 1 149.057 48.804 Q 149.426 51.571 149.496 54.693 A 65.795 65.795 0 0 1 149.512 56.152 A 43.387 43.387 0 0 1 149.071 62.497 Q 148.571 65.872 147.508 68.758 A 26.865 26.865 0 0 1 147.363 69.141 A 35.083 35.083 0 0 1 145.102 73.941 A 26.007 26.007 0 0 1 141.943 78.369 A 23.415 23.415 0 0 1 137.8 82.064 A 19.914 19.914 0 0 1 134.668 83.838 Q 131.055 85.468 127.68 85.468 A 13.827 13.827 0 0 1 126.953 85.449 A 17.176 17.176 0 0 1 123.836 85.017 A 12.414 12.414 0 0 1 120.459 83.691 A 14.907 14.907 0 0 1 116.528 80.429 A 14.127 14.127 0 0 1 116.016 79.785 A 213.473 213.473 0 0 0 115.94 82.251 Q 115.907 83.517 115.884 84.93 A 377.565 377.565 0 0 0 115.869 85.889 A 34228.939 34228.939 0 0 1 115.771 92.773 Q 115.723 96.191 115.771 99.17 A 504.569 504.569 0 0 1 115.793 100.589 Q 115.82 102.612 115.82 104.004 A 13.838 13.838 0 0 0 116.183 106.686 Q 116.563 108.242 117.325 109.426 A 7.233 7.233 0 0 0 118.457 110.791 Q 120.898 113.086 125.098 113.77 Z M 176.953 113.77 L 176.172 115.625 A 32.309 32.309 0 0 0 174.103 115.38 Q 172.968 115.28 171.664 115.23 A 68.566 68.566 0 0 0 169.922 115.186 A 70.454 70.454 0 0 0 168.995 115.179 A 69.328 69.328 0 0 0 162.549 115.479 A 69.931 69.931 0 0 0 158.389 115.988 A 56.415 56.415 0 0 0 155.762 116.455 Q 152.637 117.09 151.27 117.969 L 150.391 116.309 A 73.092 73.092 0 0 0 152.246 115.063 A 56.128 56.128 0 0 0 153.906 113.867 Q 155.261 112.851 156.359 110.99 A 15.293 15.293 0 0 0 156.689 110.4 Q 157.91 108.105 158.74 104.102 Q 159.532 100.28 160.013 93.969 A 164.909 164.909 0 0 0 160.059 93.359 A 475.889 475.889 0 0 0 160.645 80.127 Q 160.84 73.633 160.889 67.871 A 1413.632 1413.632 0 0 0 160.925 62.292 A 1153.042 1153.042 0 0 0 160.937 57.08 Q 160.938 52.758 161.01 49.337 A 240.686 240.686 0 0 1 161.035 48.242 A 36.219 36.219 0 0 0 161.046 47.359 Q 161.046 44.949 160.718 42.739 A 26.975 26.975 0 0 0 160.352 40.771 A 22.793 22.793 0 0 0 159.301 37.336 A 17.845 17.845 0 0 0 158.008 34.717 A 13.392 13.392 0 0 0 155.769 31.902 A 11.74 11.74 0 0 0 154.15 30.615 A 10.508 10.508 0 0 0 149.301 28.937 A 12.478 12.478 0 0 0 148.926 28.906 L 149.512 26.563 A 122.311 122.311 0 0 0 152.277 26.858 Q 153.542 26.977 154.678 27.054 A 70.507 70.507 0 0 0 155.42 27.1 A 71.506 71.506 0 0 0 157.299 27.182 Q 158.813 27.228 160.156 27.197 A 39.765 39.765 0 0 0 162.465 27.081 A 31.048 31.048 0 0 0 164.111 26.904 A 23.354 23.354 0 0 0 167.578 26.172 Q 167.188 29.883 166.992 33.301 A 320.403 320.403 0 0 0 166.821 36.572 A 241.399 241.399 0 0 0 166.699 39.551 A 26.973 26.973 0 0 1 170.279 34.149 A 22.394 22.394 0 0 1 173.975 30.713 A 17.76 17.76 0 0 1 183.691 27.148 A 10.159 10.159 0 0 1 184.019 27.143 Q 185.901 27.143 187.822 27.839 A 14.567 14.567 0 0 1 189.844 28.76 A 14.982 14.982 0 0 1 193.012 31.113 Q 194.344 32.388 195.557 34.082 Q 198.145 37.695 199.756 43.213 A 37.797 37.797 0 0 1 200.912 48.804 Q 201.282 51.571 201.351 54.693 A 65.795 65.795 0 0 1 201.367 56.152 A 43.387 43.387 0 0 1 200.926 62.497 Q 200.427 65.872 199.363 68.758 A 26.865 26.865 0 0 1 199.219 69.141 A 35.083 35.083 0 0 1 196.958 73.941 A 26.007 26.007 0 0 1 193.799 78.369 A 23.415 23.415 0 0 1 189.656 82.064 A 19.914 19.914 0 0 1 186.523 83.838 Q 182.91 85.468 179.535 85.468 A 13.827 13.827 0 0 1 178.809 85.449 A 17.176 17.176 0 0 1 175.691 85.017 A 12.414 12.414 0 0 1 172.314 83.691 A 14.907 14.907 0 0 1 168.384 80.429 A 14.127 14.127 0 0 1 167.871 79.785 A 213.473 213.473 0 0 0 167.795 82.251 Q 167.763 83.517 167.739 84.93 A 377.565 377.565 0 0 0 167.725 85.889 A 34228.939 34228.939 0 0 1 167.627 92.773 Q 167.578 96.191 167.627 99.17 A 504.569 504.569 0 0 1 167.648 100.589 Q 167.676 102.612 167.676 104.004 A 13.838 13.838 0 0 0 168.039 106.686 Q 168.419 108.242 169.18 109.426 A 7.233 7.233 0 0 0 170.312 110.791 Q 172.754 113.086 176.953 113.77 Z M 142.48 54.492 A 21.224 21.224 0 0 0 142.491 53.808 Q 142.491 51.417 141.978 48.484 A 45.283 45.283 0 0 0 141.797 47.51 Q 141.016 43.555 139.355 40.039 Q 137.695 36.523 135.059 34.277 A 7.781 7.781 0 0 0 129.858 32.364 A 9.759 9.759 0 0 0 128.809 32.422 Q 125.098 32.91 122.607 35.693 A 21.274 21.274 0 0 0 119.259 40.78 A 25.029 25.029 0 0 0 118.604 42.285 A 37.845 37.845 0 0 0 116.495 49.855 A 41.918 41.918 0 0 0 116.406 50.391 Q 115.819 54.083 115.736 57.055 A 34.305 34.305 0 0 0 115.723 58.008 A 15.214 15.214 0 0 0 115.704 58.474 Q 115.663 60.131 115.898 62.997 A 96.174 96.174 0 0 0 115.918 63.232 A 31.043 31.043 0 0 0 117.285 70.068 Q 118.359 73.438 120.459 75.977 A 6.799 6.799 0 0 0 125.427 78.493 A 9.213 9.213 0 0 0 126.074 78.516 A 9.977 9.977 0 0 0 130.235 77.582 A 12.885 12.885 0 0 0 131.836 76.709 A 17.419 17.419 0 0 0 135.166 73.917 A 22.235 22.235 0 0 0 136.963 71.729 A 25.979 25.979 0 0 0 139.384 67.59 A 33.789 33.789 0 0 0 140.771 64.16 A 31.368 31.368 0 0 0 142.22 57.78 A 38.331 38.331 0 0 0 142.48 54.492 Z M 194.336 54.492 A 21.224 21.224 0 0 0 194.347 53.808 Q 194.347 51.417 193.834 48.484 A 45.283 45.283 0 0 0 193.652 47.51 Q 192.871 43.555 191.211 40.039 Q 189.551 36.523 186.914 34.277 A 7.781 7.781 0 0 0 181.713 32.364 A 9.759 9.759 0 0 0 180.664 32.422 Q 176.953 32.91 174.463 35.693 A 21.274 21.274 0 0 0 171.114 40.78 A 25.029 25.029 0 0 0 170.459 42.285 A 37.845 37.845 0 0 0 168.35 49.855 A 41.918 41.918 0 0 0 168.262 50.391 Q 167.674 54.083 167.592 57.055 A 34.305 34.305 0 0 0 167.578 58.008 A 15.214 15.214 0 0 0 167.56 58.474 Q 167.519 60.131 167.754 62.997 A 96.174 96.174 0 0 0 167.773 63.232 A 31.043 31.043 0 0 0 169.141 70.068 Q 170.215 73.438 172.314 75.977 A 6.799 6.799 0 0 0 177.283 78.493 A 9.213 9.213 0 0 0 177.93 78.516 A 9.977 9.977 0 0 0 182.091 77.582 A 12.885 12.885 0 0 0 183.691 76.709 A 17.419 17.419 0 0 0 187.022 73.917 A 22.235 22.235 0 0 0 188.818 71.729 A 25.979 25.979 0 0 0 191.24 67.59 A 33.789 33.789 0 0 0 192.627 64.16 A 31.368 31.368 0 0 0 194.076 57.78 A 38.331 38.331 0 0 0 194.336 54.492 Z M 86.016 72.699 A 51.209 51.209 0 0 0 86.035 74.121 Q 84.375 76.074 81.787 77.783 A 11.033 11.033 0 0 1 78.52 79.227 A 14.784 14.784 0 0 1 75.488 79.687 A 16.538 16.538 0 0 1 75.429 79.691 Q 73.442 79.803 71.853 79.411 A 7.281 7.281 0 0 1 68.115 77.246 Q 66.403 75.366 65.637 72.286 A 20.469 20.469 0 0 1 65.137 69.238 Q 64.844 65.82 65.918 63.477 A 10.732 10.732 0 0 1 66.514 62.352 A 8.499 8.499 0 0 1 68.848 59.814 Q 70.703 58.496 73.096 58.057 A 13.777 13.777 0 0 1 75.588 57.824 A 12.504 12.504 0 0 1 77.734 58.008 A 8.567 8.567 0 0 1 80.939 59.221 A 10.894 10.894 0 0 1 83.154 61.084 A 15.508 15.508 0 0 1 84.25 62.405 A 12.432 12.432 0 0 1 86.328 66.699 Q 86.016 69.824 86.016 72.699 Z"
            vector-effect="non-scaling-stroke" />
    </g>
</svg>