<svg width="165.332" height="121.426" viewBox="0 0 165.332 121.426" xmlns="http://www.w3.org/2000/svg">
    <g id="svgGroup" stroke-linecap="round" fill-rule="evenodd" font-size="9pt" stroke="#000" stroke-width="0.25mm"
        fill="#000" style="stroke:#000;stroke-width:0.25mm;fill:transparent">
        <path
            d="M 165.332 36.719 L 165.234 38.574 A 10.42 10.42 0 0 0 161.782 39.455 A 8.986 8.986 0 0 0 158.35 42.236 A 14.046 14.046 0 0 0 156.836 44.799 Q 155.411 47.847 154.492 52.637 A 61.679 61.679 0 0 0 153.558 59.21 A 54.389 54.389 0 0 0 153.418 61.328 A 118.194 118.194 0 0 0 153.288 66.819 A 107.923 107.923 0 0 0 153.32 69.482 A 117.166 117.166 0 0 0 153.76 77.197 A 631.353 631.353 0 0 1 154.395 84.668 A 74.189 74.189 0 0 1 154.527 86.462 Q 154.577 87.256 154.617 88.126 A 132.106 132.106 0 0 1 154.688 89.941 A 47.518 47.518 0 0 1 154.712 91.473 Q 154.712 93.799 154.492 96.289 A 46.221 46.221 0 0 1 153.568 102.212 A 51.335 51.335 0 0 1 153.369 103.076 A 23.979 23.979 0 0 1 150.781 109.57 A 28.354 28.354 0 0 1 147.07 114.502 A 22.862 22.862 0 0 1 142.285 118.408 Q 139.648 120.02 136.719 120.801 A 18.597 18.597 0 0 1 131.906 121.426 A 19.91 19.91 0 0 1 130.664 121.387 A 15.889 15.889 0 0 1 127.224 120.732 A 12.817 12.817 0 0 1 124.512 119.531 A 15.416 15.416 0 0 1 120.57 116.236 A 14.592 14.592 0 0 1 120.117 115.674 A 14.877 14.877 0 0 1 118.057 112.067 A 13.62 13.62 0 0 1 117.627 110.791 Q 117.104 108.943 117.104 107.268 A 10.13 10.13 0 0 1 117.188 105.957 A 12.686 12.686 0 0 1 118.376 102.001 A 14.738 14.738 0 0 1 118.701 101.367 A 14.987 14.987 0 0 1 121.875 97.363 A 14.592 14.592 0 0 1 125.165 95.15 A 17.592 17.592 0 0 1 126.563 94.531 A 14.203 14.203 0 0 1 130.235 93.648 Q 131.163 93.547 132.15 93.547 A 19.78 19.78 0 0 1 132.715 93.555 A 8.98 8.98 0 0 1 135.303 94.118 A 10.47 10.47 0 0 1 135.84 94.336 A 9.463 9.463 0 0 1 138.623 96.191 A 7.741 7.741 0 0 1 140.479 98.975 Q 141.113 100.586 141.016 102.344 A 10.723 10.723 0 0 1 140.323 105.09 A 12.597 12.597 0 0 1 139.99 105.859 Q 139.16 107.617 137.842 109.033 A 8.77 8.77 0 0 1 134.766 111.182 A 6.723 6.723 0 0 1 132.155 111.705 A 7.409 7.409 0 0 1 131.055 111.621 Q 128.976 111.338 127.903 109.545 A 5.431 5.431 0 0 1 127.832 109.424 A 7.099 7.099 0 0 1 126.887 105.883 A 7.527 7.527 0 0 1 126.904 105.371 A 7.03 7.03 0 0 1 128.316 101.615 A 8.553 8.553 0 0 1 128.467 101.416 A 4.989 4.989 0 0 1 131.009 99.716 A 7.619 7.619 0 0 1 132.715 99.414 A 4.665 4.665 0 0 1 132.948 99.408 Q 134.724 99.408 135.596 100.83 A 3.941 3.941 0 0 1 135.903 101.436 Q 136.364 102.602 135.742 103.613 Q 134.948 104.848 133.597 104.848 A 3.171 3.171 0 0 1 133.301 104.834 A 2.292 2.292 0 0 1 131.575 103.789 Q 131.319 103.421 131.124 102.923 A 5.707 5.707 0 0 1 131.055 102.734 Q 130.273 103.32 129.834 104.443 A 5.137 5.137 0 0 0 129.494 105.85 Q 129.474 106.066 129.474 106.281 A 4.712 4.712 0 0 0 129.492 106.689 A 3.47 3.47 0 0 0 130.273 108.643 Q 130.957 109.473 132.422 109.473 A 7.057 7.057 0 0 0 133.761 109.352 Q 134.64 109.182 135.343 108.774 A 4.49 4.49 0 0 0 135.4 108.74 A 6.438 6.438 0 0 0 137.402 106.885 A 7.979 7.979 0 0 0 138.327 105.145 A 7.226 7.226 0 0 0 138.525 104.541 Q 138.867 103.32 138.867 102.344 A 5.611 5.611 0 0 0 138.75 101.232 A 7.588 7.588 0 0 0 138.477 100.244 A 5.607 5.607 0 0 0 137.381 98.384 A 6.533 6.533 0 0 0 137.207 98.193 Q 136.328 97.266 134.863 96.729 Q 133.398 96.191 131.25 96.289 A 11.637 11.637 0 0 0 127.393 97.168 A 12.35 12.35 0 0 0 123.926 99.316 Q 122.363 100.684 121.387 102.637 A 9.359 9.359 0 0 0 120.419 106.498 A 10.996 10.996 0 0 0 120.41 106.934 A 9.991 9.991 0 0 0 120.762 109.627 A 8.639 8.639 0 0 0 121.436 111.328 A 9.639 9.639 0 0 0 124.219 114.6 A 13.487 13.487 0 0 0 127.669 116.458 A 15.415 15.415 0 0 0 128.223 116.65 Q 130.469 117.383 132.91 117.285 A 8.998 8.998 0 0 0 134.992 116.933 Q 135.928 116.667 136.941 116.204 A 18.966 18.966 0 0 0 138.184 115.576 A 14.42 14.42 0 0 0 141.456 113.077 A 19.38 19.38 0 0 0 143.457 110.693 Q 145.528 107.802 146.723 103.461 A 34.674 34.674 0 0 0 147.021 102.295 A 23.566 23.566 0 0 0 147.564 98.847 Q 147.801 96.071 147.512 92.813 A 49.147 49.147 0 0 0 147.168 89.941 Q 146.68 86.523 146.436 83.398 A 78.769 78.769 0 0 1 146.195 78.079 A 71.196 71.196 0 0 1 146.191 77.344 A 41.402 41.402 0 0 1 144.624 79.478 A 52.428 52.428 0 0 1 143.213 81.201 A 25.023 25.023 0 0 1 139.404 84.814 Q 137.305 86.426 134.766 87.451 A 12.012 12.012 0 0 1 130.224 88.312 A 13.941 13.941 0 0 1 129.297 88.281 A 19.926 19.926 0 0 1 122.412 86.621 Q 119.043 85.156 116.455 81.787 Q 113.867 78.418 112.451 72.949 A 30.485 30.485 0 0 1 111.731 69.102 Q 111.194 64.812 111.523 59.277 A 48.509 48.509 0 0 1 112.082 53.772 Q 112.524 51.066 113.277 48.798 A 23.108 23.108 0 0 1 114.453 45.898 Q 116.662 41.395 119.537 38.666 A 17.299 17.299 0 0 1 120.41 37.891 A 20.008 20.008 0 0 1 124.138 35.419 A 16.26 16.26 0 0 1 127.588 34.131 Q 131.235 33.231 134.009 33.48 A 12.534 12.534 0 0 1 134.18 33.496 A 15.977 15.977 0 0 1 139.5 35.124 A 21.177 21.177 0 0 1 142.432 36.914 A 15.651 15.651 0 0 1 146.228 40.909 Q 147.678 43.06 148.73 45.898 Q 149.493 42.277 150.209 39.865 A 41.552 41.552 0 0 1 150.244 39.746 Q 150.966 37.341 150.882 35.978 A 4.22 4.22 0 0 0 150.879 35.938 A 25.889 25.889 0 0 0 155.014 36.731 A 31.817 31.817 0 0 0 157.715 36.914 A 70.995 70.995 0 0 0 159.583 36.938 A 76.875 76.875 0 0 0 165.332 36.719 Z M 110.156 78.906 L 111.426 79.98 Q 110.449 81.641 108.203 83.252 A 8.601 8.601 0 0 1 103.766 84.831 A 10.794 10.794 0 0 1 102.93 84.863 A 10.465 10.465 0 0 1 99.002 84.084 A 11.893 11.893 0 0 1 98.877 84.033 A 9.535 9.535 0 0 1 96.04 82.19 A 11.663 11.663 0 0 1 95.264 81.396 Q 93.652 79.59 92.627 76.758 A 16.936 16.936 0 0 1 91.91 74.05 Q 91.559 72.139 91.504 69.824 A 23.396 23.396 0 0 1 91.865 65.645 A 19.894 19.894 0 0 1 92.383 63.477 A 136.252 136.252 0 0 1 94.287 57.617 A 78.716 78.716 0 0 0 96.091 51.712 A 85.598 85.598 0 0 0 96.143 51.514 A 22.598 22.598 0 0 0 96.772 47.835 Q 96.919 46.21 96.875 44.434 Q 96.734 41.833 96.214 39.915 A 12.294 12.294 0 0 0 95.752 38.525 A 13.208 13.208 0 0 0 95.003 36.959 Q 94.562 36.181 94.055 35.585 A 6.671 6.671 0 0 0 93.506 35.01 A 7.019 7.019 0 0 0 92.183 34.033 A 5.567 5.567 0 0 0 90.674 33.447 A 9.02 9.02 0 0 0 89.565 33.266 Q 89.197 33.23 88.846 33.23 A 6.278 6.278 0 0 0 87.891 33.301 A 8.663 8.663 0 0 0 85.418 34.187 Q 84.431 34.709 83.431 35.502 A 17.567 17.567 0 0 0 82.52 36.279 A 23.844 23.844 0 0 0 79.462 39.684 A 30.676 30.676 0 0 0 77.588 42.529 A 34.344 34.344 0 0 0 75.166 47.63 A 42.175 42.175 0 0 0 74.023 51.074 A 38.119 38.119 0 0 0 72.559 60.84 L 72.559 60.645 A 103.772 103.772 0 0 1 72.54 62.669 Q 72.522 63.59 72.486 64.408 A 57.425 57.425 0 0 1 72.461 64.941 A 23.804 23.804 0 0 0 72.433 65.689 Q 72.404 67.061 72.559 68.066 A 24.241 24.241 0 0 0 72.611 69.717 Q 72.721 71.318 73.06 72.398 A 6.638 6.638 0 0 0 73.096 72.51 A 12.738 12.738 0 0 0 73.48 73.526 Q 73.685 74.002 73.909 74.388 A 5.381 5.381 0 0 0 74.316 75 A 4.638 4.638 0 0 0 74.919 75.646 Q 75.337 76.011 75.8 76.208 A 2.918 2.918 0 0 0 75.83 76.221 A 10.051 10.051 0 0 0 76.372 76.427 Q 76.64 76.519 76.876 76.58 A 4.323 4.323 0 0 0 77.246 76.66 L 77.148 78.418 Q 75.781 78.125 73.682 78.076 Q 71.582 78.027 69.141 78.32 A 28.588 28.588 0 0 0 65.396 79.034 A 33.077 33.077 0 0 0 64.111 79.395 A 19.147 19.147 0 0 0 59.782 81.292 A 17.821 17.821 0 0 0 59.375 81.543 L 58.691 80.176 A 264.511 264.511 0 0 0 59.908 79.197 Q 60.648 78.598 61.279 78.076 Q 62.402 77.148 63.232 75.684 Q 63.873 74.554 64.368 72.901 A 23.137 23.137 0 0 0 64.648 71.875 A 24.057 24.057 0 0 0 65.017 70.091 Q 65.176 69.156 65.304 68.064 A 59.564 59.564 0 0 0 65.527 65.723 Q 66.113 58.008 66.309 50.537 A 140.501 140.501 0 0 0 66.357 46.866 Q 66.357 43.146 66.15 39.699 A 101.279 101.279 0 0 0 65.918 36.621 Q 65.79 35.275 65.388 34.35 A 3.981 3.981 0 0 0 64.893 33.496 Q 64.063 32.422 62.891 31.982 A 6.896 6.896 0 0 0 60.449 31.543 A 30.057 30.057 0 0 0 58.451 31.607 A 26.799 26.799 0 0 0 58.008 31.641 L 57.91 29.98 A 120.021 120.021 0 0 0 61.215 29.633 A 133.218 133.218 0 0 0 62.354 29.492 A 530.731 530.731 0 0 0 66.257 28.979 A 481.01 481.01 0 0 0 66.797 28.906 A 75.105 75.105 0 0 0 68.805 28.606 Q 69.756 28.45 70.6 28.282 A 45.403 45.403 0 0 0 70.654 28.271 Q 72.363 27.93 73.34 27.441 A 133.328 133.328 0 0 0 73.096 33.643 A 288.664 288.664 0 0 1 73.035 36.584 A 216.777 216.777 0 0 1 72.949 39.258 A 181.179 181.179 0 0 0 72.876 42.114 A 154.575 154.575 0 0 0 72.852 44.824 A 34.337 34.337 0 0 1 75.129 39.461 A 40.248 40.248 0 0 1 76.172 37.598 A 35.167 35.167 0 0 1 81.104 31.104 A 23.634 23.634 0 0 1 85.259 27.656 A 20.95 20.95 0 0 1 87.158 26.563 A 13.213 13.213 0 0 1 93.208 25.077 A 13.292 13.292 0 0 1 93.945 25.098 Q 97.168 25.391 99.268 27.93 Q 101.367 30.469 102.637 33.936 A 31.618 31.618 0 0 1 104.346 41.064 A 59.55 59.55 0 0 1 104.565 43.197 Q 104.743 45.326 104.695 46.944 A 21.086 21.086 0 0 1 104.688 47.168 A 20.542 20.542 0 0 1 103.467 52.979 Q 102.441 55.762 101.221 58.545 Q 100 61.328 98.926 64.258 Q 97.852 67.188 97.656 70.41 A 18.356 18.356 0 0 0 97.622 71.521 A 16.188 16.188 0 0 0 98.389 76.514 A 12.697 12.697 0 0 0 99.24 78.563 Q 100.003 80.005 101.074 80.957 A 5.132 5.132 0 0 0 104.59 82.308 A 6.254 6.254 0 0 0 105.225 82.275 A 4.892 4.892 0 0 0 107.116 81.645 Q 108.514 80.864 109.96 79.144 A 18.41 18.41 0 0 0 110.156 78.906 Z M 35.156 71.582 L 37.207 72.363 Q 36.914 74.707 35.352 77.1 Q 33.789 79.492 31.348 81.152 A 13.397 13.397 0 0 1 25.926 83.285 A 15.392 15.392 0 0 1 25.83 83.301 A 9.854 9.854 0 0 1 24.283 83.423 Q 22.641 83.423 20.959 82.88 A 13.405 13.405 0 0 1 19.531 82.324 A 14.475 14.475 0 0 1 17.088 80.882 Q 15.407 79.637 14.453 78.027 A 14.282 14.282 0 0 1 12.835 73.909 A 17.786 17.786 0 0 1 12.5 71.924 Q 12.13 68.643 12.373 64.837 A 50.994 50.994 0 0 1 12.402 64.404 A 113.853 113.853 0 0 0 12.677 58.133 A 128.039 128.039 0 0 0 12.695 55.957 A 321.816 321.816 0 0 0 12.688 53.922 Q 12.677 52.118 12.646 49.951 A 288.7 288.7 0 0 0 12.573 46.375 A 345.569 345.569 0 0 0 12.451 42.578 A 241.917 241.917 0 0 0 12.083 35.555 A 265.486 265.486 0 0 0 12.012 34.521 A 3182.785 3182.785 0 0 0 11.426 26.367 A 108.506 108.506 0 0 0 6.829 27.004 A 93.381 93.381 0 0 0 5.127 27.295 A 38.337 38.337 0 0 0 3.024 27.732 Q 1.996 27.978 1.11 28.26 A 19.515 19.515 0 0 0 0.098 28.613 A 12.838 12.838 0 0 1 0.059 28.206 Q 0.012 27.615 0.049 27.246 A 91.933 91.933 0 0 1 0.098 26.77 A 78.637 78.637 0 0 1 0.146 26.318 A 7.68 7.68 0 0 0 0.183 25.854 A 10.282 10.282 0 0 0 0.195 25.342 Q 0.195 24.805 0 23.828 A 292.602 292.602 0 0 1 2.478 23.633 A 397.781 397.781 0 0 1 5.225 23.438 A 1813.68 1813.68 0 0 1 11.133 23.047 A 1023.46 1023.46 0 0 0 10.938 20.361 Q 10.84 19.043 10.645 17.773 Q 10.307 14.597 9.571 12.309 A 14.508 14.508 0 0 0 8.838 10.449 Q 7.839 8.377 6.7 7.034 A 9.468 9.468 0 0 0 5.957 6.25 Q 4.843 5.206 3.829 4.633 A 6.378 6.378 0 0 0 3.027 4.248 Q 1.685 3.721 1.002 3.523 A 7.362 7.362 0 0 0 0.977 3.516 L 1.27 1.66 Q 2.794 2.302 4.913 2.581 A 22.667 22.667 0 0 0 5.859 2.686 A 31.426 31.426 0 0 0 8.655 2.808 A 35.713 35.713 0 0 0 11.572 2.686 Q 14.551 2.441 17.432 1.758 A 27.385 27.385 0 0 0 20.051 1.004 A 19.971 19.971 0 0 0 22.461 0 A 18.394 18.394 0 0 0 21.988 1.569 Q 21.519 3.384 21.113 6.046 A 93.283 93.283 0 0 0 20.752 8.691 A 183.286 183.286 0 0 0 20.158 14.278 Q 19.894 17.151 19.673 20.372 A 327.609 327.609 0 0 0 19.531 22.559 Q 24.609 22.266 26.855 21.777 Q 26.398 22.326 26.369 23.516 A 6.748 6.748 0 0 0 26.367 23.682 A 10.263 10.263 0 0 0 26.45 25.013 A 7.953 7.953 0 0 0 26.66 26.074 A 37.021 37.021 0 0 0 24.285 25.875 A 43.307 43.307 0 0 0 23.145 25.83 A 144.841 144.841 0 0 0 19.336 25.781 A 320.651 320.651 0 0 0 19.006 34.552 A 362.024 362.024 0 0 0 18.945 37.598 Q 18.848 43.75 19.092 49.756 Q 19.336 55.762 19.873 61.475 A 134.871 134.871 0 0 0 20.585 67.608 A 105.224 105.224 0 0 0 21.289 71.973 A 12.517 12.517 0 0 0 21.892 73.918 Q 22.311 74.944 22.886 75.708 A 5.717 5.717 0 0 0 24.023 76.855 A 7.946 7.946 0 0 0 26.313 78.071 A 7.072 7.072 0 0 0 28.223 78.418 A 6.378 6.378 0 0 0 31.742 77.346 A 8.282 8.282 0 0 0 32.422 76.855 Q 33.881 75.688 34.686 73.322 A 15.003 15.003 0 0 0 35.156 71.582 Z M 35.352 82.324 L 34.668 81.152 A 13.357 13.357 0 0 0 36.587 80.321 A 9.747 9.747 0 0 0 38.379 79.102 A 14.166 14.166 0 0 0 39.493 78.03 Q 40.173 77.296 40.625 76.563 A 8.656 8.656 0 0 0 41.579 74.693 A 7.49 7.49 0 0 0 41.895 73.535 A 96.554 96.554 0 0 0 43.741 61.446 A 80.694 80.694 0 0 0 44.043 54.541 Q 44.043 47.449 43.2 41.951 A 51.662 51.662 0 0 0 42.676 39.063 A 11.295 11.295 0 0 0 41.211 35.254 A 10.068 10.068 0 0 0 39.966 33.609 A 13.283 13.283 0 0 0 38.77 32.471 A 7.186 7.186 0 0 0 36.539 31.208 A 9.848 9.848 0 0 0 34.766 30.762 L 34.668 29.199 A 56.057 56.057 0 0 0 36.986 29.385 A 45.524 45.524 0 0 0 38.33 29.443 A 138.887 138.887 0 0 0 39.55 29.473 Q 40.033 29.483 40.472 29.487 A 77.27 77.27 0 0 0 41.309 29.492 L 44.043 29.492 Q 45.215 29.59 46.387 29.59 A 24.264 24.264 0 0 0 48.584 29.687 A 12.259 12.259 0 0 1 50.781 29.883 Q 50.488 33.398 50.293 37.061 A 395.595 395.595 0 0 0 50.127 40.436 Q 50.05 42.142 50 43.652 A 117.122 117.122 0 0 0 49.805 49.889 A 106.973 106.973 0 0 0 49.805 50.293 A 225.694 225.694 0 0 0 49.634 54.065 A 287.111 287.111 0 0 0 49.512 58.154 A 121.126 121.126 0 0 0 49.479 60.937 Q 49.479 63.672 49.609 66.211 A 72.8 72.8 0 0 0 49.836 69.366 Q 49.973 70.801 50.161 72.072 A 40.927 40.927 0 0 0 50.293 72.9 A 14.703 14.703 0 0 0 50.564 74.178 Q 50.891 75.422 51.376 76.127 A 2.554 2.554 0 0 0 51.855 76.66 A 5.875 5.875 0 0 0 52.344 76.95 Q 52.603 77.088 52.91 77.226 A 13.183 13.183 0 0 0 53.418 77.441 A 8.34 8.34 0 0 0 54.019 77.71 Q 54.335 77.838 54.71 77.966 A 20.48 20.48 0 0 0 55.518 78.223 A 26.619 26.619 0 0 0 56.596 78.516 Q 57.082 78.638 57.63 78.76 A 54.824 54.824 0 0 0 58.789 79.004 L 58.887 80.664 A 50.864 50.864 0 0 0 56.348 80.599 A 45.186 45.186 0 0 0 55.127 80.615 Q 53.32 80.664 51.953 80.664 A 57.306 57.306 0 0 1 49.954 80.748 A 47.33 47.33 0 0 1 48.828 80.762 A 53.201 53.201 0 0 0 46.185 80.957 A 65.58 65.58 0 0 0 44.434 81.152 Q 42.48 81.348 40.039 81.641 A 92.46 92.46 0 0 0 36.487 82.135 A 82.504 82.504 0 0 0 35.352 82.324 Z M 147.363 53.711 A 48.017 48.017 0 0 0 146.777 59.863 A 785.307 785.307 0 0 1 146.68 62.219 A 626.737 626.737 0 0 1 146.582 64.404 A 4031.814 4031.814 0 0 0 146.387 68.652 A 17.439 17.439 0 0 1 145.904 70.564 A 20.695 20.695 0 0 1 144.58 73.779 A 23.72 23.72 0 0 1 141.357 78.564 A 21.085 21.085 0 0 1 137.109 82.324 A 14.148 14.148 0 0 1 135.709 83.149 A 11.336 11.336 0 0 1 132.324 84.277 A 9.267 9.267 0 0 1 131.336 84.331 Q 129.128 84.331 127.051 83.252 A 10.673 10.673 0 0 1 124.395 81.274 A 14.435 14.435 0 0 1 122.607 79.053 A 15.196 15.196 0 0 1 122.206 78.411 Q 120.603 75.701 119.775 71.826 Q 119.088 68.604 119.178 64.712 A 43.637 43.637 0 0 1 119.336 61.914 Q 119.727 56.348 121.387 52.295 A 30.94 30.94 0 0 1 121.436 52.176 Q 122.198 50.338 123.112 48.804 A 18.794 18.794 0 0 1 125.439 45.654 A 16.641 16.641 0 0 1 126.669 44.452 A 13.493 13.493 0 0 1 130.762 41.943 A 12.208 12.208 0 0 1 135.163 41.11 A 12.147 12.147 0 0 1 136.719 41.211 Q 138.579 41.422 140.079 41.992 A 8.879 8.879 0 0 1 144.287 45.166 A 14.221 14.221 0 0 1 144.675 45.741 Q 145.823 47.537 146.526 49.804 A 23.623 23.623 0 0 1 147.363 53.711 Z M 44.727 22.656 Q 41.699 22.852 40.039 21.24 A 6.618 6.618 0 0 1 38.843 19.704 A 5.397 5.397 0 0 1 38.184 17.578 Q 37.988 15.527 39.307 13.721 A 4.954 4.954 0 0 1 41.361 12.109 Q 42.313 11.689 43.555 11.523 Q 45.165 11.316 46.43 11.688 A 4.903 4.903 0 0 1 48.389 12.793 A 7.373 7.373 0 0 1 49.644 14.272 A 5.694 5.694 0 0 1 50.488 16.553 A 5.313 5.313 0 0 1 50.54 17.288 Q 50.54 18.988 49.414 20.557 A 4.531 4.531 0 0 1 47.42 22.094 Q 46.289 22.564 44.727 22.656 Z"
            vector-effect="non-scaling-stroke" />
    </g>
</svg>