<svg width="245.41" height="122.5" id="my-svg" viewBox="0 0 245.41 122.5" xmlns="http://www.w3.org/2000/svg">
    <g id="svgGroup" stroke-linecap="round" fill-rule="evenodd" font-size="9pt" stroke="#000" stroke-width="0.25mm"
        fill="#000" style="stroke: #000; stroke-width: 0.25mm; fill: transparent">
        <path
            d="M 245.41 37.793 L 245.313 39.648 A 10.42 10.42 0 0 0 241.86 40.529 A 8.986 8.986 0 0 0 238.428 43.311 A 14.046 14.046 0 0 0 236.914 45.873 Q 235.489 48.921 234.57 53.711 A 61.679 61.679 0 0 0 233.636 60.284 A 54.389 54.389 0 0 0 233.496 62.402 A 118.194 118.194 0 0 0 233.366 67.893 A 107.923 107.923 0 0 0 233.398 70.557 A 117.166 117.166 0 0 0 233.838 78.271 A 631.353 631.353 0 0 1 234.473 85.742 A 74.189 74.189 0 0 1 234.605 87.537 Q 234.655 88.33 234.695 89.2 A 132.106 132.106 0 0 1 234.766 91.016 A 47.518 47.518 0 0 1 234.79 92.548 Q 234.79 94.873 234.57 97.363 A 46.221 46.221 0 0 1 233.646 103.286 A 51.335 51.335 0 0 1 233.447 104.15 A 23.979 23.979 0 0 1 230.859 110.645 A 28.354 28.354 0 0 1 227.148 115.576 A 22.862 22.862 0 0 1 222.363 119.482 Q 219.727 121.094 216.797 121.875 A 18.597 18.597 0 0 1 211.984 122.5 A 19.91 19.91 0 0 1 210.742 122.461 A 15.889 15.889 0 0 1 207.303 121.806 A 12.817 12.817 0 0 1 204.59 120.605 A 15.416 15.416 0 0 1 200.648 117.31 A 14.592 14.592 0 0 1 200.195 116.748 A 14.877 14.877 0 0 1 198.135 113.141 A 13.62 13.62 0 0 1 197.705 111.865 Q 197.182 110.017 197.182 108.343 A 10.13 10.13 0 0 1 197.266 107.031 A 12.686 12.686 0 0 1 198.454 103.075 A 14.738 14.738 0 0 1 198.779 102.441 A 14.987 14.987 0 0 1 201.953 98.438 A 14.592 14.592 0 0 1 205.243 96.224 A 17.592 17.592 0 0 1 206.641 95.605 A 14.203 14.203 0 0 1 210.313 94.722 Q 211.241 94.621 212.228 94.621 A 19.78 19.78 0 0 1 212.793 94.629 A 8.98 8.98 0 0 1 215.381 95.192 A 10.47 10.47 0 0 1 215.918 95.41 A 9.463 9.463 0 0 1 218.701 97.266 A 7.741 7.741 0 0 1 220.557 100.049 Q 221.191 101.66 221.094 103.418 A 10.723 10.723 0 0 1 220.401 106.165 A 12.597 12.597 0 0 1 220.068 106.934 Q 219.238 108.691 217.92 110.107 A 8.77 8.77 0 0 1 214.844 112.256 A 6.723 6.723 0 0 1 212.233 112.779 A 7.409 7.409 0 0 1 211.133 112.695 Q 209.054 112.412 207.981 110.619 A 5.431 5.431 0 0 1 207.91 110.498 A 7.099 7.099 0 0 1 206.965 106.957 A 7.527 7.527 0 0 1 206.982 106.445 A 7.03 7.03 0 0 1 208.394 102.689 A 8.553 8.553 0 0 1 208.545 102.49 A 4.989 4.989 0 0 1 211.087 100.79 A 7.619 7.619 0 0 1 212.793 100.488 A 4.665 4.665 0 0 1 213.026 100.482 Q 214.802 100.482 215.674 101.904 A 3.941 3.941 0 0 1 215.981 102.51 Q 216.443 103.676 215.82 104.688 Q 215.026 105.922 213.675 105.922 A 3.171 3.171 0 0 1 213.379 105.908 A 2.292 2.292 0 0 1 211.653 104.864 Q 211.397 104.495 211.203 103.997 A 5.707 5.707 0 0 1 211.133 103.809 Q 210.352 104.395 209.912 105.518 A 5.137 5.137 0 0 0 209.572 106.925 Q 209.553 107.14 209.553 107.355 A 4.712 4.712 0 0 0 209.57 107.764 A 3.47 3.47 0 0 0 210.352 109.717 Q 211.035 110.547 212.5 110.547 A 7.057 7.057 0 0 0 213.84 110.426 Q 214.718 110.256 215.422 109.848 A 4.49 4.49 0 0 0 215.479 109.814 A 6.438 6.438 0 0 0 217.48 107.959 A 7.979 7.979 0 0 0 218.405 106.219 A 7.226 7.226 0 0 0 218.604 105.615 Q 218.945 104.395 218.945 103.418 A 5.611 5.611 0 0 0 218.828 102.306 A 7.588 7.588 0 0 0 218.555 101.318 A 5.607 5.607 0 0 0 217.459 99.458 A 6.533 6.533 0 0 0 217.285 99.268 Q 216.406 98.34 214.941 97.803 Q 213.477 97.266 211.328 97.363 A 11.637 11.637 0 0 0 207.471 98.242 A 12.35 12.35 0 0 0 204.004 100.391 Q 202.441 101.758 201.465 103.711 A 9.359 9.359 0 0 0 200.497 107.572 A 10.996 10.996 0 0 0 200.488 108.008 A 9.991 9.991 0 0 0 200.84 110.701 A 8.639 8.639 0 0 0 201.514 112.402 A 9.639 9.639 0 0 0 204.297 115.674 A 13.487 13.487 0 0 0 207.747 117.532 A 15.415 15.415 0 0 0 208.301 117.725 Q 210.547 118.457 212.988 118.359 A 8.998 8.998 0 0 0 215.07 118.008 Q 216.006 117.742 217.019 117.278 A 18.966 18.966 0 0 0 218.262 116.65 A 14.42 14.42 0 0 0 221.534 114.152 A 19.38 19.38 0 0 0 223.535 111.768 Q 225.607 108.876 226.801 104.536 A 34.674 34.674 0 0 0 227.1 103.369 A 23.566 23.566 0 0 0 227.642 99.921 Q 227.879 97.146 227.59 93.887 A 49.147 49.147 0 0 0 227.246 91.016 Q 226.758 87.598 226.514 84.473 A 78.769 78.769 0 0 1 226.273 79.153 A 71.196 71.196 0 0 1 226.27 78.418 A 41.402 41.402 0 0 1 224.702 80.552 A 52.428 52.428 0 0 1 223.291 82.275 A 25.023 25.023 0 0 1 219.482 85.889 Q 217.383 87.5 214.844 88.525 A 12.012 12.012 0 0 1 210.303 89.387 A 13.941 13.941 0 0 1 209.375 89.355 A 19.926 19.926 0 0 1 202.49 87.695 Q 199.121 86.23 196.533 82.861 Q 193.945 79.492 192.529 74.023 A 30.485 30.485 0 0 1 191.81 70.176 Q 191.272 65.886 191.602 60.352 A 48.509 48.509 0 0 1 192.16 54.847 Q 192.602 52.14 193.355 49.872 A 23.108 23.108 0 0 1 194.531 46.973 Q 196.741 42.469 199.615 39.74 A 17.299 17.299 0 0 1 200.488 38.965 A 20.008 20.008 0 0 1 204.216 36.493 A 16.26 16.26 0 0 1 207.666 35.205 Q 211.313 34.305 214.087 34.554 A 12.534 12.534 0 0 1 214.258 34.57 A 15.977 15.977 0 0 1 219.578 36.198 A 21.177 21.177 0 0 1 222.51 37.988 A 15.651 15.651 0 0 1 226.306 41.983 Q 227.756 44.135 228.809 46.973 Q 229.571 43.351 230.287 40.939 A 41.552 41.552 0 0 1 230.322 40.82 Q 231.044 38.415 230.96 37.052 A 4.22 4.22 0 0 0 230.957 37.012 A 25.889 25.889 0 0 0 235.092 37.805 A 31.817 31.817 0 0 0 237.793 37.988 A 70.995 70.995 0 0 0 239.661 38.013 A 76.875 76.875 0 0 0 245.41 37.793 Z M 91.895 87.402 L 93.457 88.086 Q 93.262 89.844 92.529 91.504 A 7.659 7.659 0 0 1 90.479 94.287 A 6.866 6.866 0 0 1 87.878 95.659 A 8.307 8.307 0 0 1 87.305 95.801 Q 85.984 96.079 84.417 95.813 A 11.648 11.648 0 0 1 83.105 95.508 A 12.137 12.137 0 0 1 81.057 94.685 A 9.307 9.307 0 0 1 79.346 93.555 Q 77.832 92.285 77.051 89.941 Q 76.483 88.239 76.251 85.815 A 34.451 34.451 0 0 1 76.123 83.887 Q 75.977 80.176 76.465 74.609 A 320.749 320.749 0 0 0 76.843 70.789 A 378.134 378.134 0 0 0 77.197 66.748 A 141.46 141.46 0 0 0 77.637 58.545 Q 77.725 54.886 77.455 51.506 A 59.934 59.934 0 0 0 77.393 50.781 A 27.422 27.422 0 0 0 76.9 47.506 Q 76.536 45.82 75.965 44.38 A 16.877 16.877 0 0 0 75.928 44.287 A 12.389 12.389 0 0 0 74.585 41.785 A 9.913 9.913 0 0 0 72.803 39.844 A 6.992 6.992 0 0 0 69.829 38.418 A 10.209 10.209 0 0 0 67.578 38.184 A 6.698 6.698 0 0 0 64.223 39.109 A 9.699 9.699 0 0 0 62.549 40.332 A 16.438 16.438 0 0 0 60.09 43.136 A 22.424 22.424 0 0 0 58.398 45.996 Q 56.641 49.512 55.615 54.102 Q 54.59 58.691 54.59 63.574 L 54.59 63.477 A 8.042 8.042 0 0 0 54.595 63.763 Q 54.605 64.056 54.639 64.258 Q 54.688 64.551 54.688 64.941 Q 55.153 69.694 55.842 72.58 A 25.945 25.945 0 0 0 55.908 72.852 A 21.199 21.199 0 0 0 56.505 74.845 Q 56.85 75.809 57.26 76.598 A 10.017 10.017 0 0 0 57.812 77.539 A 9.551 9.551 0 0 0 60.693 80.371 A 57.779 57.779 0 0 0 62.31 81.348 Q 63.428 82.001 64.746 82.715 L 64.258 84.473 Q 62.837 84.024 60.529 83.461 A 134.529 134.529 0 0 0 59.033 83.105 A 79.271 79.271 0 0 0 54.193 82.147 A 92.938 92.938 0 0 0 51.855 81.787 A 66.671 66.671 0 0 0 45.34 81.184 A 60.862 60.862 0 0 0 44.434 81.152 Q 40.82 81.055 38.477 81.934 L 37.695 79.59 A 47.751 47.751 0 0 1 39.026 79.102 A 60.365 60.365 0 0 1 40.479 78.613 A 5.414 5.414 0 0 0 41.956 77.856 Q 42.529 77.448 43.08 76.869 A 10.01 10.01 0 0 0 43.359 76.563 A 8.222 8.222 0 0 0 44.292 75.231 Q 45.077 73.861 45.702 71.83 A 73.342 73.342 0 0 0 45.703 71.826 A 20.845 20.845 0 0 0 46.244 69.587 Q 46.697 67.194 46.909 63.824 A 81.126 81.126 0 0 0 46.973 62.695 A 403.632 403.632 0 0 0 47.229 56.616 A 496.928 496.928 0 0 0 47.412 50.098 A 368.816 368.816 0 0 0 47.5 42.082 A 352.841 352.841 0 0 0 47.461 36.816 A 303.82 303.82 0 0 0 47.194 27.739 A 261.02 261.02 0 0 0 47.021 24.365 A 138.095 138.095 0 0 0 46.717 20.161 Q 46.533 18.089 46.298 16.263 A 72.391 72.391 0 0 0 45.996 14.16 Q 45.41 10.84 44.336 9.033 A 11.183 11.183 0 0 0 43.423 7.71 Q 42.879 7.038 42.282 6.555 A 6.288 6.288 0 0 0 41.943 6.299 A 8.529 8.529 0 0 0 40.646 5.539 A 6.496 6.496 0 0 0 39.307 5.078 A 42.656 42.656 0 0 1 38.366 4.858 Q 37.855 4.733 37.406 4.607 A 23.22 23.22 0 0 1 37.012 4.492 L 36.914 2.93 A 77.556 77.556 0 0 0 43.252 3.187 A 82.315 82.315 0 0 0 49.072 2.979 Q 55.273 2.539 61.035 0 L 61.23 1.66 A 40.003 40.003 0 0 1 59.907 2.927 A 33.508 33.508 0 0 1 59.131 3.613 A 7.933 7.933 0 0 0 58.142 4.639 Q 57.726 5.151 57.337 5.776 A 13.349 13.349 0 0 0 57.227 5.957 A 11.012 11.012 0 0 0 56.559 7.278 Q 56.092 8.365 55.713 9.766 A 20.786 20.786 0 0 0 55.35 11.383 Q 54.987 13.33 54.785 16.016 A 124.014 124.014 0 0 0 54.646 18.071 Q 54.59 18.99 54.54 20.015 A 245.664 245.664 0 0 0 54.443 22.168 Q 54.297 25.781 54.15 29.932 A 343.287 343.287 0 0 0 53.986 36.377 A 392.095 392.095 0 0 0 53.955 38.623 A 831.219 831.219 0 0 0 53.906 47.559 A 40.646 40.646 0 0 1 57.275 41.26 Q 59.277 38.184 61.865 35.84 A 19.177 19.177 0 0 1 66.361 32.773 A 17.727 17.727 0 0 1 67.48 32.275 Q 70.508 31.055 73.926 31.738 A 9.486 9.486 0 0 1 80.127 35.498 A 20.472 20.472 0 0 1 82.954 40.81 A 24.456 24.456 0 0 1 83.545 42.676 Q 84.668 46.777 84.863 51.318 A 147.084 147.084 0 0 1 84.961 54.243 Q 85.026 57.064 84.961 59.473 A 307.802 307.802 0 0 1 84.753 63.037 A 238.538 238.538 0 0 1 84.521 66.309 A 147.391 147.391 0 0 1 84.1 70.831 A 127.818 127.818 0 0 1 83.936 72.266 A 336.797 336.797 0 0 1 83.203 77.93 A 668.422 668.422 0 0 0 82.52 83.035 A 736.757 736.757 0 0 0 82.422 83.789 A 21.848 21.848 0 0 0 82.317 84.946 Q 82.108 88.288 83.154 90.088 Q 83.973 91.495 85.032 92.091 A 3.357 3.357 0 0 0 86.133 92.48 A 3.759 3.759 0 0 0 86.752 92.532 Q 88.156 92.532 89.529 91.462 A 7.119 7.119 0 0 0 89.6 91.406 A 6.033 6.033 0 0 0 91.297 89.201 A 8.733 8.733 0 0 0 91.895 87.402 Z M 138.184 78.613 L 139.453 79.102 Q 139.181 80.282 138.571 81.672 A 21.068 21.068 0 0 1 138.477 81.885 A 8.768 8.768 0 0 1 136.622 84.523 A 9.977 9.977 0 0 1 136.523 84.619 Q 135.254 85.84 133.447 86.475 Q 132.02 86.976 130.197 86.716 A 10.849 10.849 0 0 1 129.199 86.523 A 6.218 6.218 0 0 1 125.342 83.789 Q 124.09 81.89 123.487 79.076 A 21.133 21.133 0 0 1 123.34 78.32 A 21.441 21.441 0 0 1 122.351 79.724 Q 121.802 80.444 121.143 81.201 A 15.588 15.588 0 0 1 118.678 83.467 A 17.872 17.872 0 0 1 118.018 83.936 A 15.331 15.331 0 0 1 115.033 85.492 A 18.029 18.029 0 0 1 113.916 85.889 A 12.383 12.383 0 0 1 110.855 86.443 Q 110.442 86.467 110.019 86.467 A 15.886 15.886 0 0 1 108.887 86.426 A 16.166 16.166 0 0 1 104.785 85.583 A 13.89 13.89 0 0 1 102.295 84.424 Q 99.414 82.715 97.461 80.029 A 18.376 18.376 0 0 1 94.716 74.403 A 20.962 20.962 0 0 1 94.58 73.926 A 18.833 18.833 0 0 1 93.927 68.97 A 20.751 20.751 0 0 1 94.043 66.797 A 17.732 17.732 0 0 1 94.674 63.566 A 13.209 13.209 0 0 1 96.045 60.449 A 13.452 13.452 0 0 1 99.5 56.62 A 12.945 12.945 0 0 1 100.098 56.201 Q 102.539 54.59 105.664 54.004 Q 108.789 53.418 112.109 53.711 Q 116.504 54.199 119.434 56.299 A 19.171 19.171 0 0 1 121.88 58.364 A 14.294 14.294 0 0 1 123.926 60.938 A 60.345 60.345 0 0 0 124.253 55.942 Q 124.275 55.079 124.275 54.196 A 75.612 75.612 0 0 0 124.219 51.318 A 38.158 38.158 0 0 0 123.601 45.684 A 30.969 30.969 0 0 0 122.656 41.943 A 18.486 18.486 0 0 0 120.689 37.681 A 15.535 15.535 0 0 0 118.457 34.912 A 9.143 9.143 0 0 0 113.791 32.486 Q 112.382 32.194 110.742 32.227 A 15.738 15.738 0 0 0 108.397 32.391 Q 107.163 32.577 106.141 32.974 A 8.159 8.159 0 0 0 105.127 33.447 Q 102.93 34.668 101.611 36.328 A 11.262 11.262 0 0 0 100.515 37.974 A 8.589 8.589 0 0 0 99.805 39.697 Q 99.316 41.406 99.316 42.383 A 3.917 3.917 0 0 0 99.429 43.284 Q 99.527 43.698 99.71 44.148 A 7.892 7.892 0 0 0 99.902 44.58 A 7.509 7.509 0 0 0 101.162 46.418 A 8.843 8.843 0 0 0 101.563 46.826 Q 102.637 47.852 104.102 48.438 A 5.536 5.536 0 0 0 105.838 48.817 Q 106.591 48.862 107.422 48.73 A 5.446 5.446 0 0 0 109.029 48.231 A 4.973 4.973 0 0 0 109.668 47.852 A 6.422 6.422 0 0 0 110.688 46.973 A 5.376 5.376 0 0 0 111.23 46.289 A 5.914 5.914 0 0 0 112.061 44.434 A 8.33 8.33 0 0 0 112.264 43.308 A 6.801 6.801 0 0 0 112.305 42.578 A 2.655 2.655 0 0 0 111.719 40.869 A 4.208 4.208 0 0 0 110.776 39.993 A 3.868 3.868 0 0 0 110.352 39.746 A 2.723 2.723 0 0 0 109.154 39.462 Q 108.882 39.459 108.594 39.502 A 2.991 2.991 0 0 0 107.142 40.154 A 3.85 3.85 0 0 0 106.836 40.43 A 2.892 2.892 0 0 1 107.156 40.412 Q 107.875 40.412 108.594 40.771 A 1.471 1.471 0 0 1 109.344 41.667 Q 109.436 41.946 109.462 42.294 A 3.812 3.812 0 0 1 109.473 42.578 A 2.071 2.071 0 0 1 109.359 43.281 Q 109.157 43.845 108.594 44.189 A 3.062 3.062 0 0 1 106.967 44.644 A 3.599 3.599 0 0 1 106.641 44.629 A 3.106 3.106 0 0 1 105.024 43.987 A 4.047 4.047 0 0 1 104.688 43.701 Q 103.979 43.032 103.841 41.758 A 6.033 6.033 0 0 1 103.809 41.113 A 3.457 3.457 0 0 1 104.893 38.582 A 4.89 4.89 0 0 1 105.225 38.281 A 4.981 4.981 0 0 1 108.496 37.109 Q 110.742 37.109 112.646 38.867 A 5.757 5.757 0 0 1 114.383 42.015 A 8.518 8.518 0 0 1 114.551 43.75 A 4.914 4.914 0 0 1 114.399 44.933 Q 114.265 45.473 114.014 46.045 A 7.109 7.109 0 0 1 113.021 47.654 A 8.797 8.797 0 0 1 112.402 48.34 A 7.369 7.369 0 0 1 111.09 49.371 Q 110.451 49.771 109.674 50.103 A 12.39 12.39 0 0 1 109.57 50.146 A 9.215 9.215 0 0 1 107.472 50.729 A 12.71 12.71 0 0 1 105.469 50.879 A 10.159 10.159 0 0 1 103.051 50.601 A 8.459 8.459 0 0 1 101.27 49.951 A 10.814 10.814 0 0 1 98.995 48.445 A 9.62 9.62 0 0 1 98.145 47.607 Q 96.875 46.191 96.24 44.482 A 10.526 10.526 0 0 1 95.745 42.708 A 8.333 8.333 0 0 1 95.605 41.211 A 6.592 6.592 0 0 1 95.721 40.039 Q 95.941 38.826 96.582 37.256 Q 97.559 34.863 99.658 32.715 A 17.307 17.307 0 0 1 102.616 30.314 A 22.338 22.338 0 0 1 104.932 29.004 A 14.656 14.656 0 0 1 108.768 27.762 Q 110.454 27.451 112.376 27.442 A 24.581 24.581 0 0 1 112.5 27.441 A 26.233 26.233 0 0 1 118.567 28.094 A 15.026 15.026 0 0 1 128.809 35.693 Q 133.046 43.478 130.592 58.433 A 88.568 88.568 0 0 1 130.273 60.254 A 116.643 116.643 0 0 0 129.646 64.105 Q 129.071 68.079 129.004 70.898 A 48.925 48.925 0 0 0 128.991 71.758 Q 128.969 75.262 129.492 77.441 Q 130.038 79.716 131.051 80.719 A 3.162 3.162 0 0 0 131.201 80.859 Q 132.324 81.836 133.594 82.031 A 3.937 3.937 0 0 0 134.299 82.096 A 3.591 3.591 0 0 0 135.645 81.836 A 2.768 2.768 0 0 0 136.455 81.481 Q 136.756 81.29 137.05 81.013 A 4.992 4.992 0 0 0 137.158 80.908 Q 137.697 80.369 137.998 79.38 A 7.182 7.182 0 0 0 138.184 78.613 Z M 190.234 79.98 L 191.504 81.055 Q 190.527 82.715 188.281 84.326 A 8.601 8.601 0 0 1 183.844 85.906 A 10.794 10.794 0 0 1 183.008 85.937 A 10.465 10.465 0 0 1 179.08 85.158 A 11.893 11.893 0 0 1 178.955 85.107 A 9.535 9.535 0 0 1 176.119 83.264 A 11.663 11.663 0 0 1 175.342 82.471 Q 173.73 80.664 172.705 77.832 A 16.936 16.936 0 0 1 171.988 75.124 Q 171.637 73.214 171.582 70.898 A 23.396 23.396 0 0 1 171.943 66.72 A 19.894 19.894 0 0 1 172.461 64.551 A 136.252 136.252 0 0 1 174.365 58.691 A 78.716 78.716 0 0 0 176.169 52.786 A 85.598 85.598 0 0 0 176.221 52.588 A 22.598 22.598 0 0 0 176.85 48.909 Q 176.998 47.284 176.953 45.508 Q 176.813 42.907 176.293 40.99 A 12.294 12.294 0 0 0 175.83 39.6 A 13.208 13.208 0 0 0 175.081 38.033 Q 174.64 37.255 174.133 36.659 A 6.671 6.671 0 0 0 173.584 36.084 A 7.019 7.019 0 0 0 172.261 35.108 A 5.567 5.567 0 0 0 170.752 34.521 A 9.02 9.02 0 0 0 169.643 34.34 Q 169.275 34.304 168.924 34.304 A 6.278 6.278 0 0 0 167.969 34.375 A 8.663 8.663 0 0 0 165.496 35.262 Q 164.51 35.784 163.509 36.577 A 17.567 17.567 0 0 0 162.598 37.354 A 23.844 23.844 0 0 0 159.54 40.758 A 30.676 30.676 0 0 0 157.666 43.604 A 34.344 34.344 0 0 0 155.244 48.704 A 42.175 42.175 0 0 0 154.102 52.148 A 38.119 38.119 0 0 0 152.637 61.914 L 152.637 61.719 A 103.772 103.772 0 0 1 152.618 63.743 Q 152.6 64.665 152.565 65.482 A 57.425 57.425 0 0 1 152.539 66.016 A 23.804 23.804 0 0 0 152.511 66.763 Q 152.482 68.136 152.637 69.141 A 24.241 24.241 0 0 0 152.689 70.791 Q 152.799 72.392 153.138 73.472 A 6.638 6.638 0 0 0 153.174 73.584 A 12.738 12.738 0 0 0 153.558 74.6 Q 153.763 75.076 153.987 75.462 A 5.381 5.381 0 0 0 154.395 76.074 A 4.638 4.638 0 0 0 154.997 76.72 Q 155.415 77.086 155.878 77.282 A 2.918 2.918 0 0 0 155.908 77.295 A 10.051 10.051 0 0 0 156.45 77.501 Q 156.718 77.594 156.954 77.655 A 4.323 4.323 0 0 0 157.324 77.734 L 157.227 79.492 Q 155.859 79.199 153.76 79.15 Q 151.66 79.102 149.219 79.395 A 28.588 28.588 0 0 0 145.474 80.109 A 33.077 33.077 0 0 0 144.189 80.469 A 19.147 19.147 0 0 0 139.86 82.366 A 17.821 17.821 0 0 0 139.453 82.617 L 138.77 81.25 A 264.511 264.511 0 0 0 139.986 80.271 Q 140.726 79.672 141.357 79.15 Q 142.48 78.223 143.311 76.758 Q 143.951 75.628 144.446 73.975 A 23.137 23.137 0 0 0 144.727 72.949 A 24.057 24.057 0 0 0 145.095 71.165 Q 145.254 70.231 145.382 69.139 A 59.564 59.564 0 0 0 145.605 66.797 Q 146.191 59.082 146.387 51.611 A 140.501 140.501 0 0 0 146.436 47.94 Q 146.436 44.22 146.228 40.773 A 101.279 101.279 0 0 0 145.996 37.695 Q 145.868 36.349 145.466 35.424 A 3.981 3.981 0 0 0 144.971 34.57 Q 144.141 33.496 142.969 33.057 A 6.896 6.896 0 0 0 140.527 32.617 A 30.057 30.057 0 0 0 138.529 32.682 A 26.799 26.799 0 0 0 138.086 32.715 L 137.988 31.055 A 120.021 120.021 0 0 0 141.293 30.707 A 133.218 133.218 0 0 0 142.432 30.566 A 530.731 530.731 0 0 0 146.336 30.054 A 481.01 481.01 0 0 0 146.875 29.98 A 75.105 75.105 0 0 0 148.883 29.68 Q 149.834 29.524 150.678 29.357 A 45.403 45.403 0 0 0 150.732 29.346 Q 152.441 29.004 153.418 28.516 A 133.328 133.328 0 0 0 153.174 34.717 A 288.664 288.664 0 0 1 153.113 37.659 A 216.777 216.777 0 0 1 153.027 40.332 A 181.179 181.179 0 0 0 152.954 43.188 A 154.575 154.575 0 0 0 152.93 45.898 A 34.337 34.337 0 0 1 155.207 40.535 A 40.248 40.248 0 0 1 156.25 38.672 A 35.167 35.167 0 0 1 161.182 32.178 A 23.634 23.634 0 0 1 165.337 28.73 A 20.95 20.95 0 0 1 167.236 27.637 A 13.213 13.213 0 0 1 173.286 26.151 A 13.292 13.292 0 0 1 174.023 26.172 Q 177.246 26.465 179.346 29.004 Q 181.445 31.543 182.715 35.01 A 31.618 31.618 0 0 1 184.424 42.139 A 59.55 59.55 0 0 1 184.643 44.271 Q 184.821 46.4 184.773 48.018 A 21.086 21.086 0 0 1 184.766 48.242 A 20.542 20.542 0 0 1 183.545 54.053 Q 182.52 56.836 181.299 59.619 Q 180.078 62.402 179.004 65.332 Q 177.93 68.262 177.734 71.484 A 18.356 18.356 0 0 0 177.7 72.595 A 16.188 16.188 0 0 0 178.467 77.588 A 12.697 12.697 0 0 0 179.318 79.637 Q 180.081 81.079 181.152 82.031 A 5.132 5.132 0 0 0 184.668 83.383 A 6.254 6.254 0 0 0 185.303 83.35 A 4.892 4.892 0 0 0 187.194 82.719 Q 188.592 81.938 190.038 80.218 A 18.41 18.41 0 0 0 190.234 79.98 Z M 36.133 61.719 L 37.891 62.207 A 93.312 93.312 0 0 0 36.758 67.185 A 73.624 73.624 0 0 0 36.133 70.801 A 115.461 115.461 0 0 0 35.748 73.666 Q 35.559 75.229 35.443 76.612 A 61.905 61.905 0 0 0 35.352 77.832 A 50.425 50.425 0 0 0 35.187 80.897 Q 35.148 82.628 35.244 84.223 A 35.682 35.682 0 0 0 35.254 84.375 L 33.691 84.863 A 21.172 21.172 0 0 0 32.921 83.25 A 17.593 17.593 0 0 0 32.422 82.373 A 5.213 5.213 0 0 0 31.251 81.046 A 6.752 6.752 0 0 0 30.42 80.469 Q 29.453 79.896 27.987 79.559 A 15.447 15.447 0 0 0 26.855 79.346 Q 24.609 79.004 20.898 79.297 A 491.983 491.983 0 0 1 18.042 79.492 A 628.6 628.6 0 0 1 14.941 79.687 A 307.627 307.627 0 0 1 12.39 79.858 Q 11.083 79.941 9.629 80.023 A 534.117 534.117 0 0 1 8.643 80.078 A 359.954 359.954 0 0 0 3.104 80.426 A 413.209 413.209 0 0 0 1.172 80.566 Q 4.688 74.219 8.691 68.359 A 794.054 794.054 0 0 0 15.437 58.33 A 721.696 721.696 0 0 0 16.357 56.934 A 281.417 281.417 0 0 0 21.548 48.749 A 248.138 248.138 0 0 0 23.145 46.094 A 59.083 59.083 0 0 0 26.657 39.214 A 49.851 49.851 0 0 0 28.027 35.645 A 31.265 31.265 0 0 0 24.38 35.048 Q 22.543 34.852 20.49 34.818 A 51.441 51.441 0 0 0 20.215 34.814 A 32.894 32.894 0 0 0 19.849 34.812 Q 16.18 34.812 12.819 35.636 A 27.241 27.241 0 0 0 11.865 35.889 A 20.025 20.025 0 0 0 7.341 37.769 A 17.34 17.34 0 0 0 5.029 39.355 A 8.487 8.487 0 0 0 1.917 45.088 A 11.439 11.439 0 0 0 1.855 45.703 L 0 45.313 A 96.46 96.46 0 0 0 1.074 40.479 Q 1.563 37.988 1.807 35.498 A 50.167 50.167 0 0 0 2.047 31.252 A 45.531 45.531 0 0 0 2.051 30.664 A 24.491 24.491 0 0 0 1.931 28.184 A 19.173 19.173 0 0 0 1.66 26.367 L 3.809 26.074 Q 4.395 27.148 5.566 28.076 Q 6.738 29.004 8.887 29.541 A 17.906 17.906 0 0 0 10.656 29.882 Q 12.262 30.115 14.307 30.176 A 32.352 32.352 0 0 0 15.243 30.19 Q 17.552 30.192 20.564 29.895 A 89.474 89.474 0 0 0 22.461 29.687 A 1281.301 1281.301 0 0 1 25.928 29.224 A 981.974 981.974 0 0 1 29.102 28.809 A 535.061 535.061 0 0 0 32.8 28.369 A 474.888 474.888 0 0 0 33.984 28.223 A 47.245 47.245 0 0 1 34.808 28.127 Q 36.421 27.954 37.067 28.022 A 2.297 2.297 0 0 1 37.109 28.027 A 156.833 156.833 0 0 1 33.031 36.933 A 182.776 182.776 0 0 1 31.201 40.527 A 894.266 894.266 0 0 1 24.463 53.174 A 476.822 476.822 0 0 0 21.228 59.229 A 401.152 401.152 0 0 0 18.262 64.99 A 124.753 124.753 0 0 0 16.316 69.016 Q 15.396 71.017 14.669 72.816 A 63.871 63.871 0 0 0 13.867 74.902 A 253.091 253.091 0 0 0 16.558 74.951 Q 18.818 74.98 20.745 74.958 A 133.764 133.764 0 0 0 21.289 74.951 A 15.829 15.829 0 0 0 24.714 74.541 A 13.114 13.114 0 0 0 27.1 73.73 Q 29.688 72.559 31.836 69.775 Q 33.984 66.992 36.133 61.719 Z M 227.441 54.785 A 48.017 48.017 0 0 0 226.855 60.938 A 785.307 785.307 0 0 1 226.758 63.293 A 626.737 626.737 0 0 1 226.66 65.479 A 4031.814 4031.814 0 0 0 226.465 69.727 A 17.439 17.439 0 0 1 225.982 71.638 A 20.695 20.695 0 0 1 224.658 74.854 A 23.72 23.72 0 0 1 221.436 79.639 A 21.085 21.085 0 0 1 217.188 83.398 A 14.148 14.148 0 0 1 215.787 84.223 A 11.336 11.336 0 0 1 212.402 85.352 A 9.267 9.267 0 0 1 211.414 85.405 Q 209.206 85.405 207.129 84.326 A 10.673 10.673 0 0 1 204.473 82.349 A 14.435 14.435 0 0 1 202.686 80.127 A 15.196 15.196 0 0 1 202.284 79.485 Q 200.681 76.775 199.854 72.9 Q 199.166 69.679 199.256 65.786 A 43.637 43.637 0 0 1 199.414 62.988 Q 199.805 57.422 201.465 53.369 A 30.94 30.94 0 0 1 201.514 53.25 Q 202.276 51.412 203.19 49.878 A 18.794 18.794 0 0 1 205.518 46.729 A 16.641 16.641 0 0 1 206.747 45.526 A 13.493 13.493 0 0 1 210.84 43.018 A 12.208 12.208 0 0 1 215.241 42.184 A 12.147 12.147 0 0 1 216.797 42.285 Q 218.657 42.496 220.158 43.066 A 8.879 8.879 0 0 1 224.365 46.24 A 14.221 14.221 0 0 1 224.753 46.815 Q 225.901 48.612 226.604 50.878 A 23.623 23.623 0 0 1 227.441 54.785 Z M 122.93 72.699 A 51.209 51.209 0 0 0 122.949 74.121 Q 121.289 76.074 118.701 77.783 A 11.033 11.033 0 0 1 115.434 79.227 A 14.784 14.784 0 0 1 112.402 79.687 A 16.538 16.538 0 0 1 112.343 79.691 Q 110.356 79.803 108.767 79.411 A 7.281 7.281 0 0 1 105.029 77.246 Q 103.317 75.366 102.551 72.286 A 20.469 20.469 0 0 1 102.051 69.238 Q 101.758 65.82 102.832 63.477 A 10.732 10.732 0 0 1 103.428 62.352 A 8.499 8.499 0 0 1 105.762 59.814 Q 107.617 58.496 110.01 58.057 A 13.777 13.777 0 0 1 112.502 57.824 A 12.504 12.504 0 0 1 114.648 58.008 A 8.567 8.567 0 0 1 117.853 59.221 A 10.894 10.894 0 0 1 120.068 61.084 A 15.508 15.508 0 0 1 121.164 62.405 A 12.432 12.432 0 0 1 123.242 66.699 Q 122.93 69.824 122.93 72.699 Z"
            vector-effect="non-scaling-stroke" />
    </g>
</svg>